JetBrainsMono Italic-Regular.ufo
<glyph name="exclam" format="2">
  <advance width="600" height="975"/>
  <unicode hex="0021"/>
  <outline>
    <contour>
      <point x="313.048" y="720" type="line"/>
      <point x="415.048" y="720" type="line"/>
      <point x="389.704" y="560" type="line"/>
      <point x="313.056" y="215" type="line"/>
      <point x="255.056" y="215" type="line"/>
      <point x="287.704" y="560" type="line"/>
    </contour>
    <contour>
      <point x="257.424" y="115" type="curve" smooth="yes"/>
      <point x="277.424" y="115" type="line" smooth="yes"/>
      <point x="316.424" y="115"/>
      <point x="338.464" y="90"/>
      <point x="332.762" y="54" type="curve" smooth="yes"/>
      <point x="327.059" y="18"/>
      <point x="297.416" y="-5"/>
      <point x="258.416" y="-5" type="curve" smooth="yes"/>
      <point x="238.416" y="-5" type="line" smooth="yes"/>
      <point x="199.416" y="-5"/>
      <point x="176.901" y="17"/>
      <point x="182.682" y="53.5" type="curve" smooth="yes"/>
      <point x="188.464" y="90"/>
      <point x="218.424" y="115"/>
    </contour>
  </outline>
</glyph>
<glyph name="numbersign" format="2">
  <advance width="600" height="975"/>
  <unicode hex="0023"/>
  <outline>
    <contour>
      <point x="273.048" y="720" type="line"/>
      <point x="346.048" y="720" type="line"/>
      <point x="98" y="0" type="line"/>
      <point x="25" y="0" type="line"/>
    </contour>
    <contour>
      <point x="502.048" y="720" type="line"/>
      <point x="575.048" y="720" type="line"/>
      <point x="327" y="0" type="line"/>
      <point x="254" y="0" type="line"/>
    </contour>
    <contour>
      <point x="94.368" y="520" type="line"/>
      <point x="590.368" y="520" type="line"/>
      <point x="580.072" y="455" type="line"/>
      <point x="84.072" y="455" type="line"/>
    </contour>
    <contour>
      <point x="19.976" y="265" type="line"/>
      <point x="514.976" y="265" type="line"/>
      <point x="504.68" y="200" type="line"/>
      <point x="9.68" y="200" type="line"/>
    </contour>
  </outline>
</glyph>
<glyph name="dollar" format="2">
  <advance width="600" height="975"/>
  <unicode hex="0024"/>
  <outline>
    <contour>
      <point x="262.824" y="-140" type="line"/>
      <point x="202.824" y="-140" type="line"/>
      <point x="278.856" y="340" type="line"/>
      <point x="338.856" y="340" type="line"/>
    </contour>
    <contour>
      <point x="359.64" y="850" type="line"/>
      <point x="419.64" y="850" type="line"/>
      <point x="343.608" y="370" type="line"/>
      <point x="283.608" y="370" type="line"/>
    </contour>
    <contour>
      <point x="248.416" y="-10" type="curve" smooth="yes" name="ab01"/>
      <point x="114.416" y="-10"/>
      <point x="33.088" y="70"/>
      <point x="49.304" y="185" type="curve" name="dh01"/>
      <point x="141.304" y="185" type="line" name="dh02"/>
      <point x="130.374" y="116"/>
      <point x="180.771" y="68"/>
      <point x="262.771" y="68" type="curve" smooth="yes" name="sv01"/>
      <point x="350.771" y="68"/>
      <point x="409.266" y="109"/>
      <point x="420.512" y="180" type="curve" smooth="yes" name="sh01"/>
      <point x="430.333" y="242"/>
      <point x="401.778" y="289"/>
      <point x="341.421" y="312" type="curve" smooth="yes"/>
      <point x="257.49" y="344" type="line" smooth="yes" name="sv03"/>
      <point x="156.509" y="382"/>
      <point x="112.122" y="449"/>
      <point x="126.694" y="541" type="curve" smooth="yes" name="ih01"/>
      <point x="145.544" y="660"/>
      <point x="235.632" y="730"/>
      <point x="370.632" y="730" type="curve" smooth="yes" name="at01"/>
      <point x="494.632" y="730"/>
      <point x="571.96" y="650"/>
      <point x="556.378" y="539" type="curve"/>
      <point x="464.378" y="539" type="line" name="dh03"/>
      <point x="474.99" y="606"/>
      <point x="430.277" y="652"/>
      <point x="357.277" y="652" type="curve" smooth="yes" name="sv02"/>
      <point x="280.277" y="652"/>
      <point x="225.941" y="612"/>
      <point x="215.645" y="547" type="curve" smooth="yes" name="sh02"/>
      <point x="206.774" y="491"/>
      <point x="234.122" y="449"/>
      <point x="296.32" y="425" type="curve" smooth="yes"/>
      <point x="383.934" y="391" type="line" smooth="yes" name="sv04"/>
      <point x="480.074" y="354"/>
      <point x="524.352" y="280"/>
      <point x="508.987" y="183" type="curve" smooth="yes" name="dh04"/>
      <point x="489.821" y="62"/>
      <point x="392.416" y="-10"/>
    </contour>
  </outline>
</glyph>
<glyph name="ampersand" format="2">
  <advance width="600" height="975"/>
  <unicode hex="0026"/>
  <outline>
    <contour>
      <point x="262.32" y="425" type="line"/>
      <point x="253.608" y="370" type="line"/>
      <point x="239.608" y="370" type="line" smooth="yes"/>
      <point x="185.608" y="370"/>
      <point x="148.381" y="337"/>
      <point x="139.352" y="280" type="curve" smooth="yes"/>
      <point x="119.552" y="155" type="line" smooth="yes"/>
      <point x="110.998" y="101"/>
      <point x="139.088" y="70"/>
      <point x="196.088" y="70" type="curve" smooth="yes"/>
      <point x="240.088" y="70"/>
      <point x="284.84" y="100"/>
      <point x="323.552" y="155" type="curve" smooth="yes"/>
      <point x="470.024" y="360" type="line"/>
      <point x="569.024" y="360" type="line"/>
      <point x="392.374" y="116" type="line" smooth="yes"/>
      <point x="329.752" y="30"/>
      <point x="262.416" y="-10"/>
      <point x="178.416" y="-10" type="curve" smooth="yes"/>
      <point x="69.416" y="-10"/>
      <point x="13.2368" y="52"/>
      <point x="29.552" y="155" type="curve" smooth="yes"/>
      <point x="49.352" y="280" type="line" smooth="yes"/>
      <point x="63.7664" y="371"/>
      <point x="137.32" y="425"/>
      <point x="247.32" y="425" type="curve" smooth="yes"/>
    </contour>
    <contour>
      <point x="138.78" y="560.478" type="curve" smooth="yes"/>
      <point x="154.069" y="657"/>
      <point x="233.048" y="720"/>
      <point x="344.048" y="720" type="curve" smooth="yes"/>
      <point x="462.048" y="720"/>
      <point x="523.069" y="657"/>
      <point x="506.754" y="554" type="curve"/>
      <point x="416.754" y="554" type="line"/>
      <point x="425.307" y="608"/>
      <point x="392.693" y="642"/>
      <point x="331.693" y="642" type="curve" smooth="yes"/>
      <point x="276.693" y="642"/>
      <point x="236.307" y="608"/>
      <point x="228.415" y="558.175" type="curve" smooth="yes"/>
      <point x="223.794" y="529"/>
      <point x="231.517" y="502"/>
      <point x="249.448" y="470" type="curve" smooth="yes"/>
      <point x="516" y="0" type="line"/>
      <point x="417" y="0" type="line"/>
      <point x="171.478" y="426" type="line" smooth="yes"/>
      <point x="140.19" y="481"/>
      <point x="131.893" y="517"/>
    </contour>
  </outline>
</glyph>
<glyph name="asterisk" format="2">
  <advance width="600" height="975"/>
  <unicode hex="002A"/>
  <outline>
    <contour>
      <point x="302.624" y="610" type="line"/>
      <point x="390.624" y="610" type="line"/>
      <point x="375.576" y="515" type="line" smooth="yes"/>
      <point x="364.488" y="445"/>
      <point x="312.856" y="340"/>
      <point x="312.856" y="340" type="curve"/>
      <point x="294.856" y="340" type="line"/>
      <point x="294.014" y="341"/>
      <point x="276.488" y="445"/>
      <point x="287.576" y="515" type="curve" smooth="yes"/>
    </contour>
    <contour>
      <point x="257.123" y="348" type="line"/>
      <point x="311.142" y="386" type="line"/>
      <point x="352.123" y="348" type="line"/>
      <point x="324.52" y="300" type="line"/>
      <point x="270.52" y="300" type="line"/>
    </contour>
    <contour>
      <point x="45.3008" y="387" type="line"/>
      <point x="88.448" y="470" type="line"/>
      <point x="172.379" y="438" type="line" smooth="yes"/>
      <point x="234.578" y="414"/>
      <point x="310.648" y="345"/>
      <point x="310.648" y="345" type="curve"/>
      <point x="301.955" y="328" type="line"/>
      <point x="299.797" y="327"/>
      <point x="191.43" y="331"/>
      <point x="129.232" y="355" type="curve" smooth="yes"/>
    </contour>
    <contour>
      <point x="556.606" y="471" type="line"/>
      <point x="573.826" y="384" type="line"/>
      <point x="481.757" y="352" type="line" smooth="yes"/>
      <point x="411.955" y="328"/>
      <point x="301.955" y="328"/>
      <point x="301.955" y="328" type="curve"/>
      <point x="297.648" y="345" type="line"/>
      <point x="298.806" y="346"/>
      <point x="394.736" y="415"/>
      <point x="464.538" y="439" type="curve" smooth="yes"/>
    </contour>
    <contour>
      <point x="148.731" y="93" type="line"/>
      <point x="81.8096" y="144" type="line"/>
      <point x="148.165" y="222" type="line" smooth="yes"/>
      <point x="198.352" y="280"/>
      <point x="296.806" y="346"/>
      <point x="296.806" y="346" type="curve"/>
      <point x="310.064" y="335" type="line"/>
      <point x="309.906" y="334"/>
      <point x="264.274" y="229"/>
      <point x="215.086" y="171" type="curve" smooth="yes"/>
    </contour>
    <contour>
      <point x="462.81" y="144" type="line"/>
      <point x="386.048" y="95" type="line"/>
      <point x="343.403" y="173" type="line" smooth="yes"/>
      <point x="312.432" y="230"/>
      <point x="294.064" y="335"/>
      <point x="294.064" y="335" type="curve"/>
      <point x="310.806" y="346" type="line"/>
      <point x="311.648" y="345"/>
      <point x="389.352" y="280"/>
      <point x="420.165" y="222" type="curve" smooth="yes"/>
    </contour>
  </outline>
</glyph>
<glyph name="plus" format="2">
  <advance width="600" height="975"/>
  <unicode hex="002B"/>
  <outline>
    <contour>
      <point x="380.288" y="570" type="line"/>
      <point x="347.816" y="365" type="line"/>
      <point x="537.816" y="365" type="line"/>
      <point x="526.728" y="295" type="line"/>
      <point x="336.728" y="295" type="line"/>
      <point x="304.256" y="90" type="line"/>
      <point x="224.256" y="90" type="line"/>
      <point x="256.728" y="295" type="line"/>
      <point x="66.728" y="295" type="line"/>
      <point x="77.816" y="365" type="line"/>
      <point x="267.816" y="365" type="line"/>
      <point x="300.288" y="570" type="line"/>
    </contour>
  </outline>
</glyph>
<glyph name="comma" format="2">
  <advance width="600" height="975"/>
  <unicode hex="002C"/>
  <outline>
    <contour>
      <point x="392.918" y="151" type="line"/>
      <point x="213.656" y="-160" type="line"/>
      <point x="133.656" y="-160" type="line"/>
      <point x="262.918" y="151" type="line"/>
    </contour>
  </outline>
</glyph>
<glyph name="hyphen" format="2">
  <advance width="600" height="975"/>
  <unicode hex="002D"/>
  <outline>
    <contour>
      <point x="106.232" y="370" type="line"/>
      <point x="506.232" y="370" type="line"/>
      <point x="494.352" y="295" type="line"/>
      <point x="94.352" y="295" type="line"/>
    </contour>
  </outline>
</glyph>
<glyph name="period" format="2">
  <advance width="600" height="975"/>
  <unicode hex="002E"/>
  <outline>
    <contour>
      <point x="220.514" y="79" type="curve" smooth="yes"/>
      <point x="228.75" y="131"/>
      <point x="268.136" y="165"/>
      <point x="320.136" y="165" type="curve" smooth="yes"/>
      <point x="372.136" y="165"/>
      <point x="400.75" y="131"/>
      <point x="392.514" y="79" type="curve" smooth="yes"/>
      <point x="384.118" y="26"/>
      <point x="344.416" y="-10"/>
      <point x="292.416" y="-10" type="curve" smooth="yes"/>
      <point x="240.416" y="-10"/>
      <point x="212.118" y="26"/>
    </contour>
  </outline>
</glyph>
<glyph name="three" format="2">
  <advance width="600" height="975"/>
  <unicode hex="0033"/>
  <outline>
    <contour>
      <point x="305.27" y="431" type="curve"/>
      <point x="305.27" y="431"/>
      <point x="323.33" y="444"/>
      <point x="342.864" y="460" type="curve" smooth="yes"/>
      <point x="538.208" y="620" type="line"/>
      <point x="554.048" y="720" type="line"/>
      <point x="154.048" y="720" type="line"/>
      <point x="141.376" y="640" type="line"/>
      <point x="392.376" y="640" type="line" smooth="yes"/>
      <point x="428.376" y="640"/>
      <point x="466.01" y="644"/>
      <point x="466.01" y="644" type="curve"/>
      <point x="465.693" y="642" type="line"/>
      <point x="465.693" y="642"/>
      <point x="421.574" y="616"/>
      <point x="392.614" y="591" type="curve" smooth="yes"/>
      <point x="227.646" y="446" type="line"/>
      <point x="212.44" y="350" type="line"/>
      <point x="295.44" y="350" type="line" smooth="yes"/>
      <point x="381.44" y="350"/>
      <point x="429.57" y="294"/>
      <point x="416.264" y="210" type="curve" smooth="yes"/>
      <point x="402.958" y="126"/>
      <point x="339.088" y="70"/>
      <point x="255.088" y="70" type="curve" smooth="yes"/>
      <point x="184.088" y="70"/>
      <point x="137.374" y="116"/>
      <point x="137.304" y="185" type="curve"/>
      <point x="47.304" y="185" type="line"/>
      <point x="39.6128" y="67"/>
      <point x="117.416" y="-10"/>
      <point x="242.416" y="-10" type="curve" smooth="yes"/>
      <point x="383.416" y="-10"/>
      <point x="485.88" y="75"/>
      <point x="507.264" y="210" type="curve" smooth="yes"/>
      <point x="528.49" y="344"/>
      <point x="448.27" y="431"/>
    </contour>
  </outline>
</glyph>
<glyph name="four" format="2">
  <advance width="600" height="975"/>
  <unicode hex="0034"/>
  <outline>
    <contour>
      <point x="166.134" y="266" type="line"/>
      <point x="162.224" y="235" type="line"/>
      <point x="397.224" y="235" type="line"/>
      <point x="425.736" y="415" type="line"/>
      <point x="515.736" y="415" type="line"/>
      <point x="450" y="0" type="line"/>
      <point x="360" y="0" type="line"/>
      <point x="384.552" y="155" type="line"/>
      <point x="59.552" y="155" type="line"/>
      <point x="81.2528" y="292" type="line"/>
      <point x="431.048" y="720" type="line"/>
      <point x="533.048" y="720" type="line"/>
    </contour>
  </outline>
</glyph>
<glyph name="five" format="2">
  <advance width="600" height="975"/>
  <unicode hex="0035"/>
  <outline>
    <contour>
      <point x="353.461" y="460" type="curve" smooth="yes"/>
      <point x="474.864" y="460"/>
      <point x="535.034" y="379"/>
      <point x="514.6" y="250" type="curve" smooth="yes"/>
      <point x="506.68" y="200" type="line" smooth="yes"/>
      <point x="486.405" y="72"/>
      <point x="384.416" y="-10"/>
      <point x="246.416" y="-10" type="curve" smooth="yes"/>
      <point x="124.416" y="-10"/>
      <point x="50.3952" y="53"/>
      <point x="48.76" y="150" type="curve"/>
      <point x="143.76" y="150" type="line"/>
      <point x="149.157" y="102"/>
      <point x="191.088" y="70"/>
      <point x="260.088" y="70" type="curve" smooth="yes"/>
      <point x="341.088" y="70"/>
      <point x="401.008" y="120"/>
      <point x="413.68" y="200" type="curve" smooth="yes"/>
      <point x="421.6" y="250" type="line" smooth="yes"/>
      <point x="434.272" y="330"/>
      <point x="390.192" y="380"/>
      <point x="308.192" y="380" type="curve" smooth="yes"/>
      <point x="257.192" y="380"/>
      <point x="215.182" y="361"/>
      <point x="185.48" y="325" type="curve"/>
      <point x="93.48" y="325" type="line"/>
      <point x="161.048" y="720" type="line"/>
      <point x="557.048" y="720" type="line"/>
      <point x="544.059" y="638" type="line"/>
      <point x="235.059" y="638" type="line"/>
      <point x="191.826" y="384" type="line"/>
      <point x="197.826" y="384" type="line"/>
      <point x="197.826" y="384"/>
      <point x="235.864" y="460"/>
    </contour>
  </outline>
</glyph>
<glyph name="seven" format="2">
  <advance width="600" height="975"/>
  <unicode hex="0037"/>
  <outline>
    <contour>
      <point x="216.059" y="638" type="line"/>
      <point x="198.952" y="530" type="line"/>
      <point x="108.952" y="530" type="line"/>
      <point x="139.048" y="720" type="line"/>
      <point x="589.048" y="720" type="line"/>
      <point x="572.891" y="618" type="line"/>
      <point x="222" y="0" type="line"/>
      <point x="118" y="0" type="line"/>
      <point x="448.922" y="574" type="line" smooth="yes"/>
      <point x="473.733" y="617"/>
      <point x="491.426" y="634"/>
      <point x="491.426" y="634" type="curve"/>
      <point x="492.376" y="640" type="line"/>
      <point x="492.376" y="640"/>
      <point x="437.059" y="638"/>
      <point x="411.059" y="638" type="curve" smooth="yes"/>
    </contour>
  </outline>
</glyph>
<glyph name="nine" format="2">
  <advance width="600" height="975"/>
  <unicode hex="0039"/>
  <outline>
    <contour>
      <point x="364.632" y="730" type="curve" smooth="yes"/>
      <point x="501.632" y="730"/>
      <point x="581.376" y="640"/>
      <point x="559.992" y="505" type="curve" smooth="yes"/>
      <point x="547.32" y="425"/>
      <point x="494.222" y="336"/>
      <point x="410.957" y="227" type="curve" smooth="yes"/>
      <point x="239" y="0" type="line"/>
      <point x="130" y="0" type="line"/>
      <point x="320.016" y="240" type="line" smooth="yes"/>
      <point x="388.797" y="327"/>
      <point x="404.856" y="340"/>
      <point x="404.856" y="340" type="curve"/>
      <point x="389.856" y="340" type="line"/>
      <point x="389.856" y="340"/>
      <point x="356.986" y="284"/>
      <point x="265.986" y="284" type="curve" smooth="yes"/>
      <point x="148.986" y="284"/>
      <point x="78.9248" y="372"/>
      <point x="99.992" y="505" type="curve" smooth="yes"/>
      <point x="121.059" y="638"/>
      <point x="231.632" y="730"/>
    </contour>
    <contour>
      <point x="469.992" y="505" type="curve" smooth="yes"/>
      <point x="483.773" y="592"/>
      <point x="434.96" y="650"/>
      <point x="351.96" y="650" type="curve" smooth="yes"/>
      <point x="270.96" y="650"/>
      <point x="203.773" y="592"/>
      <point x="189.992" y="505" type="curve" smooth="yes"/>
      <point x="176.211" y="418"/>
      <point x="225.024" y="360"/>
      <point x="306.024" y="360" type="curve" smooth="yes"/>
      <point x="388.024" y="360"/>
      <point x="456.37" y="419"/>
    </contour>
  </outline>
</glyph>
<glyph name="colon" format="2">
  <advance width="600" height="975"/>
  <unicode hex="003A"/>
  <outline>
    <contour>
      <point x="243.874" y="479" type="curve" smooth="yes"/>
      <point x="251.318" y="526"/>
      <point x="289.704" y="560"/>
      <point x="338.704" y="560" type="curve" smooth="yes"/>
      <point x="387.704" y="560"/>
      <point x="415.318" y="526"/>
      <point x="407.874" y="479" type="curve" smooth="yes"/>
      <point x="400.112" y="430"/>
      <point x="361.043" y="398"/>
      <point x="313.043" y="398" type="curve" smooth="yes"/>
      <point x="264.043" y="398"/>
      <point x="236.27" y="431"/>
    </contour>
    <contour>
      <point x="179.246" y="71" type="curve" smooth="yes"/>
      <point x="186.691" y="118"/>
      <point x="225.077" y="152"/>
      <point x="274.077" y="152" type="curve" smooth="yes"/>
      <point x="323.077" y="152"/>
      <point x="350.691" y="118"/>
      <point x="343.246" y="71" type="curve" smooth="yes"/>
      <point x="335.485" y="22"/>
      <point x="296.416" y="-10"/>
      <point x="248.416" y="-10" type="curve" smooth="yes"/>
      <point x="199.416" y="-10"/>
      <point x="171.643" y="23"/>
    </contour>
  </outline>
</glyph>
<glyph name="semicolon" format="2">
  <advance width="600" height="975"/>
  <unicode hex="003B"/>
  <outline>
    <contour>
      <point x="377.929" y="151.05" type="line"/>
      <point x="198.716" y="-159.6" type="line"/>
      <point x="118.716" y="-159.6" type="line"/>
      <point x="247.929" y="151.05" type="line"/>
    </contour>
    <contour>
      <point x="273.852" y="478.8" type="curve" smooth="yes"/>
      <point x="281.377" y="526.3"/>
      <point x="319.644" y="559.55"/>
      <point x="368.644" y="559.55" type="curve" smooth="yes"/>
      <point x="417.644" y="559.55"/>
      <point x="445.377" y="526.3"/>
      <point x="437.852" y="478.8" type="curve" smooth="yes"/>
      <point x="430.176" y="430.35"/>
      <point x="391.059" y="398.05"/>
      <point x="343.059" y="398.05" type="curve" smooth="yes"/>
      <point x="294.059" y="398.05"/>
      <point x="266.327" y="431.3"/>
    </contour>
  </outline>
</glyph>
<glyph name="less" format="2">
  <advance width="600" height="975"/>
  <unicode hex="003C"/>
  <outline>
    <contour>
      <point x="152.589" y="332" type="curve"/>
      <point x="151.48" y="325" type="line"/>
      <point x="151.48" y="325"/>
      <point x="173.53" y="319"/>
      <point x="203.154" y="304" type="curve" smooth="yes"/>
      <point x="488.394" y="154" type="line"/>
      <point x="475.296" y="65" type="line"/>
      <point x="79.352" y="280" type="line"/>
      <point x="95.192" y="380" type="line"/>
      <point x="559.248" y="595" type="line"/>
      <point x="544.042" y="499" type="line"/>
      <point x="210.44" y="350" type="line" smooth="yes"/>
      <point x="176.064" y="335"/>
      <point x="152.589" y="332"/>
    </contour>
  </outline>
</glyph>
<glyph name="equal" format="2">
  <advance width="600" height="975"/>
  <unicode hex="003D"/>
  <outline>
    <contour>
      <point x="69.6" y="250" type="line"/>
      <point x="509.6" y="250" type="line"/>
      <point x="496.928" y="170" type="line"/>
      <point x="56.928" y="170" type="line"/>
    </contour>
    <contour>
      <point x="107.616" y="490" type="line"/>
      <point x="547.616" y="490" type="line"/>
      <point x="534.944" y="410" type="line"/>
      <point x="94.944" y="410" type="line"/>
    </contour>
  </outline>
</glyph>
<glyph name="question" format="2">
  <advance width="600" height="975"/>
  <unicode hex="003F"/>
  <outline>
    <contour>
      <point x="222.884" y="115" type="curve" smooth="yes"/>
      <point x="242.884" y="115" type="line" smooth="yes"/>
      <point x="281.884" y="115"/>
      <point x="303.024" y="90"/>
      <point x="296.026" y="54" type="curve" smooth="yes"/>
      <point x="289.027" y="18"/>
      <point x="258.556" y="-5"/>
      <point x="219.556" y="-5" type="curve" smooth="yes"/>
      <point x="199.556" y="-5" type="line" smooth="yes"/>
      <point x="160.556" y="-5"/>
      <point x="138.833" y="17"/>
      <point x="145.928" y="53.5" type="curve" smooth="yes"/>
      <point x="153.024" y="90"/>
      <point x="183.884" y="115"/>
    </contour>
    <contour>
      <point x="517.2" y="500" type="curve" smooth="yes"/>
      <point x="498.984" y="385"/>
      <point x="421.054" y="316"/>
      <point x="300.104" y="310" type="curve"/>
      <point x="283.472" y="205" type="line"/>
      <point x="193.472" y="205" type="line"/>
      <point x="221.984" y="385" type="line"/>
      <point x="271.984" y="385" type="line" smooth="yes"/>
      <point x="357.984" y="385"/>
      <point x="418.429" y="432"/>
      <point x="430.784" y="510" type="curve" smooth="yes"/>
      <point x="443.139" y="588"/>
      <point x="397.584" y="635"/>
      <point x="310.584" y="635" type="curve" smooth="yes"/>
      <point x="185.584" y="635" type="line"/>
      <point x="199.048" y="720" type="line"/>
      <point x="324.048" y="720" type="line" smooth="yes"/>
      <point x="462.048" y="720"/>
      <point x="538.267" y="633"/>
    </contour>
  </outline>
</glyph>
<glyph name="A" format="2">
  <advance width="600" height="975"/>
  <unicode hex="0041"/>
  <outline>
    <contour>
      <point x="506" y="0" type="line" name="ab01"/>
      <point x="412" y="0" type="line"/>
      <point x="394.155" y="203" type="line" name="dv01"/>
      <point x="173.155" y="203" type="line"/>
      <point x="90" y="0" type="line" name="ab02"/>
      <point x="-6" y="0" type="line"/>
      <point x="304.048" y="720" type="line" name="at01"/>
      <point x="430.048" y="720" type="line"/>
    </contour>
    <contour>
      <point x="388.035" y="278" type="line" name="dv02"/>
      <point x="363.179" y="563" type="line" smooth="yes"/>
      <point x="358.05" y="619"/>
      <point x="359.544" y="660"/>
      <point x="359.544" y="660" type="curve"/>
      <point x="355.544" y="660" type="line"/>
      <point x="355.544" y="660"/>
      <point x="343.05" y="619"/>
      <point x="320.179" y="563" type="curve" smooth="yes"/>
      <point x="204.035" y="278" type="line"/>
    </contour>
  </outline>
</glyph>
<glyph name="B" format="2">
  <advance width="600" height="975"/>
  <unicode hex="0042"/>
  <outline>
    <contour>
      <point x="552.952" y="530" type="curve" smooth="yes"/>
      <point x="539.488" y="445"/>
      <point x="477.142" y="386"/>
      <point x="396.192" y="380" type="curve"/>
      <point x="395.242" y="374" type="line"/>
      <point x="485.45" y="369"/>
      <point x="530.312" y="305"/>
      <point x="514.155" y="203" type="curve" smooth="yes"/>
      <point x="494.038" y="76"/>
      <point x="400" y="0"/>
      <point x="262" y="0" type="curve" smooth="yes"/>
      <point x="40" y="0" type="line"/>
      <point x="154.048" y="720" type="line"/>
      <point x="365.048" y="720" type="line" smooth="yes"/>
      <point x="500.048" y="720"/>
      <point x="571.485" y="647"/>
    </contour>
    <contour>
      <point x="419.63" y="206" type="curve" smooth="yes"/>
      <point x="431.827" y="283"/>
      <point x="388.272" y="330"/>
      <point x="304.272" y="330" type="curve" smooth="yes"/>
      <point x="181.272" y="330" type="line"/>
      <point x="141.989" y="82" type="line"/>
      <point x="264.989" y="82" type="line" smooth="yes"/>
      <point x="350.989" y="82"/>
      <point x="407.275" y="128"/>
    </contour>
    <contour>
      <point x="456.843" y="523" type="curve" smooth="yes"/>
      <point x="468.09" y="594"/>
      <point x="427.059" y="638"/>
      <point x="352.059" y="638" type="curve" smooth="yes"/>
      <point x="230.059" y="638" type="line"/>
      <point x="193.627" y="408" type="line"/>
      <point x="314.627" y="408" type="line" smooth="yes"/>
      <point x="390.627" y="408"/>
      <point x="445.597" y="452"/>
    </contour>
  </outline>
</glyph>
<glyph name="D" format="2">
  <advance width="600" height="975"/>
  <unicode hex="0044"/>
  <outline>
    <contour>
      <point x="251.672" y="80" type="curve" smooth="yes"/>
      <point x="140.672" y="80" type="line"/>
      <point x="229.376" y="640" type="line"/>
      <point x="340.376" y="640" type="line" smooth="yes"/>
      <point x="424.376" y="640"/>
      <point x="471.506" y="584"/>
      <point x="458.358" y="501" type="curve" smooth="yes"/>
      <point x="413.848" y="220" type="line" smooth="yes"/>
      <point x="400.542" y="136"/>
      <point x="335.672" y="80"/>
    </contour>
    <contour>
      <point x="239" y="0" type="line" smooth="yes"/>
      <point x="377" y="0"/>
      <point x="480.781" y="87"/>
      <point x="501.848" y="220" type="curve" smooth="yes"/>
      <point x="546.358" y="501" type="line" smooth="yes"/>
      <point x="567.267" y="633"/>
      <point x="491.048" y="720"/>
      <point x="353.048" y="720" type="curve" smooth="yes"/>
      <point x="154.048" y="720" type="line"/>
      <point x="40" y="0" type="line"/>
    </contour>
  </outline>
</glyph>
<glyph name="E" format="2">
  <advance width="600" height="975"/>
  <unicode hex="0045"/>
  <outline>
    <contour>
      <point x="161.048" y="720" type="line"/>
      <point x="584.048" y="720" type="line"/>
      <point x="571.376" y="640" type="line"/>
      <point x="236.376" y="640" type="line"/>
      <point x="200.261" y="412" type="line"/>
      <point x="500.261" y="412" type="line"/>
      <point x="487.272" y="330" type="line"/>
      <point x="187.272" y="330" type="line"/>
      <point x="147.672" y="80" type="line"/>
      <point x="482.672" y="80" type="line"/>
      <point x="470" y="0" type="line"/>
      <point x="47" y="0" type="line"/>
    </contour>
  </outline>
  <guideline angle="0" x="0" y="434"/>
  <guideline angle="0" x="0" y="304"/>
</glyph>
<glyph name="H" format="2">
  <advance width="600" height="750"/>
  <unicode hex="0048"/>
  <outline>
    <contour>
      <point x="480.048" y="720" type="line"/>
      <point x="431.894" y="416" type="line"/>
      <point x="195.894" y="416" type="line"/>
      <point x="244.048" y="720" type="line"/>
      <point x="154.048" y="720" type="line"/>
      <point x="40" y="0" type="line"/>
      <point x="130" y="0" type="line"/>
      <point x="182.906" y="334" type="line"/>
      <point x="418.906" y="334" type="line"/>
      <point x="366" y="0" type="line"/>
      <point x="456" y="0" type="line"/>
      <point x="570.048" y="720" type="line"/>
    </contour>
  </outline>
</glyph>
<glyph name="J" format="2">
  <advance width="600" height="975"/>
  <unicode hex="004A"/>
  <outline>
    <contour>
      <point x="231.088" y="70" type="curve" smooth="yes"/>
      <point x="162.088" y="70"/>
      <point x="114.741" y="112"/>
      <point x="112.72" y="175" type="curve"/>
      <point x="22.72" y="175" type="line"/>
      <point x="23.9792" y="63"/>
      <point x="101.416" y="-10"/>
      <point x="218.416" y="-10" type="curve" smooth="yes"/>
      <point x="360.416" y="-10"/>
      <point x="461.563" y="73"/>
      <point x="482.472" y="205" type="curve" smooth="yes"/>
      <point x="564.048" y="720" type="line"/>
      <point x="194.048" y="720" type="line"/>
      <point x="181.376" y="640" type="line"/>
      <point x="461.376" y="640" type="line"/>
      <point x="392.472" y="205" type="line" smooth="yes"/>
      <point x="379.483" y="123"/>
      <point x="316.088" y="70"/>
    </contour>
  </outline>
</glyph>
<glyph name="K" format="2">
  <advance width="600" height="975"/>
  <unicode hex="004B"/>
  <outline>
    <contour>
      <point x="40" y="0" type="line"/>
      <point x="154.048" y="720" type="line"/>
      <point x="244.048" y="720" type="line"/>
      <point x="195.578" y="414" type="line"/>
      <point x="311.578" y="414" type="line"/>
      <point x="524.048" y="720" type="line"/>
      <point x="629.048" y="720" type="line"/>
      <point x="384.45" y="369" type="line"/>
      <point x="525" y="0" type="line"/>
      <point x="427" y="0" type="line"/>
      <point x="303.064" y="335" type="line"/>
      <point x="183.064" y="335" type="line"/>
      <point x="130" y="0" type="line"/>
    </contour>
  </outline>
</glyph>
<glyph name="L" format="2">
  <advance width="600" height="975"/>
  <unicode hex="004C"/>
  <outline>
    <contour>
      <point x="289.048" y="720" type="line"/>
      <point x="187.989" y="82" type="line"/>
      <point x="527.989" y="82" type="line"/>
      <point x="515" y="0" type="line"/>
      <point x="85" y="0" type="line"/>
      <point x="199.048" y="720" type="line"/>
    </contour>
  </outline>
</glyph>
<glyph name="M" format="2">
  <advance width="600" height="975"/>
  <unicode hex="004D"/>
  <outline>
    <contour>
      <point x="139.048" y="720" type="line" name="at01"/>
      <point x="255.048" y="720" type="line"/>
      <point x="298.398" y="476" type="line" smooth="yes"/>
      <point x="306.062" y="436"/>
      <point x="306.192" y="380"/>
      <point x="306.192" y="380" type="curve"/>
      <point x="314.192" y="380" type="line"/>
      <point x="314.192" y="380"/>
      <point x="334.062" y="436"/>
      <point x="353.398" y="476" type="curve" smooth="yes"/>
      <point x="470.048" y="720" type="line" name="at02"/>
      <point x="589.048" y="720" type="line"/>
      <point x="475" y="0" type="line" name="ab01"/>
      <point x="387" y="0" type="line" name="ah01"/>
      <point x="466.992" y="505" type="line" smooth="yes"/>
      <point x="478.08" y="575"/>
      <point x="501.01" y="644"/>
      <point x="501.01" y="644" type="curve" name="sh01"/>
      <point x="490.01" y="644" type="line"/>
      <point x="490.01" y="644"/>
      <point x="464.872" y="580"/>
      <point x="428.992" y="505" type="curve" smooth="yes"/>
      <point x="340.688" y="320" type="line"/>
      <point x="262.688" y="320" type="line"/>
      <point x="232.992" y="505" type="line" smooth="yes"/>
      <point x="219.614" y="591"/>
      <point x="213.168" y="645"/>
      <point x="213.168" y="645" type="curve" name="sh03"/>
      <point x="206.168" y="645" type="line"/>
      <point x="206.168" y="645"/>
      <point x="204.08" y="575"/>
      <point x="192.992" y="505" type="curve" smooth="yes" name="sh02"/>
      <point x="113" y="0" type="line" name="ab02"/>
      <point x="25" y="0" type="line"/>
    </contour>
  </outline>
</glyph>
<glyph name="O" format="2">
  <advance width="600" height="750"/>
  <unicode hex="004F"/>
  <outline>
    <contour>
      <point x="152.314" y="204" type="curve" smooth="yes"/>
      <point x="201.734" y="516" type="line" smooth="yes"/>
      <point x="214.723" y="598"/>
      <point x="273.96" y="650"/>
      <point x="352.96" y="650" type="curve" smooth="yes"/>
      <point x="431.96" y="650"/>
      <point x="474.723" y="598"/>
      <point x="461.734" y="516" type="curve" smooth="yes"/>
      <point x="412.314" y="204" type="line" smooth="yes"/>
      <point x="399.325" y="122"/>
      <point x="340.088" y="70"/>
      <point x="261.088" y="70" type="curve" smooth="yes"/>
      <point x="182.088" y="70"/>
      <point x="139.325" y="122"/>
    </contour>
    <contour>
      <point x="62.3136" y="204" type="line" smooth="yes"/>
      <point x="41.88" y="75"/>
      <point x="115.416" y="-10"/>
      <point x="248.416" y="-10" type="curve" smooth="yes"/>
      <point x="384.416" y="-10"/>
      <point x="481.405" y="72"/>
      <point x="502.314" y="204" type="curve" smooth="yes"/>
      <point x="551.734" y="516" type="line" smooth="yes"/>
      <point x="572.168" y="645"/>
      <point x="498.632" y="730"/>
      <point x="365.632" y="730" type="curve" smooth="yes"/>
      <point x="228.632" y="730"/>
      <point x="132.802" y="649"/>
      <point x="111.734" y="516" type="curve" smooth="yes"/>
    </contour>
  </outline>
</glyph>
<glyph name="Q" format="2">
  <advance width="600" height="975"/>
  <unicode hex="0051"/>
  <outline>
    <component base="O"/>
    <contour>
      <point x="244.821" y="62" type="line"/>
      <point x="340.821" y="62" type="line"/>
      <point x="454.864" y="-165" type="line"/>
      <point x="356.864" y="-165" type="line"/>
    </contour>
  </outline>
</glyph>
<glyph name="S" format="2">
  <advance width="600" height="975"/>
  <unicode hex="0053"/>
  <outline>
    <contour>
      <point x="248.416" y="-10" type="curve" smooth="yes"/>
      <point x="114.416" y="-10"/>
      <point x="33.088" y="70"/>
      <point x="49.304" y="185" type="curve"/>
      <point x="144.304" y="185" type="line"/>
      <point x="133.85" y="119"/>
      <point x="184.088" y="70"/>
      <point x="263.088" y="70" type="curve" smooth="yes"/>
      <point x="348.088" y="70"/>
      <point x="406.582" y="111"/>
      <point x="417.512" y="180" type="curve" smooth="yes"/>
      <point x="426.699" y="238"/>
      <point x="395.619" y="288"/>
      <point x="333.421" y="312" type="curve" smooth="yes"/>
      <point x="261.856" y="340" type="line" smooth="yes"/>
      <point x="163.875" y="378"/>
      <point x="112.755" y="453"/>
      <point x="126.378" y="539" type="curve" smooth="yes"/>
      <point x="145.861" y="662"/>
      <point x="233.632" y="730"/>
      <point x="370.632" y="730" type="curve" smooth="yes"/>
      <point x="496.632" y="730"/>
      <point x="572.277" y="652"/>
      <point x="556.378" y="539" type="curve"/>
      <point x="461.378" y="539" type="line"/>
      <point x="471.515" y="603"/>
      <point x="426.96" y="650"/>
      <point x="356.96" y="650" type="curve" smooth="yes"/>
      <point x="280.96" y="650"/>
      <point x="228.941" y="612"/>
      <point x="219.12" y="550" type="curve" smooth="yes"/>
      <point x="209.616" y="490"/>
      <point x="237.963" y="448"/>
      <point x="303.003" y="423" type="curve" smooth="yes"/>
      <point x="378.41" y="394" type="line" smooth="yes"/>
      <point x="477.39" y="356"/>
      <point x="524.194" y="279"/>
      <point x="508.987" y="183" type="curve" smooth="yes"/>
      <point x="489.504" y="60"/>
      <point x="394.416" y="-10"/>
    </contour>
  </outline>
</glyph>
<glyph name="T" format="2">
  <advance width="600" height="975"/>
  <unicode hex="0054"/>
  <outline>
    <contour>
      <point x="109.048" y="720" type="line"/>
      <point x="619.048" y="720" type="line"/>
      <point x="606.534" y="641" type="line"/>
      <point x="397.534" y="641" type="line"/>
      <point x="296" y="0" type="line"/>
      <point x="204" y="0" type="line"/>
      <point x="305.534" y="641" type="line"/>
      <point x="96.5344" y="641" type="line"/>
    </contour>
  </outline>
</glyph>
<glyph name="U" format="2">
  <advance width="600" height="975"/>
  <unicode hex="0055"/>
  <outline>
    <contour>
      <point x="261.088" y="70" type="curve" smooth="yes"/>
      <point x="183.088" y="70"/>
      <point x="143.85" y="119"/>
      <point x="156.68" y="200" type="curve" smooth="yes"/>
      <point x="239.048" y="720" type="line"/>
      <point x="149.048" y="720" type="line"/>
      <point x="66.68" y="200" type="line" smooth="yes"/>
      <point x="46.088" y="70"/>
      <point x="115.416" y="-10"/>
      <point x="248.416" y="-10" type="curve" smooth="yes"/>
      <point x="386.416" y="-10"/>
      <point x="475.454" y="66"/>
      <point x="496.68" y="200" type="curve" smooth="yes"/>
      <point x="579.048" y="720" type="line"/>
      <point x="489.048" y="720" type="line"/>
      <point x="406.68" y="200" type="line" smooth="yes"/>
      <point x="393.533" y="117"/>
      <point x="341.088" y="70"/>
    </contour>
  </outline>
</glyph>
<glyph name="X" format="2">
  <advance width="600" height="975"/>
  <unicode hex="0058"/>
  <outline>
    <contour>
      <point x="-10" y="0" type="line"/>
      <point x="258.133" y="367" type="line"/>
      <point x="115.048" y="720" type="line"/>
      <point x="219.048" y="720" type="line"/>
      <point x="298.942" y="511" type="line" smooth="yes"/>
      <point x="311.032" y="480"/>
      <point x="320.805" y="447"/>
      <point x="320.805" y="447" type="curve"/>
      <point x="323.805" y="447" type="line"/>
      <point x="323.805" y="447"/>
      <point x="343.874" y="479"/>
      <point x="365.942" y="511" type="curve" smooth="yes"/>
      <point x="514.048" y="720" type="line"/>
      <point x="613.048" y="720" type="line"/>
      <point x="359.083" y="373" type="line"/>
      <point x="510" y="0" type="line"/>
      <point x="407" y="0" type="line"/>
      <point x="318.274" y="229" type="line" smooth="yes"/>
      <point x="306.184" y="260"/>
      <point x="296.57" y="294"/>
      <point x="296.57" y="294" type="curve"/>
      <point x="293.57" y="294" type="line"/>
      <point x="293.57" y="294"/>
      <point x="273.184" y="260"/>
      <point x="252.432" y="230" type="curve" smooth="yes"/>
      <point x="90" y="0" type="line"/>
    </contour>
  </outline>
</glyph>
<glyph name="Y" format="2">
  <advance width="600" height="975"/>
  <unicode hex="0059"/>
  <outline>
    <contour>
      <point x="534.048" y="720" type="line"/>
      <point x="634.048" y="720" type="line"/>
      <point x="334.6" y="250" type="line"/>
      <point x="295" y="0" type="line"/>
      <point x="205" y="0" type="line"/>
      <point x="244.6" y="250" type="line"/>
      <point x="94.048" y="720" type="line"/>
      <point x="185.048" y="720" type="line"/>
      <point x="282.835" y="403" type="line" smooth="yes"/>
      <point x="295.341" y="362"/>
      <point x="297.322" y="324"/>
      <point x="297.322" y="324" type="curve"/>
      <point x="301.322" y="324" type="line"/>
      <point x="301.322" y="324"/>
      <point x="315.341" y="362"/>
      <point x="339.835" y="403" type="curve" smooth="yes"/>
    </contour>
  </outline>
</glyph>
<glyph name="bracketleft" format="2">
  <advance width="600" height="975"/>
  <unicode hex="005B"/>
  <outline>
    <contour>
      <point x="289.888" y="830" type="line"/>
      <point x="534.888" y="830" type="line"/>
      <point x="522.216" y="750" type="line"/>
      <point x="367.216" y="750" type="line"/>
      <point x="243.664" y="-30" type="line"/>
      <point x="398.664" y="-30" type="line"/>
      <point x="385.992" y="-110" type="line"/>
      <point x="140.992" y="-110" type="line"/>
    </contour>
  </outline>
</glyph>
<glyph name="bracketright" format="2">
  <advance width="600" height="975"/>
  <unicode hex="005D"/>
  <outline>
    <contour>
      <point x="468.888" y="830" type="line"/>
      <point x="223.888" y="830" type="line"/>
      <point x="211.216" y="750" type="line"/>
      <point x="366.216" y="750" type="line"/>
      <point x="242.664" y="-30" type="line"/>
      <point x="87.664" y="-30" type="line"/>
      <point x="74.992" y="-110" type="line"/>
      <point x="319.992" y="-110" type="line"/>
    </contour>
  </outline>
</glyph>
<glyph name="asciicircum" format="2">
  <advance width="600" height="975"/>
  <unicode hex="005E"/>
  <outline>
    <contour>
      <point x="359.544" y="660" type="curve"/>
      <point x="353.544" y="660" type="line"/>
      <point x="353.544" y="660"/>
      <point x="348" y="625"/>
      <point x="326.456" y="590" type="curve" smooth="yes"/>
      <point x="170.272" y="330" type="line"/>
      <point x="82.272" y="330" type="line"/>
      <point x="323.048" y="720" type="line"/>
      <point x="407.048" y="720" type="line"/>
      <point x="522.272" y="330" type="line"/>
      <point x="445.272" y="330" type="line"/>
      <point x="374.456" y="590" type="line" smooth="yes"/>
      <point x="365" y="625"/>
      <point x="359.544" y="660"/>
    </contour>
  </outline>
</glyph>
<glyph name="grave" format="2">
  <advance width="600" height="975"/>
  <unicode hex="0060"/>
  <outline>
    <contour>
      <point x="249.344" y="785" type="line"/>
      <point x="354.344" y="785" type="line"/>
      <point x="442.168" y="645" type="line"/>
      <point x="357.168" y="645" type="line"/>
    </contour>
  </outline>
</glyph>
<glyph name="a" format="2">
  <advance width="600" height="975"/>
  <unicode hex="0061"/>
  <outline>
    <contour>
      <point x="58.472" y="205" type="curve" smooth="yes"/>
      <point x="80.648" y="345" type="line" smooth="yes"/>
      <point x="101.24" y="475"/>
      <point x="185.704" y="560"/>
      <point x="295.704" y="560" type="curve" smooth="yes"/>
      <point x="374.704" y="560"/>
      <point x="418.368" y="520"/>
      <point x="425.072" y="455" type="curve"/>
      <point x="453.072" y="455" type="line"/>
      <point x="435.648" y="345" type="line"/>
      <point x="410.648" y="345" type="line"/>
      <point x="424.112" y="430"/>
      <point x="387.349" y="482"/>
      <point x="315.349" y="482" type="curve" smooth="yes"/>
      <point x="237.349" y="482"/>
      <point x="182.112" y="430"/>
      <point x="168.648" y="345" type="curve" smooth="yes"/>
      <point x="146.472" y="205" type="line" smooth="yes"/>
      <point x="133.008" y="120"/>
      <point x="171.771" y="68"/>
      <point x="249.771" y="68" type="curve" smooth="yes"/>
      <point x="321.771" y="68"/>
      <point x="375.008" y="120"/>
      <point x="388.472" y="205" type="curve"/>
      <point x="413.472" y="205" type="line"/>
      <point x="396.048" y="95" type="line"/>
      <point x="368.048" y="95" type="line"/>
      <point x="340.752" y="30"/>
      <point x="284.416" y="-10"/>
      <point x="205.416" y="-10" type="curve" smooth="yes"/>
      <point x="95.416" y="-10"/>
      <point x="37.88" y="75"/>
    </contour>
    <contour>
      <point x="448.12" y="550" type="line"/>
      <point x="531.12" y="550" type="line"/>
      <point x="462.533" y="117" type="line" smooth="yes"/>
      <point x="458.414" y="91"/>
      <point x="471.88" y="75"/>
      <point x="495.88" y="75" type="curve" smooth="yes"/>
      <point x="538.88" y="75" type="line"/>
      <point x="526.525" y="-3" type="line"/>
      <point x="462.525" y="-3" type="line" smooth="yes"/>
      <point x="403.525" y="-3"/>
      <point x="367.336" y="40"/>
      <point x="376.84" y="100" type="curve"/>
      <point x="371.84" y="100" type="line"/>
      <point x="425.854" y="441" type="line"/>
      <point x="430.854" y="441" type="line"/>
    </contour>
  </outline>
</glyph>
<glyph name="b" format="2">
  <advance width="600" height="975"/>
  <unicode hex="0062"/>
  <outline>
    <contour>
      <point x="38" y="0" type="line" name="dh01"/>
      <point x="123" y="0" type="line"/>
      <point x="138.048" y="95" type="line" name="sh01"/>
      <point x="146.048" y="95" type="line"/>
      <point x="152.594" y="29"/>
      <point x="202.416" y="-10"/>
      <point x="283.416" y="-10" type="curve" smooth="yes" name="ab01"/>
      <point x="396.416" y="-10"/>
      <point x="480.771" y="68"/>
      <point x="502.472" y="205" type="curve" smooth="yes"/>
      <point x="524.648" y="345" type="line" smooth="yes" name="dh04"/>
      <point x="544.765" y="472"/>
      <point x="484.704" y="560"/>
      <point x="373.704" y="560" type="curve" smooth="yes" name="at02"/>
      <point x="292.704" y="560"/>
      <point x="230.526" y="521"/>
      <point x="203.072" y="455" type="curve"/>
      <point x="195.072" y="455" type="line"/>
      <point x="195.072" y="455"/>
      <point x="210.526" y="521"/>
      <point x="216.704" y="560" type="curve" smooth="yes" name="at03"/>
      <point x="242.048" y="720" type="line" name="at01"/>
      <point x="152.048" y="720" type="line"/>
    </contour>
    <contour>
      <point x="160.472" y="205" type="curve" smooth="yes" name="dh02"/>
      <point x="182.648" y="345" type="line" smooth="yes"/>
      <point x="195.795" y="428"/>
      <point x="253.349" y="482"/>
      <point x="327.349" y="482" type="curve" smooth="yes" name="sv01"/>
      <point x="406.349" y="482"/>
      <point x="448.112" y="430"/>
      <point x="434.648" y="345" type="curve" smooth="yes" name="dh03"/>
      <point x="412.472" y="205" type="line" smooth="yes"/>
      <point x="399.008" y="120"/>
      <point x="342.771" y="68"/>
      <point x="261.771" y="68" type="curve" smooth="yes" name="sv02"/>
      <point x="187.771" y="68"/>
      <point x="147.325" y="122"/>
    </contour>
  </outline>
</glyph>
<glyph name="c" format="2">
  <advance width="600" height="975"/>
  <unicode hex="0063"/>
  <outline>
    <contour>
      <point x="335.032" y="480" type="curve" smooth="yes"/>
      <point x="403.032" y="480"/>
      <point x="450.221" y="437"/>
      <point x="448.4" y="375" type="curve"/>
      <point x="538.4" y="375" type="line"/>
      <point x="540.507" y="483"/>
      <point x="461.704" y="560"/>
      <point x="347.704" y="560" type="curve" smooth="yes"/>
      <point x="211.704" y="560"/>
      <point x="116.874" y="479"/>
      <point x="95.648" y="345" type="curve" smooth="yes"/>
      <point x="73.472" y="205" type="line" smooth="yes"/>
      <point x="52.88" y="75"/>
      <point x="126.416" y="-10"/>
      <point x="257.416" y="-10" type="curve" smooth="yes"/>
      <point x="382.416" y="-10"/>
      <point x="473.187" y="58"/>
      <point x="506.72" y="175" type="curve"/>
      <point x="416.72" y="175" type="line"/>
      <point x="398.424" y="110"/>
      <point x="343.088" y="70"/>
      <point x="270.088" y="70" type="curve" smooth="yes"/>
      <point x="189.088" y="70"/>
      <point x="148.166" y="121"/>
      <point x="161.472" y="205" type="curve" smooth="yes"/>
      <point x="183.648" y="345" type="line" smooth="yes"/>
      <point x="196.954" y="429"/>
      <point x="255.032" y="480"/>
    </contour>
  </outline>
</glyph>
<glyph name="e" format="2">
  <advance width="600" height="975"/>
  <unicode hex="0065"/>
  <outline>
    <contour>
      <point x="338.704" y="560" type="curve" smooth="yes"/>
      <point x="203.704" y="560"/>
      <point x="108.19" y="481"/>
      <point x="87.44" y="350" type="curve" smooth="yes"/>
      <point x="63.68" y="200" type="line" smooth="yes"/>
      <point x="43.2464" y="71"/>
      <point x="115.416" y="-10"/>
      <point x="248.416" y="-10" type="curve" smooth="yes"/>
      <point x="358.416" y="-10"/>
      <point x="448.653" y="42"/>
      <point x="484.8" y="125" type="curve"/>
      <point x="396.8" y="125" type="line"/>
      <point x="370.098" y="89"/>
      <point x="320.771" y="68"/>
      <point x="260.771" y="68" type="curve" smooth="yes"/>
      <point x="180.771" y="68"/>
      <point x="139.008" y="120"/>
      <point x="152.472" y="205" type="curve" smooth="yes"/>
      <point x="175.44" y="350" type="line" smooth="yes"/>
      <point x="188.587" y="433"/>
      <point x="245.349" y="482"/>
      <point x="326.349" y="482" type="curve" smooth="yes"/>
      <point x="407.349" y="482"/>
      <point x="448.587" y="433"/>
      <point x="435.44" y="350" type="curve" smooth="yes"/>
      <point x="429.738" y="314" type="line"/>
      <point x="438.005" y="322" type="line"/>
      <point x="141.005" y="322" type="line"/>
      <point x="129.442" y="249" type="line"/>
      <point x="507.442" y="249" type="line"/>
      <point x="523.44" y="350" type="line" smooth="yes"/>
      <point x="543.874" y="479"/>
      <point x="471.704" y="560"/>
    </contour>
  </outline>
</glyph>
<glyph name="g" format="2">
  <advance width="600" height="975"/>
  <unicode hex="0067"/>
  <outline>
    <contour>
      <point x="464.12" y="550" type="line" name="sh01"/>
      <point x="448.28" y="450" type="line"/>
      <point x="441.28" y="450" type="line" name="sh02"/>
      <point x="432.368" y="520"/>
      <point x="379.704" y="560"/>
      <point x="299.704" y="560" type="curve" smooth="yes" name="at01"/>
      <point x="184.704" y="560"/>
      <point x="98.7152" y="478"/>
      <point x="78.44" y="350" type="curve" smooth="yes" name="sh03"/>
      <point x="63.392" y="255" type="line" smooth="yes"/>
      <point x="43.1168" y="127"/>
      <point x="104.128" y="45"/>
      <point x="218.128" y="45" type="curve" smooth="yes" name="dv01"/>
      <point x="298.128" y="45"/>
      <point x="363.464" y="85"/>
      <point x="394.552" y="155" type="curve" name="sh04"/>
      <point x="400.552" y="155" type="line" name="iv01"/>
      <point x="381.504" y="60" type="line"/>
      <point x="377.544" y="35" type="line" smooth="yes" name="ah01"/>
      <point x="365.189" y="-43"/>
      <point x="311.061" y="-88"/>
      <point x="231.061" y="-88" type="curve" smooth="yes" name="sv01"/>
      <point x="96.0608" y="-88" type="line" name="sh07"/>
      <point x="83.072" y="-170" type="line" name="ab01"/>
      <point x="218.072" y="-170" type="line" smooth="yes"/>
      <point x="354.072" y="-170"/>
      <point x="447.269" y="-93"/>
      <point x="467.544" y="35" type="curve" smooth="yes" name="sh05"/>
      <point x="549.12" y="550" type="line"/>
    </contour>
    <contour>
      <point x="155.392" y="255" type="curve" smooth="yes"/>
      <point x="170.44" y="350" type="line" smooth="yes" name="sh06"/>
      <point x="183.429" y="432"/>
      <point x="240.349" y="482"/>
      <point x="320.349" y="482" type="curve" smooth="yes" name="sv02"/>
      <point x="400.349" y="482"/>
      <point x="440.429" y="432"/>
      <point x="427.44" y="350" type="curve" smooth="yes" name="sh08"/>
      <point x="412.392" y="255" type="line" smooth="yes"/>
      <point x="399.403" y="173"/>
      <point x="343.483" y="123"/>
      <point x="263.483" y="123" type="curve" smooth="yes" name="dv02"/>
      <point x="183.483" y="123"/>
      <point x="142.403" y="173"/>
    </contour>
  </outline>
</glyph>
<glyph name="l" format="2">
  <advance width="600" height="750"/>
  <unicode hex="006C"/>
  <outline>
    <contour>
      <point x="104.048" y="720" type="line" name="at01"/>
      <point x="91.0592" y="638" type="line" name="sv01"/>
      <point x="273.059" y="638" type="line" name="dh01"/>
      <point x="198.136" y="165" type="line" smooth="yes"/>
      <point x="182.454" y="66"/>
      <point x="240" y="0"/>
      <point x="342" y="0" type="curve" smooth="yes" name="ab01"/>
      <point x="500" y="0" type="line"/>
      <point x="512.989" y="82" type="line" name="sv02"/>
      <point x="354.989" y="82" type="line" smooth="yes"/>
      <point x="306.989" y="82"/>
      <point x="280.216" y="115"/>
      <point x="288.136" y="165" type="curve" smooth="yes"/>
      <point x="376.048" y="720" type="line" name="dh02"/>
    </contour>
  </outline>
</glyph>
<glyph name="m" format="2">
  <advance width="600" height="975"/>
  <unicode hex="006D"/>
  <outline>
    <contour>
      <point x="99.12" y="550" type="line" name="fh01"/>
      <point x="176.12" y="550" type="line" name="sh02"/>
      <point x="163.29" y="469" type="line"/>
      <point x="170.29" y="469" type="line" name="sh03"/>
      <point x="184.477" y="527"/>
      <point x="220.704" y="560"/>
      <point x="273.704" y="560" type="curve" smooth="yes" name="at01"/>
      <point x="323.704" y="560"/>
      <point x="350.952" y="530"/>
      <point x="355.29" y="469" type="curve" name="sh05"/>
      <point x="361.29" y="469" type="line" name="iv01"/>
      <point x="375.477" y="527"/>
      <point x="413.704" y="560"/>
      <point x="466.704" y="560" type="curve" smooth="yes" name="at02"/>
      <point x="533.704" y="560"/>
      <point x="568.309" y="507"/>
      <point x="554.37" y="419" type="curve" smooth="yes"/>
      <point x="488" y="0" type="line" name="ab02"/>
      <point x="404" y="0" type="line" name="sh06"/>
      <point x="470.37" y="419" type="line" smooth="yes"/>
      <point x="477.656" y="465"/>
      <point x="460.774" y="491"/>
      <point x="424.46" y="491" type="curve" smooth="yes" name="sv01"/>
      <point x="386.774" y="491"/>
      <point x="359.339" y="463"/>
      <point x="351.578" y="414" type="curve" smooth="yes"/>
      <point x="286" y="0" type="line" name="ab03"/>
      <point x="214" y="0" type="line" name="sh04"/>
      <point x="280.37" y="419" type="line" smooth="yes"/>
      <point x="287.656" y="465"/>
      <point x="269.774" y="491"/>
      <point x="232.969" y="491" type="curve" smooth="yes" name="sv02"/>
      <point x="194.774" y="491"/>
      <point x="169.339" y="463"/>
      <point x="161.578" y="414" type="curve" smooth="yes" name="fh02"/>
      <point x="96" y="0" type="line" name="sh01"/>
      <point x="12" y="0" type="line" name="ab01"/>
    </contour>
  </outline>
</glyph>
<glyph name="n" format="2">
  <advance width="600" height="750"/>
  <unicode hex="006E"/>
  <outline>
    <contour>
      <point x="125.12" y="550" type="line"/>
      <point x="210.12" y="550" type="line"/>
      <point x="193.488" y="445" type="line"/>
      <point x="198.488" y="445" type="line"/>
      <point x="128" y="0" type="line"/>
      <point x="38" y="0" type="line"/>
    </contour>
    <contour>
      <point x="328.666" y="484" type="curve" smooth="yes"/>
      <point x="252.666" y="484"/>
      <point x="196.112" y="430"/>
      <point x="182.648" y="345" type="curve"/>
      <point x="157.648" y="345" type="line"/>
      <point x="175.072" y="455" type="line"/>
      <point x="203.072" y="455" type="line"/>
      <point x="230.526" y="521"/>
      <point x="292.704" y="560"/>
      <point x="370.704" y="560" type="curve" smooth="yes"/>
      <point x="477.704" y="560"/>
      <point x="539.032" y="480"/>
      <point x="520.182" y="361" type="curve" smooth="yes"/>
      <point x="463" y="0" type="line"/>
      <point x="373" y="0" type="line"/>
      <point x="428.598" y="351" type="line" smooth="yes"/>
      <point x="442.062" y="436"/>
      <point x="405.666" y="484"/>
    </contour>
  </outline>
</glyph>
<glyph name="q" format="2">
  <advance width="600" height="975"/>
  <unicode hex="0071"/>
  <outline>
    <contour>
      <point x="213.416" y="-10" type="curve" smooth="yes" name="ab02"/>
      <point x="294.416" y="-10"/>
      <point x="356.594" y="29"/>
      <point x="384.048" y="95" type="curve"/>
      <point x="392.048" y="95" type="line"/>
      <point x="392.048" y="95"/>
      <point x="377.544" y="35"/>
      <point x="372" y="0" type="curve" smooth="yes"/>
      <point x="345.072" y="-170" type="line" name="ab01"/>
      <point x="435.072" y="-170" type="line" name="dh03"/>
      <point x="549.12" y="550" type="line"/>
      <point x="464.12" y="550" type="line" name="sh01"/>
      <point x="449.072" y="455" type="line"/>
      <point x="441.072" y="455" type="line"/>
      <point x="434.526" y="521"/>
      <point x="384.704" y="560"/>
      <point x="303.704" y="560" type="curve" smooth="yes" name="at01"/>
      <point x="192.704" y="560"/>
      <point x="105.715" y="478"/>
      <point x="86.232" y="355" type="curve" smooth="yes" name="dh01"/>
      <point x="60.888" y="195" type="line" smooth="yes"/>
      <point x="41.4048" y="72"/>
      <point x="102.416" y="-10"/>
    </contour>
    <contour>
      <point x="325.349" y="482" type="curve" smooth="yes" name="sv01"/>
      <point x="399.349" y="482"/>
      <point x="439.795" y="428"/>
      <point x="426.648" y="345" type="curve" smooth="yes" name="sh02"/>
      <point x="404.472" y="205" type="line" smooth="yes"/>
      <point x="391.325" y="122"/>
      <point x="333.771" y="68"/>
      <point x="259.771" y="68" type="curve" smooth="yes" name="sv02"/>
      <point x="179.771" y="68"/>
      <point x="139.166" y="121"/>
      <point x="152.472" y="205" type="curve" smooth="yes"/>
      <point x="174.648" y="345" type="line" smooth="yes" name="dh02"/>
      <point x="188.27" y="431"/>
      <point x="244.349" y="482"/>
    </contour>
  </outline>
</glyph>
<glyph name="r" format="2">
  <advance width="600" height="975"/>
  <unicode hex="0072"/>
  <outline>
    <contour>
      <point x="149.12" y="550" type="line"/>
      <point x="62" y="0" type="line"/>
      <point x="150" y="0" type="line"/>
      <point x="219.696" y="440" type="line"/>
      <point x="214.696" y="440" type="line"/>
      <point x="232.12" y="550" type="line"/>
    </contour>
    <contour>
      <point x="396.704" y="560" type="curve" smooth="yes"/>
      <point x="317.704" y="560"/>
      <point x="252.368" y="520"/>
      <point x="225.072" y="455" type="curve"/>
      <point x="197.072" y="455" type="line"/>
      <point x="179.648" y="345" type="line"/>
      <point x="204.648" y="345" type="line"/>
      <point x="217.954" y="429"/>
      <point x="276.507" y="483"/>
      <point x="355.507" y="483" type="curve" smooth="yes"/>
      <point x="433.507" y="483"/>
      <point x="472.27" y="431"/>
      <point x="458.648" y="345" type="curve" smooth="yes"/>
      <point x="454.688" y="320" type="line"/>
      <point x="542.688" y="320" type="line"/>
      <point x="548.39" y="356" type="line" smooth="yes"/>
      <point x="567.874" y="479"/>
      <point x="509.704" y="560"/>
    </contour>
  </outline>
</glyph>
<glyph name="u" format="2">
  <advance width="600" height="975"/>
  <unicode hex="0075"/>
  <outline>
    <contour>
      <point x="259.93" y="69" type="curve" smooth="yes"/>
      <point x="340.93" y="69"/>
      <point x="387.582" y="111"/>
      <point x="400.73" y="194" type="curve" smooth="yes"/>
      <point x="457.12" y="550" type="line"/>
      <point x="545.12" y="550" type="line"/>
      <point x="488.73" y="194" type="line" smooth="yes"/>
      <point x="468.138" y="64"/>
      <point x="382.416" y="-10"/>
      <point x="247.416" y="-10" type="curve" smooth="yes"/>
      <point x="117.416" y="-10"/>
      <point x="52.6128" y="67"/>
      <point x="72.7296" y="194" type="curve" smooth="yes"/>
      <point x="129.12" y="550" type="line"/>
      <point x="219.12" y="550" type="line"/>
      <point x="160.73" y="194" type="line" smooth="yes"/>
      <point x="147.424" y="110"/>
      <point x="179.93" y="69"/>
    </contour>
  </outline>
</glyph>
<glyph name="v" format="2">
  <advance width="600" height="975"/>
  <unicode hex="0076"/>
  <outline>
    <contour>
      <point x="257.138" y="64" type="curve"/>
      <point x="266.138" y="64" type="line"/>
      <point x="266.138" y="64"/>
      <point x="268.84" y="100"/>
      <point x="298.344" y="160" type="curve" smooth="yes"/>
      <point x="491.12" y="550" type="line" name="at01"/>
      <point x="591.12" y="550" type="line"/>
      <point x="303" y="0" type="line" name="ab01"/>
      <point x="201" y="0" type="line"/>
      <point x="83.12" y="550" type="line" name="at02"/>
      <point x="176.12" y="550" type="line"/>
      <point x="252.344" y="160" type="line" smooth="yes"/>
      <point x="263.84" y="100"/>
      <point x="257.138" y="64"/>
    </contour>
  </outline>
</glyph>
<glyph name="x" format="2">
  <advance width="600" height="975"/>
  <unicode hex="0078"/>
  <outline>
    <contour>
      <point x="0" y="0" type="line"/>
      <point x="241.986" y="284" type="line"/>
      <point x="97.12" y="550" type="line"/>
      <point x="195.12" y="550" type="line"/>
      <point x="284.4" y="375" type="line" smooth="yes"/>
      <point x="294.39" y="356"/>
      <point x="298.856" y="340"/>
      <point x="298.856" y="340" type="curve"/>
      <point x="302.856" y="340" type="line"/>
      <point x="302.856" y="340"/>
      <point x="313.39" y="356"/>
      <point x="329.4" y="375" type="curve" smooth="yes"/>
      <point x="471.12" y="550" type="line"/>
      <point x="578.12" y="550" type="line"/>
      <point x="347.51" y="281" type="line"/>
      <point x="502" y="0" type="line"/>
      <point x="403" y="0" type="line"/>
      <point x="307.462" y="186" type="line" smooth="yes"/>
      <point x="299.155" y="203"/>
      <point x="289.64" y="225"/>
      <point x="289.64" y="225" type="curve"/>
      <point x="285.64" y="225" type="line"/>
      <point x="285.64" y="225"/>
      <point x="272.997" y="202"/>
      <point x="259.462" y="186" type="curve" smooth="yes"/>
      <point x="104" y="0" type="line"/>
    </contour>
  </outline>
</glyph>
<glyph name="y" format="2">
  <advance width="600" height="975"/>
  <unicode hex="0079"/>
  <outline>
    <contour>
      <point x="126.12" y="550" type="line"/>
      <point x="214.12" y="550" type="line"/>
      <point x="168.026" y="259" type="line" smooth="yes"/>
      <point x="154.878" y="176"/>
      <point x="192.642" y="124"/>
      <point x="267.642" y="124" type="curve" smooth="yes"/>
      <point x="343.642" y="124"/>
      <point x="399.72" y="175"/>
      <point x="412.392" y="255" type="curve" smooth="yes"/>
      <point x="459.12" y="550" type="line"/>
      <point x="547.12" y="550" type="line"/>
      <point x="459.267" y="8" type="line"/>
      <point x="441.368" y="-105"/>
      <point x="363.072" y="-170"/>
      <point x="243.072" y="-170" type="curve" smooth="yes"/>
      <point x="97.072" y="-170" type="line"/>
      <point x="109.427" y="-92" type="line"/>
      <point x="255.427" y="-92" type="line" smooth="yes"/>
      <point x="319.427" y="-92"/>
      <point x="361.13" y="-56"/>
      <point x="371.267" y="8" type="curve" smooth="yes"/>
      <point x="379.504" y="60" type="line"/>
      <point x="399.552" y="155" type="line"/>
      <point x="393.552" y="155" type="line"/>
      <point x="366.098" y="89"/>
      <point x="303.92" y="50"/>
      <point x="225.92" y="50" type="curve" smooth="yes"/>
      <point x="117.92" y="50"/>
      <point x="58.6416" y="124"/>
      <point x="76.8576" y="239" type="curve" smooth="yes"/>
    </contour>
  </outline>
</glyph>
<glyph name="braceleft" format="2">
  <advance width="600" height="975"/>
  <unicode hex="007B"/>
  <outline>
    <contour>
      <point x="449" y="-110" type="line"/>
      <point x="404" y="-110" type="line" smooth="yes"/>
      <point x="286" y="-110"/>
      <point x="223" y="-49"/>
      <point x="245" y="56" type="curve" smooth="yes"/>
      <point x="281" y="220" type="line" smooth="yes"/>
      <point x="297" y="291"/>
      <point x="284" y="320"/>
      <point x="197" y="320" type="curve" smooth="yes"/>
      <point x="87" y="320" type="line"/>
      <point x="100" y="400" type="line"/>
      <point x="210" y="400" type="line" smooth="yes"/>
      <point x="296" y="400"/>
      <point x="319" y="429"/>
      <point x="326" y="500" type="curve" smooth="yes"/>
      <point x="342" y="664" type="line" smooth="yes"/>
      <point x="352" y="769"/>
      <point x="435" y="830"/>
      <point x="553" y="830" type="curve" smooth="yes"/>
      <point x="598" y="830" type="line"/>
      <point x="585" y="750" type="line"/>
      <point x="540" y="750" type="line" smooth="yes"/>
      <point x="477" y="750"/>
      <point x="438" y="721"/>
      <point x="432" y="664" type="curve" smooth="yes"/>
      <point x="416" y="500" type="line" smooth="yes"/>
      <point x="409" y="427"/>
      <point x="359" y="367"/>
      <point x="279" y="364" type="curve"/>
      <point x="278" y="359" type="line"/>
      <point x="358" y="356"/>
      <point x="387" y="293"/>
      <point x="371" y="220" type="curve" smooth="yes"/>
      <point x="335" y="56" type="line" smooth="yes"/>
      <point x="323" y="-1"/>
      <point x="354" y="-30"/>
      <point x="417" y="-30" type="curve" smooth="yes"/>
      <point x="462" y="-30" type="line"/>
    </contour>
  </outline>
</glyph>
<glyph name="braceright" format="2">
  <advance width="600" height="975"/>
  <unicode hex="007D"/>
  <outline>
    <contour>
      <point x="159" y="840" type="line"/>
      <point x="204" y="840" type="line" smooth="yes"/>
      <point x="322" y="840"/>
      <point x="386" y="779"/>
      <point x="363" y="674" type="curve" smooth="yes"/>
      <point x="327" y="510" type="line" smooth="yes"/>
      <point x="312" y="439"/>
      <point x="324" y="410"/>
      <point x="411" y="410" type="curve" smooth="yes"/>
      <point x="521" y="410" type="line"/>
      <point x="509" y="330" type="line"/>
      <point x="399" y="330" type="line" smooth="yes"/>
      <point x="313" y="330"/>
      <point x="290" y="301"/>
      <point x="283" y="230" type="curve" smooth="yes"/>
      <point x="267" y="65" type="line" smooth="yes"/>
      <point x="256" y="-40"/>
      <point x="173" y="-101"/>
      <point x="55" y="-101" type="curve" smooth="yes"/>
      <point x="10" y="-101" type="line"/>
      <point x="23" y="-21" type="line"/>
      <point x="68" y="-21" type="line" smooth="yes"/>
      <point x="131" y="-21"/>
      <point x="171" y="8"/>
      <point x="177" y="65" type="curve" smooth="yes"/>
      <point x="193" y="230" type="line" smooth="yes"/>
      <point x="200" y="303"/>
      <point x="250" y="363"/>
      <point x="329" y="366" type="curve"/>
      <point x="330" y="371" type="line"/>
      <point x="251" y="374"/>
      <point x="222" y="437"/>
      <point x="237" y="510" type="curve" smooth="yes"/>
      <point x="273" y="674" type="line" smooth="yes"/>
      <point x="285" y="731"/>
      <point x="255" y="760"/>
      <point x="192" y="760" type="curve" smooth="yes"/>
      <point x="147" y="760" type="line"/>
    </contour>
  </outline>
</glyph>
<glyph name="exclamdown" format="2">
  <advance width="600" height="975"/>
  <unicode hex="00A1"/>
  <outline>
    <contour>
      <point x="304.072" y="-170" type="line"/>
      <point x="202.072" y="-170" type="line"/>
      <point x="227.416" y="-10" type="line"/>
      <point x="304.064" y="335" type="line"/>
      <point x="362.064" y="335" type="line"/>
      <point x="329.416" y="-10" type="line"/>
    </contour>
    <contour>
      <point x="359.904" y="435" type="curve" smooth="yes"/>
      <point x="339.904" y="435" type="line" smooth="yes"/>
      <point x="300.904" y="435"/>
      <point x="278.864" y="460"/>
      <point x="284.566" y="496" type="curve" smooth="yes"/>
      <point x="290.269" y="532"/>
      <point x="319.912" y="555"/>
      <point x="358.912" y="555" type="curve" smooth="yes"/>
      <point x="378.912" y="555" type="line" smooth="yes"/>
      <point x="417.912" y="555"/>
      <point x="440.427" y="533"/>
      <point x="434.646" y="496.5" type="curve" smooth="yes"/>
      <point x="428.864" y="460"/>
      <point x="398.904" y="435"/>
    </contour>
  </outline>
</glyph>
<glyph name="cent" format="2">
  <advance width="600" height="985"/>
  <unicode hex="00A2"/>
  <outline>
    <contour>
      <point x="334.296" y="690" type="line"/>
      <point x="399.296" y="690" type="line"/>
      <point x="267.824" y="-140" type="line"/>
      <point x="202.824" y="-140" type="line"/>
    </contour>
    <contour>
      <point x="334.032" y="480" type="curve" smooth="yes" name="sv01"/>
      <point x="252.032" y="480"/>
      <point x="196.27" y="431"/>
      <point x="182.648" y="345" type="curve" smooth="yes" name="dh02"/>
      <point x="160.472" y="205" type="line" smooth="yes"/>
      <point x="147.325" y="122"/>
      <point x="189.088" y="70"/>
      <point x="269.088" y="70" type="curve" smooth="yes" name="sv02"/>
      <point x="340.088" y="70"/>
      <point x="396.424" y="110"/>
      <point x="415.72" y="175" type="curve"/>
      <point x="505.72" y="175" type="line"/>
      <point x="470.187" y="58"/>
      <point x="377.416" y="-10"/>
      <point x="256.416" y="-10" type="curve" smooth="yes" name="ab01"/>
      <point x="123.416" y="-10"/>
      <point x="50.3552" y="78"/>
      <point x="70.472" y="205" type="curve" smooth="yes"/>
      <point x="92.648" y="345" type="line" smooth="yes" name="dh01"/>
      <point x="114.032" y="480"/>
      <point x="207.704" y="560"/>
      <point x="346.704" y="560" type="curve" smooth="yes" name="at01"/>
      <point x="462.704" y="560"/>
      <point x="538.824" y="485"/>
      <point x="537.4" y="375" type="curve"/>
      <point x="447.4" y="375" type="line"/>
      <point x="448.221" y="437"/>
      <point x="402.032" y="480"/>
    </contour>
  </outline>
</glyph>
<glyph name="currency" format="2">
  <advance width="600" height="985"/>
  <unicode hex="00A4"/>
  <outline>
    <contour>
      <point x="67.7536" y="554" type="line"/>
      <point x="140.733" y="617" type="line"/>
      <point x="214.794" y="529" type="line"/>
      <point x="247.645" y="547"/>
      <point x="286.229" y="557"/>
      <point x="325.229" y="557" type="curve" smooth="yes"/>
      <point x="366.229" y="557"/>
      <point x="402.486" y="546"/>
      <point x="430.318" y="526" type="curve"/>
      <point x="528.782" y="611" type="line"/>
      <point x="581.803" y="548" type="line"/>
      <point x="483.339" y="463" type="line"/>
      <point x="496.429" y="432"/>
      <point x="501.568" y="395"/>
      <point x="495.232" y="355" type="curve" smooth="yes"/>
      <point x="488.738" y="314"/>
      <point x="471.718" y="276"/>
      <point x="446.808" y="245" type="curve"/>
      <point x="520.027" y="158" type="line"/>
      <point x="447.048" y="95" type="line"/>
      <point x="373.829" y="182" type="line"/>
      <point x="339.978" y="164"/>
      <point x="301.235" y="153"/>
      <point x="261.235" y="153" type="curve" smooth="yes"/>
      <point x="221.235" y="153"/>
      <point x="185.819" y="163"/>
      <point x="158.829" y="182" type="curve"/>
      <point x="58.048" y="95" type="line"/>
      <point x="5.0272" y="158" type="line"/>
      <point x="104.65" y="244" type="line"/>
      <point x="88.56" y="275"/>
      <point x="83.5792" y="313"/>
      <point x="90.232" y="355" type="curve" smooth="yes"/>
      <point x="96.8848" y="397"/>
      <point x="115.062" y="436"/>
      <point x="140.131" y="468" type="curve"/>
    </contour>
    <contour>
      <point x="272.798" y="226" type="curve" smooth="yes"/>
      <point x="349.798" y="226"/>
      <point x="409.035" y="278"/>
      <point x="421.232" y="355" type="curve" smooth="yes"/>
      <point x="433.429" y="432"/>
      <point x="390.666" y="484"/>
      <point x="313.666" y="484" type="curve" smooth="yes"/>
      <point x="236.666" y="484"/>
      <point x="176.429" y="432"/>
      <point x="164.232" y="355" type="curve" smooth="yes"/>
      <point x="152.035" y="278"/>
      <point x="195.798" y="226"/>
    </contour>
  </outline>
</glyph>
<glyph name="brokenbar" format="2">
  <advance width="600" height="975"/>
  <unicode hex="00A6"/>
  <outline>
    <contour>
      <point x="336.472" y="830" type="line"/>
      <point x="426.472" y="830" type="line"/>
      <point x="366.28" y="450" type="line"/>
      <point x="276.28" y="450" type="line"/>
    </contour>
    <contour>
      <point x="247.768" y="270" type="line"/>
      <point x="337.768" y="270" type="line"/>
      <point x="277.576" y="-110" type="line"/>
      <point x="187.576" y="-110" type="line"/>
    </contour>
  </outline>
</glyph>
<glyph name="dieresis" format="2">
  <advance width="600" height="975"/>
  <unicode hex="00A8"/>
  <outline>
    <contour>
      <point x="201.672" y="705" type="curve" smooth="yes"/>
      <point x="207.374" y="741"/>
      <point x="235.176" y="765"/>
      <point x="271.176" y="765" type="curve" smooth="yes"/>
      <point x="307.176" y="765"/>
      <point x="327.374" y="741"/>
      <point x="321.672" y="705" type="curve" smooth="yes"/>
      <point x="315.97" y="669"/>
      <point x="288.168" y="645"/>
      <point x="252.168" y="645" type="curve" smooth="yes"/>
      <point x="216.168" y="645"/>
      <point x="195.97" y="669"/>
    </contour>
    <contour>
      <point x="401.672" y="705" type="curve" smooth="yes"/>
      <point x="407.374" y="741"/>
      <point x="435.176" y="765"/>
      <point x="471.176" y="765" type="curve" smooth="yes"/>
      <point x="507.176" y="765"/>
      <point x="527.374" y="741"/>
      <point x="521.672" y="705" type="curve" smooth="yes"/>
      <point x="515.97" y="669"/>
      <point x="488.168" y="645"/>
      <point x="452.168" y="645" type="curve" smooth="yes"/>
      <point x="416.168" y="645"/>
      <point x="395.97" y="669"/>
    </contour>
  </outline>
</glyph>
<glyph name="logicalnot" format="2">
  <advance width="600" height="985"/>
  <unicode hex="00AC"/>
  <outline>
    <contour>
      <point x="85.736" y="415" type="line"/>
      <point x="545.736" y="415" type="line"/>
      <point x="512.472" y="205" type="line"/>
      <point x="432.472" y="205" type="line"/>
      <point x="453.856" y="340" type="line"/>
      <point x="73.856" y="340" type="line"/>
    </contour>
  </outline>
</glyph>
<glyph name="uni00AD" format="2">
  <advance width="600"/>
  <unicode hex="00AD"/>
  <outline>
    <contour>
      <point x="138.608" y="370" type="line"/>
      <point x="458.608" y="370" type="line" name="dv02"/>
      <point x="445.936" y="290" type="line" name="dv01"/>
      <point x="125.936" y="290" type="line"/>
    </contour>
  </outline>
</glyph>
<glyph name="macron" format="2">
  <advance width="600" height="975"/>
  <unicode hex="00AF"/>
  <outline>
    <contour>
      <point x="238.008" y="745" type="line"/>
      <point x="498.008" y="745" type="line"/>
      <point x="486.128" y="670" type="line"/>
      <point x="226.128" y="670" type="line"/>
    </contour>
  </outline>
</glyph>
<glyph name="plusminus" format="2">
  <advance width="600" height="975"/>
  <unicode hex="00B1"/>
  <outline>
    <contour>
      <point x="55.936" y="290" type="line"/>
      <point x="68.608" y="370" type="line" name="sv02"/>
      <point x="259.608" y="370" type="line" name="sh01"/>
      <point x="290.496" y="565" type="line" name="mh01"/>
      <point x="378.496" y="565" type="line" name="av02"/>
      <point x="347.608" y="370" type="line"/>
      <point x="538.608" y="370" type="line" name="dv02"/>
      <point x="525.936" y="290" type="line" name="dv01"/>
      <point x="334.936" y="290" type="line"/>
      <point x="300.088" y="70" type="line" name="av01"/>
      <point x="486.088" y="70" type="line" name="dv04"/>
      <point x="475" y="0" type="line" name="dv03"/>
      <point x="15" y="0" type="line" name="ab01"/>
      <point x="26.088" y="70" type="line"/>
      <point x="212.088" y="70" type="line" name="dh01"/>
      <point x="246.936" y="290" type="line" name="sv01"/>
    </contour>
  </outline>
</glyph>
<glyph name="twosuperior" format="2">
  <advance width="600" height="985"/>
  <unicode hex="00B2"/>
  <outline>
    <contour>
      <point x="451.307" y="658" type="curve" smooth="yes"/>
      <point x="444.813" y="617"/>
      <point x="411.685" y="572"/>
      <point x="350.774" y="541" type="curve" smooth="yes"/>
      <point x="248.696" y="490" type="line"/>
      <point x="247.27" y="481" type="line"/>
      <point x="247.27" y="481"/>
      <point x="280.696" y="490"/>
      <point x="320.696" y="490" type="curve" smooth="yes"/>
      <point x="429.696" y="490" type="line"/>
      <point x="421.776" y="440" type="line"/>
      <point x="166.776" y="440" type="line"/>
      <point x="178.072" y="505" type="line"/>
      <point x="308.16" y="575" type="line" smooth="yes"/>
      <point x="359.595" y="603"/>
      <point x="386.397" y="627"/>
      <point x="390.99" y="656" type="curve" smooth="yes"/>
      <point x="397.168" y="695"/>
      <point x="375.128" y="720"/>
      <point x="336.128" y="720" type="curve" smooth="yes"/>
      <point x="297.128" y="720"/>
      <point x="267.168" y="695"/>
      <point x="260.99" y="656" type="curve"/>
      <point x="200.99" y="656" type="line"/>
      <point x="214.92" y="725"/>
      <point x="272.048" y="770"/>
      <point x="344.048" y="770" type="curve" smooth="yes"/>
      <point x="419.048" y="770"/>
      <point x="461.92" y="725"/>
    </contour>
  </outline>
</glyph>
<glyph name="uni00B5" format="2">
  <advance width="600" height="975"/>
  <unicode hex="00B5"/>
  <outline>
    <contour>
      <point x="13.864" y="-165" type="line"/>
      <point x="102.864" y="-165" type="line"/>
      <point x="115.941" y="-13" type="line" smooth="yes"/>
      <point x="118.851" y="18"/>
      <point x="113.613" y="67"/>
      <point x="111.613" y="67" type="curve"/>
      <point x="115.613" y="67" type="line"/>
      <point x="115.613" y="67"/>
      <point x="127.416" y="-10"/>
      <point x="257.416" y="-10" type="curve" smooth="yes"/>
      <point x="386.416" y="-10"/>
      <point x="470.138" y="64"/>
      <point x="490.73" y="194" type="curve" smooth="yes"/>
      <point x="547.12" y="550" type="line"/>
      <point x="457.12" y="550" type="line"/>
      <point x="400.73" y="194" type="line" smooth="yes"/>
      <point x="387.424" y="110"/>
      <point x="341.93" y="69"/>
      <point x="259.93" y="69" type="curve" smooth="yes"/>
      <point x="176.93" y="69"/>
      <point x="148.058" y="114"/>
      <point x="160.73" y="194" type="curve" smooth="yes"/>
      <point x="217.12" y="550" type="line"/>
      <point x="127.12" y="550" type="line"/>
    </contour>
  </outline>
</glyph>
<glyph name="cedilla" format="2">
  <advance width="600" height="975"/>
  <unicode hex="00B8"/>
  <outline>
    <contour>
      <point x="258.118" y="26" type="line"/>
      <point x="315.118" y="26" type="line"/>
      <point x="284.456" y="-35" type="line"/>
      <point x="284.456" y="-35"/>
      <point x="403.347" y="-42"/>
      <point x="392.101" y="-113" type="curve" smooth="yes"/>
      <point x="384.814" y="-159"/>
      <point x="331.904" y="-190"/>
      <point x="259.904" y="-190" type="curve" smooth="yes"/>
      <point x="195.904" y="-190"/>
      <point x="174.904" y="-190"/>
      <point x="174.904" y="-190" type="curve"/>
      <point x="183.616" y="-135" type="line"/>
      <point x="183.616" y="-135"/>
      <point x="208.616" y="-135"/>
      <point x="253.616" y="-135" type="curve" smooth="yes"/>
      <point x="282.616" y="-135"/>
      <point x="304.517" y="-123"/>
      <point x="307.368" y="-105" type="curve" smooth="yes"/>
      <point x="311.011" y="-82"/>
      <point x="275.07" y="-69"/>
      <point x="208.07" y="-69" type="curve"/>
    </contour>
  </outline>
</glyph>
<glyph name="onequarter" format="2">
  <advance width="600" height="985"/>
  <unicode hex="00BC"/>
  <outline>
    <component base="onesuperior" xOffset="-143" yOffset="-46"/>
    <contour>
      <point x="514.048" y="720" type="line"/>
      <point x="595.048" y="720" type="line"/>
      <point x="100" y="0" type="line"/>
      <point x="19" y="0" type="line"/>
    </contour>
    <contour>
      <point x="397.238" y="136" type="line"/>
      <point x="394.704" y="120" type="line"/>
      <point x="510.704" y="120" type="line"/>
      <point x="523.218" y="199" type="line"/>
      <point x="583.218" y="199" type="line"/>
      <point x="551.696" y="0" type="line"/>
      <point x="491.696" y="0" type="line"/>
      <point x="502.784" y="70" type="line"/>
      <point x="326.784" y="70" type="line"/>
      <point x="340.09" y="154" type="line"/>
      <point x="493.176" y="325" type="line"/>
      <point x="562.176" y="325" type="line"/>
    </contour>
  </outline>
</glyph>
<glyph name="Oslash" format="2">
  <advance width="600" height="975"/>
  <unicode hex="00D8"/>
  <outline>
    <component base="O"/>
    <contour>
      <point x="543.8" y="750" type="line"/>
      <point x="633.8" y="750" type="line"/>
      <point x="68.664" y="-40" type="line"/>
      <point x="-21.336" y="-40" type="line"/>
    </contour>
  </outline>
</glyph>
<glyph name="Thorn" format="2">
  <advance width="600" height="975"/>
  <unicode hex="00DE"/>
  <outline>
    <contour>
      <point x="130" y="0" type="line"/>
      <point x="40" y="0" type="line"/>
      <point x="154.048" y="720" type="line"/>
      <point x="244.048" y="720" type="line"/>
      <point x="221.08" y="575" type="line"/>
      <point x="374.08" y="575" type="line" smooth="yes"/>
      <point x="505.08" y="575"/>
      <point x="578.408" y="495"/>
      <point x="559.4" y="375" type="curve" smooth="yes"/>
      <point x="540.075" y="253"/>
      <point x="442.72" y="175"/>
      <point x="310.72" y="175" type="curve" smooth="yes"/>
      <point x="157.72" y="175" type="line"/>
    </contour>
    <contour>
      <point x="323.392" y="255" type="line" smooth="yes"/>
      <point x="400.392" y="255"/>
      <point x="454.678" y="301"/>
      <point x="466.4" y="375" type="curve" smooth="yes"/>
      <point x="478.122" y="449"/>
      <point x="437.408" y="495"/>
      <point x="361.408" y="495" type="curve" smooth="yes"/>
      <point x="208.408" y="495" type="line"/>
      <point x="170.392" y="255" type="line"/>
    </contour>
  </outline>
</glyph>
<glyph name="germandbls" format="2">
  <advance width="600" height="975"/>
  <unicode hex="00DF"/>
  <outline>
    <contour>
      <point x="-140.256" y="-90" type="line"/>
      <point x="-94.256" y="-90" type="line" smooth="yes"/>
      <point x="-27.256" y="-90"/>
      <point x="16.7632" y="-52"/>
      <point x="27.376" y="15" type="curve" smooth="yes"/>
      <point x="112.278" y="551" type="line" smooth="yes"/>
      <point x="129.227" y="658"/>
      <point x="216.632" y="730"/>
      <point x="329.632" y="730" type="curve" smooth="yes"/>
      <point x="402.632" y="730" type="line" smooth="yes"/>
      <point x="517.632" y="730"/>
      <point x="582.227" y="658"/>
      <point x="565.278" y="551" type="curve" smooth="yes"/>
      <point x="552.448" y="470" type="line"/>
      <point x="462.448" y="470" type="line" smooth="yes"/>
      <point x="403.448" y="470"/>
      <point x="369.646" y="446"/>
      <point x="362.36" y="400" type="curve" smooth="yes"/>
      <point x="355.866" y="359"/>
      <point x="374.064" y="335"/>
      <point x="418.638" y="326" type="curve" smooth="yes"/>
      <point x="451.53" y="319" type="line" smooth="yes"/>
      <point x="541.52" y="300"/>
      <point x="582.858" y="239"/>
      <point x="568.918" y="151" type="curve" smooth="yes"/>
      <point x="552.92" y="50"/>
      <point x="480.416" y="-10"/>
      <point x="373.416" y="-10" type="curve" smooth="yes"/>
      <point x="272.416" y="-10"/>
      <point x="212.811" y="43"/>
      <point x="215.592" y="130" type="curve"/>
      <point x="310.592" y="130" type="line"/>
      <point x="311.573" y="92"/>
      <point x="339.088" y="70"/>
      <point x="386.088" y="70" type="curve" smooth="yes"/>
      <point x="438.088" y="70"/>
      <point x="470.523" y="98"/>
      <point x="478.602" y="149" type="curve" smooth="yes"/>
      <point x="486.205" y="197"/>
      <point x="468.64" y="225"/>
      <point x="423.224" y="235" type="curve" smooth="yes"/>
      <point x="391.333" y="242" type="line" smooth="yes"/>
      <point x="298.501" y="262"/>
      <point x="257.896" y="315"/>
      <point x="271.202" y="399" type="curve" smooth="yes"/>
      <point x="286.25" y="494"/>
      <point x="361.12" y="550"/>
      <point x="475.12" y="550" type="curve"/>
      <point x="484.624" y="610"/>
      <point x="450.96" y="650"/>
      <point x="389.96" y="650" type="curve" smooth="yes"/>
      <point x="316.96" y="650" type="line" smooth="yes"/>
      <point x="257.96" y="650"/>
      <point x="211.624" y="610"/>
      <point x="202.12" y="550" type="curve" smooth="yes"/>
      <point x="117.376" y="15" type="line" smooth="yes"/>
      <point x="98.6848" y="-103"/>
      <point x="17.072" y="-170"/>
      <point x="-107.928" y="-170" type="curve" smooth="yes"/>
      <point x="-152.928" y="-170" type="line"/>
    </contour>
  </outline>
</glyph>
<glyph name="ae" format="2">
  <advance width="600" height="975"/>
  <unicode hex="00E6"/>
  <outline>
    <contour>
      <point x="346.48" y="325" type="line"/>
      <point x="483.48" y="325" type="line"/>
      <point x="495.36" y="400" type="line" smooth="yes"/>
      <point x="503.28" y="450"/>
      <point x="482.507" y="483"/>
      <point x="438.507" y="483" type="curve" smooth="yes"/>
      <point x="396.507" y="483"/>
      <point x="366.28" y="450"/>
      <point x="358.36" y="400" type="curve" smooth="yes"/>
    </contour>
    <contour>
      <point x="237.76" y="150" type="curve" smooth="yes"/>
      <point x="254.392" y="255" type="line"/>
      <point x="182.392" y="255" type="line" smooth="yes"/>
      <point x="141.392" y="255"/>
      <point x="113.432" y="230"/>
      <point x="107.096" y="190" type="curve" smooth="yes"/>
      <point x="97.592" y="130" type="line" smooth="yes"/>
      <point x="91.4144" y="91"/>
      <point x="112.613" y="67"/>
      <point x="152.613" y="67" type="curve" smooth="yes"/>
      <point x="195.613" y="67"/>
      <point x="229.84" y="100"/>
    </contour>
    <contour>
      <point x="326.032" y="480" type="curve"/>
      <point x="330.032" y="480" type="line"/>
      <point x="330.032" y="480"/>
      <point x="370.704" y="560"/>
      <point x="460.704" y="560" type="curve" smooth="yes"/>
      <point x="548.704" y="560"/>
      <point x="595.725" y="497"/>
      <point x="580.36" y="400" type="curve" smooth="yes"/>
      <point x="557.392" y="255" type="line"/>
      <point x="335.392" y="255" type="line"/>
      <point x="318.76" y="150" type="line" smooth="yes"/>
      <point x="310.84" y="100"/>
      <point x="332.613" y="67"/>
      <point x="372.613" y="67" type="curve" smooth="yes"/>
      <point x="406.613" y="67"/>
      <point x="437.256" y="90"/>
      <point x="448.8" y="125" type="curve"/>
      <point x="533.8" y="125" type="line"/>
      <point x="507.336" y="40"/>
      <point x="446.416" y="-10"/>
      <point x="370.416" y="-10" type="curve" smooth="yes"/>
      <point x="260.416" y="-10"/>
      <point x="265.088" y="70"/>
      <point x="265.088" y="70" type="curve"/>
      <point x="261.088" y="70" type="line"/>
      <point x="261.088" y="70"/>
      <point x="237.416" y="-10"/>
      <point x="120.416" y="-10" type="curve" smooth="yes"/>
      <point x="39.416" y="-10"/>
      <point x="-5.7136" y="46"/>
      <point x="7.592" y="130" type="curve" smooth="yes"/>
      <point x="17.096" y="190" type="line" smooth="yes"/>
      <point x="30.0848" y="272"/>
      <point x="98.48" y="325"/>
      <point x="191.48" y="325" type="curve" smooth="yes"/>
      <point x="265.48" y="325" type="line"/>
      <point x="277.202" y="399" type="line" smooth="yes"/>
      <point x="286.389" y="457"/>
      <point x="269.507" y="483"/>
      <point x="223.507" y="483" type="curve" smooth="yes"/>
      <point x="186.507" y="483"/>
      <point x="161.339" y="463"/>
      <point x="151.162" y="424" type="curve"/>
      <point x="66.1616" y="424" type="line"/>
      <point x="91.1008" y="512"/>
      <point x="145.704" y="560"/>
      <point x="220.704" y="560" type="curve" smooth="yes"/>
      <point x="330.704" y="560"/>
      <point x="326.032" y="480"/>
    </contour>
  </outline>
</glyph>
<glyph name="eth" format="2">
  <advance width="600" height="975"/>
  <unicode hex="00F0"/>
  <outline>
    <contour>
      <point x="247.416" y="-10" type="curve" smooth="yes"/>
      <point x="385.416" y="-10"/>
      <point x="492.83" y="81"/>
      <point x="514.056" y="215" type="curve" smooth="yes"/>
      <point x="526.57" y="294"/>
      <point x="506.984" y="385"/>
      <point x="453.091" y="493" type="curve" smooth="yes"/>
      <point x="334.632" y="730" type="line"/>
      <point x="225.632" y="730" type="line"/>
      <point x="358.032" y="480" type="line" smooth="yes"/>
      <point x="394.944" y="410"/>
      <point x="417.192" y="380"/>
      <point x="417.192" y="380" type="curve"/>
      <point x="403.192" y="380" type="line"/>
      <point x="403.192" y="380"/>
      <point x="380.062" y="436"/>
      <point x="300.062" y="436" type="curve" smooth="yes"/>
      <point x="173.062" y="436"/>
      <point x="75.1232" y="348"/>
      <point x="54.056" y="215" type="curve" smooth="yes"/>
      <point x="32.5136" y="79"/>
      <point x="109.416" y="-10"/>
    </contour>
    <contour>
      <point x="424.056" y="215" type="curve" smooth="yes"/>
      <point x="410.275" y="128"/>
      <point x="345.088" y="70"/>
      <point x="260.088" y="70" type="curve" smooth="yes"/>
      <point x="177.088" y="70"/>
      <point x="130.275" y="128"/>
      <point x="144.056" y="215" type="curve" smooth="yes"/>
      <point x="157.837" y="302"/>
      <point x="223.024" y="360"/>
      <point x="306.024" y="360" type="curve" smooth="yes"/>
      <point x="391.024" y="360"/>
      <point x="437.837" y="302"/>
    </contour>
    <contour>
      <point x="145.408" y="495" type="line"/>
      <point x="514.752" y="655" type="line"/>
      <point x="527.424" y="735" type="line"/>
      <point x="158.08" y="575" type="line"/>
    </contour>
  </outline>
</glyph>
<glyph name="divide" format="2">
  <advance width="600" height="975"/>
  <unicode hex="00F7"/>
  <outline>
    <component base="minus"/>
    <contour>
      <point x="326.424" y="580" type="curve" smooth="yes"/>
      <point x="346.424" y="580" type="line" smooth="yes"/>
      <point x="385.424" y="580"/>
      <point x="407.464" y="555"/>
      <point x="401.762" y="519" type="curve" smooth="yes"/>
      <point x="396.059" y="483"/>
      <point x="366.416" y="460"/>
      <point x="327.416" y="460" type="curve" smooth="yes"/>
      <point x="307.416" y="460" type="line" smooth="yes"/>
      <point x="268.416" y="460"/>
      <point x="245.901" y="482"/>
      <point x="251.682" y="518.5" type="curve" smooth="yes"/>
      <point x="257.464" y="555"/>
      <point x="287.424" y="580"/>
    </contour>
    <contour>
      <point x="266.424" y="205" type="curve" smooth="yes"/>
      <point x="286.424" y="205" type="line" smooth="yes"/>
      <point x="325.424" y="205"/>
      <point x="347.464" y="180"/>
      <point x="341.762" y="144" type="curve" smooth="yes"/>
      <point x="336.059" y="108"/>
      <point x="306.416" y="85"/>
      <point x="267.416" y="85" type="curve" smooth="yes"/>
      <point x="247.416" y="85" type="line" smooth="yes"/>
      <point x="208.416" y="85"/>
      <point x="185.901" y="107"/>
      <point x="191.682" y="143.5" type="curve" smooth="yes"/>
      <point x="197.464" y="180"/>
      <point x="227.424" y="205"/>
    </contour>
  </outline>
  <guideline angle="90" x="298" y="0"/>
</glyph>
<glyph name="oslash" format="2">
  <advance width="600" height="975"/>
  <unicode hex="00F8"/>
  <outline>
    <component base="o"/>
    <contour>
      <point x="513.456" y="590" type="line"/>
      <point x="608.456" y="590" type="line"/>
      <point x="74.248" y="-30" type="line"/>
      <point x="-19.752" y="-30" type="line"/>
    </contour>
  </outline>
</glyph>
<glyph name="thorn" format="2">
  <advance width="600" height="975"/>
  <unicode hex="00FE"/>
  <outline>
    <component base="b" xOffset="-5"/>
    <contour>
      <point x="42.3456" y="59" type="line"/>
      <point x="127.346" y="59" type="line"/>
      <point x="91.864" y="-165" type="line"/>
      <point x="6.864" y="-165" type="line"/>
    </contour>
  </outline>
</glyph>
<glyph name="Dcroat" format="2">
  <advance width="600" height="975"/>
  <unicode hex="0110"/>
  <outline>
    <contour>
      <point x="252" y="80" type="curve" smooth="yes"/>
      <point x="141" y="80" type="line"/>
      <point x="229" y="640" type="line"/>
      <point x="340" y="640" type="line" smooth="yes"/>
      <point x="424" y="640"/>
      <point x="472" y="584"/>
      <point x="458" y="501" type="curve" smooth="yes"/>
      <point x="414" y="220" type="line" smooth="yes"/>
      <point x="401" y="136"/>
      <point x="336" y="80"/>
    </contour>
    <contour>
      <point x="239" y="0" type="line" smooth="yes"/>
      <point x="378" y="0"/>
      <point x="484" y="88"/>
      <point x="505" y="220" type="curve" smooth="yes"/>
      <point x="549" y="501" type="line" smooth="yes"/>
      <point x="570" y="632"/>
      <point x="492" y="720"/>
      <point x="353" y="720" type="curve" smooth="yes"/>
      <point x="152" y="720" type="line"/>
      <point x="38" y="0" type="line"/>
    </contour>
    <contour>
      <point x="28" y="320" type="line"/>
      <point x="293" y="320" type="line"/>
      <point x="305" y="395" type="line"/>
      <point x="40" y="395" type="line"/>
    </contour>
  </outline>
</glyph>
<glyph name="Hbar" format="2">
  <advance width="600" height="975"/>
  <unicode hex="0126"/>
  <outline>
    <component base="H"/>
    <contour>
      <point x="87.04" y="600" type="line"/>
      <point x="597.04" y="600" type="line"/>
      <point x="584.368" y="520" type="line"/>
      <point x="74.368" y="520" type="line"/>
    </contour>
  </outline>
</glyph>
<glyph name="iogonek" format="2">
  <advance width="600" height="975"/>
  <unicode hex="012F"/>
  <outline>
    <component base="i"/>
    <contour>
      <point x="354.336" y="40" type="line"/>
      <point x="307" y="0" type="line" smooth="yes"/>
      <point x="266.614" y="-34"/>
      <point x="247.654" y="-59"/>
      <point x="243.408" y="-85.8063" type="curve" smooth="yes"/>
      <point x="238.15" y="-119"/>
      <point x="257.824" y="-140"/>
      <point x="295.824" y="-140" type="curve" smooth="yes"/>
      <point x="365.824" y="-140" type="line"/>
      <point x="356.32" y="-200" type="line"/>
      <point x="262.32" y="-200" type="line" smooth="yes"/>
      <point x="189.32" y="-200"/>
      <point x="149.29" y="-156"/>
      <point x="156.893" y="-108" type="curve" smooth="yes"/>
      <point x="161.803" y="-77"/>
      <point x="181.872" y="-45"/>
      <point x="215.149" y="-18" type="curve" smooth="yes"/>
      <point x="325.246" y="71" type="line"/>
    </contour>
  </outline>
</glyph>
<glyph name="dotlessi" format="2">
  <advance width="600" height="975"/>
  <unicode hex="0131"/>
  <outline>
    <contour>
      <point x="157.12" y="550" type="line"/>
      <point x="422.12" y="550" type="line"/>
      <point x="347.989" y="82" type="line"/>
      <point x="512.989" y="82" type="line"/>
      <point x="500" y="0" type="line"/>
      <point x="45" y="0" type="line"/>
      <point x="57.9888" y="82" type="line"/>
      <point x="257.989" y="82" type="line"/>
      <point x="319.131" y="468" type="line"/>
      <point x="144.131" y="468" type="line"/>
    </contour>
  </outline>
</glyph>
<glyph name="ij" format="2">
  <advance width="600" height="985"/>
  <unicode hex="0133"/>
  <outline>
    <contour>
      <point x="142.12" y="550" type="line"/>
      <point x="55" y="0" type="line"/>
      <point x="145" y="0" type="line"/>
      <point x="232.12" y="550" type="line"/>
    </contour>
    <contour>
      <point x="211.176" y="765" type="line" smooth="yes"/>
      <point x="172.176" y="765"/>
      <point x="142.216" y="740"/>
      <point x="136.434" y="703.5" type="curve" smooth="yes"/>
      <point x="130.653" y="667"/>
      <point x="153.168" y="645"/>
      <point x="192.168" y="645" type="curve" smooth="yes"/>
      <point x="212.168" y="645" type="line" smooth="yes"/>
      <point x="251.168" y="645"/>
      <point x="280.811" y="668"/>
      <point x="286.514" y="704" type="curve" smooth="yes"/>
      <point x="292.216" y="740"/>
      <point x="270.176" y="765"/>
      <point x="231.176" y="765" type="curve" smooth="yes"/>
    </contour>
    <contour>
      <point x="511.176" y="765" type="line" smooth="yes"/>
      <point x="472.176" y="765"/>
      <point x="442.216" y="740"/>
      <point x="436.434" y="703.5" type="curve" smooth="yes"/>
      <point x="430.653" y="667"/>
      <point x="453.168" y="645"/>
      <point x="492.168" y="645" type="curve" smooth="yes"/>
      <point x="512.168" y="645" type="line" smooth="yes"/>
      <point x="551.168" y="645"/>
      <point x="580.811" y="668"/>
      <point x="586.514" y="704" type="curve" smooth="yes"/>
      <point x="592.216" y="740"/>
      <point x="570.176" y="765"/>
      <point x="531.176" y="765" type="curve" smooth="yes"/>
    </contour>
    <contour>
      <point x="364.752" y="30" type="line" smooth="yes"/>
      <point x="353.664" y="-40"/>
      <point x="302.853" y="-83"/>
      <point x="231.853" y="-83" type="curve" smooth="yes"/>
      <point x="146.853" y="-83" type="line"/>
      <point x="133.864" y="-165" type="line"/>
      <point x="218.864" y="-165" type="line" smooth="yes"/>
      <point x="342.864" y="-165"/>
      <point x="436.061" y="-88"/>
      <point x="454.752" y="30" type="curve" smooth="yes"/>
      <point x="537.12" y="550" type="line"/>
      <point x="447.12" y="550" type="line"/>
    </contour>
  </outline>
</glyph>
<glyph name="lslash" format="2">
  <advance width="600" height="975"/>
  <unicode hex="0142"/>
  <outline>
    <contour>
      <point x="98" y="310" type="line"/>
      <point x="507" y="560" type="line"/>
      <point x="494" y="480" type="line"/>
      <point x="85" y="230" type="line"/>
    </contour>
    <contour>
      <point x="106" y="730" type="line"/>
      <point x="378" y="730" type="line"/>
      <point x="287" y="160" type="line" smooth="yes"/>
      <point x="280" y="111"/>
      <point x="304" y="82"/>
      <point x="350" y="82" type="curve" smooth="yes"/>
      <point x="513" y="82" type="line"/>
      <point x="500" y="0" type="line"/>
      <point x="337" y="0" type="line" smooth="yes"/>
      <point x="235" y="0"/>
      <point x="182" y="61"/>
      <point x="197" y="160" type="curve" smooth="yes"/>
      <point x="275" y="648" type="line"/>
      <point x="93" y="648" type="line"/>
    </contour>
  </outline>
</glyph>
<glyph name="OE" format="2">
  <advance width="600" height="975"/>
  <unicode hex="0152"/>
  <outline>
    <contour>
      <point x="165.536" y="540" type="line" smooth="yes"/>
      <point x="176.307" y="608"/>
      <point x="216.96" y="650"/>
      <point x="272.96" y="650" type="curve" smooth="yes"/>
      <point x="328.96" y="650"/>
      <point x="356.307" y="608"/>
      <point x="345.536" y="540" type="curve" smooth="yes"/>
      <point x="288.512" y="180" type="line" smooth="yes"/>
      <point x="277.741" y="112"/>
      <point x="237.088" y="70"/>
      <point x="181.088" y="70" type="curve" smooth="yes"/>
      <point x="125.088" y="70"/>
      <point x="97.7408" y="112"/>
      <point x="108.512" y="180" type="curve" smooth="yes"/>
    </contour>
    <contour>
      <point x="260" y="0" type="line"/>
      <point x="525" y="0" type="line"/>
      <point x="537.989" y="82" type="line"/>
      <point x="360.989" y="82" type="line"/>
      <point x="400.272" y="330" type="line"/>
      <point x="552.272" y="330" type="line"/>
      <point x="565.261" y="412" type="line"/>
      <point x="413.261" y="412" type="line"/>
      <point x="449.059" y="638" type="line"/>
      <point x="626.059" y="638" type="line"/>
      <point x="639.048" y="720" type="line"/>
      <point x="374.048" y="720" type="line"/>
      <point x="361.376" y="640" type="line"/>
      <point x="356.376" y="640" type="line"/>
      <point x="356.376" y="640"/>
      <point x="355.632" y="730"/>
      <point x="260.632" y="730" type="curve" smooth="yes"/>
      <point x="164.632" y="730"/>
      <point x="94.0688" y="657"/>
      <point x="75.536" y="540" type="curve" smooth="yes"/>
      <point x="18.512" y="180" type="line" smooth="yes"/>
      <point x="-0.0208001" y="63"/>
      <point x="47.416" y="-10"/>
      <point x="143.416" y="-10" type="curve" smooth="yes"/>
      <point x="238.416" y="-10"/>
      <point x="267.672" y="80"/>
      <point x="267.672" y="80" type="curve"/>
      <point x="272.672" y="80" type="line"/>
    </contour>
  </outline>
</glyph>
<glyph name="oe" format="2">
  <advance width="600" height="975"/>
  <unicode hex="0153"/>
  <outline>
    <contour>
      <point x="263.088" y="70" type="line"/>
      <point x="263.088" y="70"/>
      <point x="258.416" y="-10"/>
      <point x="368.416" y="-10" type="curve" smooth="yes"/>
      <point x="442.416" y="-10"/>
      <point x="505.653" y="42"/>
      <point x="531.8" y="125" type="curve"/>
      <point x="446.8" y="125" type="line"/>
      <point x="435.256" y="90"/>
      <point x="404.613" y="67"/>
      <point x="370.613" y="67" type="curve" smooth="yes"/>
      <point x="330.613" y="67"/>
      <point x="308.84" y="100"/>
      <point x="316.76" y="150" type="curve" smooth="yes"/>
      <point x="332.6" y="250" type="line"/>
      <point x="554.6" y="250" type="line"/>
      <point x="578.36" y="400" type="line" smooth="yes"/>
      <point x="594.042" y="499"/>
      <point x="548.704" y="560"/>
      <point x="458.704" y="560" type="curve" smooth="yes"/>
      <point x="348.704" y="560"/>
      <point x="328.032" y="480"/>
      <point x="328.032" y="480" type="curve"/>
      <point x="324.032" y="480" type="line"/>
      <point x="324.032" y="480"/>
      <point x="328.704" y="560"/>
      <point x="218.704" y="560" type="curve" smooth="yes"/>
      <point x="128.704" y="560"/>
      <point x="64.0416" y="499"/>
      <point x="48.36" y="400" type="curve" smooth="yes"/>
      <point x="8.76" y="150" type="line" smooth="yes"/>
      <point x="-6.9216" y="51"/>
      <point x="38.416" y="-10"/>
      <point x="128.416" y="-10" type="curve" smooth="yes"/>
      <point x="238.416" y="-10"/>
      <point x="259.088" y="70"/>
      <point x="259.088" y="70" type="curve"/>
    </contour>
    <contour>
      <point x="344.163" y="323" type="line"/>
      <point x="356.36" y="400" type="line" smooth="yes"/>
      <point x="364.28" y="450"/>
      <point x="394.507" y="483"/>
      <point x="436.507" y="483" type="curve" smooth="yes"/>
      <point x="480.507" y="483"/>
      <point x="501.28" y="450"/>
      <point x="493.36" y="400" type="curve" smooth="yes"/>
      <point x="481.163" y="323" type="line"/>
    </contour>
    <contour>
      <point x="93.76" y="150" type="curve" smooth="yes"/>
      <point x="133.36" y="400" type="line" smooth="yes"/>
      <point x="141.438" y="451"/>
      <point x="173.507" y="483"/>
      <point x="216.507" y="483" type="curve" smooth="yes"/>
      <point x="257.507" y="483"/>
      <point x="278.438" y="451"/>
      <point x="270.36" y="400" type="curve" smooth="yes"/>
      <point x="230.76" y="150" type="line" smooth="yes"/>
      <point x="222.682" y="99"/>
      <point x="191.613" y="67"/>
      <point x="150.613" y="67" type="curve" smooth="yes"/>
      <point x="107.613" y="67"/>
      <point x="85.6816" y="99"/>
    </contour>
  </outline>
</glyph>
<glyph name="tcaron" format="2">
  <advance width="600" height="975"/>
  <unicode hex="0165"/>
  <outline>
    <component base="t"/>
    <contour>
      <point x="580" y="756" type="line"/>
      <point x="510" y="610" type="line"/>
      <point x="440" y="610" type="line"/>
      <point x="490" y="756" type="line"/>
    </contour>
  </outline>
</glyph>
<glyph name="longs" format="2">
  <advance width="600" height="985"/>
  <unicode hex="017F"/>
  <outline>
    <contour>
      <point x="564.048" y="720" type="line"/>
      <point x="551.376" y="640" type="line"/>
      <point x="465.376" y="640" type="line" smooth="yes"/>
      <point x="398.376" y="640"/>
      <point x="354.357" y="602"/>
      <point x="343.744" y="535" type="curve" smooth="yes"/>
      <point x="262.376" y="15" type="line" smooth="yes"/>
      <point x="243.685" y="-103"/>
      <point x="162.072" y="-170"/>
      <point x="37.072" y="-170" type="curve" smooth="yes"/>
      <point x="-7.928" y="-170" type="line"/>
      <point x="4.744" y="-90" type="line"/>
      <point x="50.744" y="-90" type="line" smooth="yes"/>
      <point x="117.744" y="-90"/>
      <point x="161.763" y="-52"/>
      <point x="172.376" y="15" type="curve" smooth="yes"/>
      <point x="253.744" y="535" type="line" smooth="yes"/>
      <point x="272.435" y="653"/>
      <point x="354.048" y="720"/>
      <point x="479.048" y="720" type="curve" smooth="yes"/>
    </contour>
  </outline>
</glyph>
<glyph name="uni018F" format="2">
  <advance width="600"/>
  <unicode hex="018F"/>
  <outline>
    <contour>
      <point x="220.213" y="317" type="line" name="sh05"/>
      <point x="480.213" y="317" type="line" name="dv02"/>
      <point x="462.314" y="204" type="line" smooth="yes" name="sh04"/>
      <point x="448.85" y="119"/>
      <point x="390.454" y="66"/>
      <point x="310.454" y="66" type="curve" smooth="yes" name="sv02"/>
      <point x="230.454" y="66"/>
      <point x="188.85" y="119"/>
      <point x="202.314" y="204" type="curve" smooth="yes" name="ah01"/>
    </contour>
    <contour>
      <point x="415.632" y="730" type="curve" smooth="yes" name="ab01"/>
      <point x="291.632" y="730"/>
      <point x="198.069" y="657"/>
      <point x="164.744" y="535" type="curve"/>
      <point x="254.744" y="535" type="line"/>
      <point x="274.149" y="607"/>
      <point x="329.96" y="650"/>
      <point x="402.96" y="650" type="curve" smooth="yes" name="sv01"/>
      <point x="483.96" y="650"/>
      <point x="525.882" y="599"/>
      <point x="512.576" y="515" type="curve" smooth="yes"/>
      <point x="492.934" y="391" type="line" name="dv01"/>
      <point x="141.934" y="391" type="line"/>
      <point x="112.314" y="204" type="line" smooth="yes" name="sh02"/>
      <point x="91.5632" y="73"/>
      <point x="163.416" y="-10"/>
      <point x="298.416" y="-10" type="curve" smooth="yes" name="at01"/>
      <point x="433.416" y="-10"/>
      <point x="531.563" y="73"/>
      <point x="552.314" y="204" type="curve" smooth="yes" name="sh01"/>
      <point x="601.576" y="515" type="line" smooth="yes"/>
      <point x="622.326" y="646"/>
      <point x="550.632" y="730"/>
    </contour>
  </outline>
</glyph>
<glyph name="uni0237" format="2">
  <advance width="600" height="975"/>
  <unicode hex="0237"/>
  <outline>
    <contour>
      <point x="302.92" y="50" type="line" smooth="yes"/>
      <point x="290.09" y="-31"/>
      <point x="225.219" y="-87"/>
      <point x="141.219" y="-87" type="curve" smooth="yes"/>
      <point x="21.2192" y="-87" type="line"/>
      <point x="8.072" y="-170" type="line"/>
      <point x="128.072" y="-170" type="line" smooth="yes"/>
      <point x="263.072" y="-170"/>
      <point x="372.486" y="-79"/>
      <point x="392.92" y="50" type="curve" smooth="yes"/>
      <point x="472.12" y="550" type="line"/>
      <point x="152.12" y="550" type="line"/>
      <point x="139.131" y="468" type="line"/>
      <point x="369.131" y="468" type="line"/>
    </contour>
  </outline>
</glyph>
<glyph name="circumflex" format="2">
  <advance width="600" height="975"/>
  <unicode hex="02C6"/>
  <outline>
    <contour>
      <point x="334.928" y="785" type="line"/>
      <point x="416.928" y="785" type="line"/>
      <point x="513.752" y="645" type="line"/>
      <point x="434.752" y="645" type="line"/>
      <point x="417.707" y="669.966" type="line" smooth="yes"/>
      <point x="400.735" y="694.822"/>
      <point x="377.008" y="735"/>
      <point x="377.008" y="735" type="curve"/>
      <point x="365.008" y="735" type="line"/>
      <point x="365.008" y="735"/>
      <point x="328.092" y="694.875"/>
      <point x="303.659" y="669.666" type="curve" smooth="yes"/>
      <point x="279.752" y="645" type="line"/>
      <point x="192.752" y="645" type="line"/>
    </contour>
  </outline>
</glyph>
<glyph name="caron" format="2">
  <advance width="600" height="975"/>
  <unicode hex="02C7"/>
  <outline>
    <contour>
      <point x="394.752" y="645" type="line"/>
      <point x="312.752" y="645" type="line"/>
      <point x="215.928" y="785" type="line"/>
      <point x="292.928" y="785" type="line"/>
      <point x="309.973" y="760.034" type="line" smooth="yes"/>
      <point x="326.945" y="735.178"/>
      <point x="351.672" y="695"/>
      <point x="351.672" y="695" type="curve"/>
      <point x="363.672" y="695" type="line"/>
      <point x="363.672" y="695"/>
      <point x="399.588" y="735.125"/>
      <point x="424.021" y="760.334" type="curve" smooth="yes"/>
      <point x="447.928" y="785" type="line"/>
      <point x="536.928" y="785" type="line"/>
    </contour>
  </outline>
</glyph>
<glyph name="breve" format="2">
  <advance width="600" height="975"/>
  <unicode hex="02D8"/>
  <outline>
    <contour>
      <point x="362.414" y="706" type="curve" smooth="yes"/>
      <point x="420.014" y="706"/>
      <point x="463.103" y="735.6"/>
      <point x="470.136" y="780" type="curve" name="av01"/>
      <point x="540.136" y="780" type="line"/>
      <point x="527.306" y="699"/>
      <point x="452.752" y="645"/>
      <point x="353.752" y="645" type="curve" smooth="yes" name="av03"/>
      <point x="254.752" y="645"/>
      <point x="197.306" y="699"/>
      <point x="210.136" y="780" type="curve" name="av02"/>
      <point x="280.136" y="780" type="line"/>
      <point x="273.103" y="735.6"/>
      <point x="306.014" y="706"/>
    </contour>
  </outline>
</glyph>
<glyph name="dotaccent" format="2">
  <advance width="600" height="975"/>
  <unicode hex="02D9"/>
  <outline>
    <contour>
      <point x="341.038" y="761" type="curve" smooth="yes"/>
      <point x="361.038" y="761" type="line" smooth="yes"/>
      <point x="400.038" y="761"/>
      <point x="422.078" y="736"/>
      <point x="416.376" y="700" type="curve" smooth="yes"/>
      <point x="410.674" y="664"/>
      <point x="381.03" y="641"/>
      <point x="342.03" y="641" type="curve" smooth="yes"/>
      <point x="322.03" y="641" type="line" smooth="yes"/>
      <point x="283.03" y="641"/>
      <point x="260.515" y="663"/>
      <point x="266.297" y="699.5" type="curve" smooth="yes"/>
      <point x="272.078" y="736"/>
      <point x="302.038" y="761"/>
    </contour>
  </outline>
</glyph>
<glyph name="ogonek" format="2">
  <advance width="600" height="975"/>
  <unicode hex="02DB"/>
  <outline>
    <contour>
      <point x="346.584" y="10" type="line"/>
      <point x="334.158" y="1" type="line"/>
      <point x="283.298" y="-36"/>
      <point x="259.704" y="-65"/>
      <point x="255.303" y="-92.7871" type="curve" smooth="yes"/>
      <point x="250.675" y="-122"/>
      <point x="268.824" y="-140"/>
      <point x="302.824" y="-140" type="curve" smooth="yes"/>
      <point x="362.824" y="-140" type="line"/>
      <point x="353.32" y="-200" type="line"/>
      <point x="275.32" y="-200" type="line" smooth="yes"/>
      <point x="201.32" y="-200"/>
      <point x="159.022" y="-164"/>
      <point x="167.576" y="-110" type="curve" smooth="yes"/>
      <point x="173.595" y="-72"/>
      <point x="201.614" y="-34"/>
      <point x="271.584" y="10" type="curve"/>
    </contour>
  </outline>
</glyph>
<glyph name="tilde" format="2">
  <advance width="600" height="975"/>
  <unicode hex="02DC"/>
  <outline>
    <contour>
      <point x="448.256" y="705" type="curve" smooth="yes"/>
      <point x="388.256" y="705"/>
      <point x="380.928" y="785"/>
      <point x="290.928" y="785" type="curve" smooth="yes"/>
      <point x="221.928" y="785"/>
      <point x="174.117" y="742"/>
      <point x="161.92" y="665" type="curve" smooth="yes"/>
      <point x="158.752" y="645" type="line"/>
      <point x="223.752" y="645" type="line"/>
      <point x="226.92" y="665" type="line" smooth="yes"/>
      <point x="232.464" y="700"/>
      <point x="252.632" y="720"/>
      <point x="280.632" y="720" type="curve" smooth="yes"/>
      <point x="340.632" y="720"/>
      <point x="347.96" y="640"/>
      <point x="437.96" y="640" type="curve" smooth="yes"/>
      <point x="506.96" y="640"/>
      <point x="554.771" y="683"/>
      <point x="566.968" y="760" type="curve" smooth="yes"/>
      <point x="570.136" y="780" type="line"/>
      <point x="505.136" y="780" type="line"/>
      <point x="501.968" y="760" type="line" smooth="yes"/>
      <point x="496.424" y="725"/>
      <point x="476.256" y="705"/>
    </contour>
  </outline>
</glyph>
<glyph name="hungarumlaut" format="2">
  <advance width="600" height="975"/>
  <unicode hex="02DD"/>
  <outline>
    <contour>
      <point x="424.344" y="785" type="line"/>
      <point x="309.344" y="785" type="line"/>
      <point x="177.168" y="645" type="line"/>
      <point x="272.168" y="645" type="line"/>
    </contour>
    <contour>
      <point x="629.344" y="785" type="line"/>
      <point x="514.344" y="785" type="line"/>
      <point x="382.168" y="645" type="line"/>
      <point x="477.168" y="645" type="line"/>
    </contour>
  </outline>
</glyph>
<glyph name="hookabovecomb" format="2">
  <advance width="600"/>
  <unicode hex="0309"/>
  <outline>
    <contour>
      <point x="273.208" y="620" type="line"/>
      <point x="285.634" y="629" type="line" smooth="yes"/>
      <point x="336.494" y="666"/>
      <point x="360.088" y="695"/>
      <point x="364.489" y="722.787" type="curve" smooth="yes"/>
      <point x="369.117" y="752"/>
      <point x="350.968" y="770"/>
      <point x="316.968" y="770" type="curve" smooth="yes"/>
      <point x="256.968" y="770" type="line"/>
      <point x="266.472" y="830" type="line"/>
      <point x="344.472" y="830" type="line" smooth="yes"/>
      <point x="418.472" y="830"/>
      <point x="460.77" y="794"/>
      <point x="452.216" y="740" type="curve" smooth="yes"/>
      <point x="446.197" y="702"/>
      <point x="418.178" y="664"/>
      <point x="348.208" y="620" type="curve"/>
    </contour>
  </outline>
</glyph>
<glyph name="commaaccent" format="2">
  <advance width="600" height="975"/>
  <unicode hex="0326"/>
  <outline>
    <contour>
      <point x="234.766" y="-94" type="line"/>
      <point x="344.766" y="-94" type="line"/>
      <point x="241.64" y="-240" type="line"/>
      <point x="151.64" y="-240" type="line"/>
    </contour>
  </outline>
</glyph>
<glyph name="lambda" format="2">
  <advance width="600"/>
  <unicode hex="03BB"/>
  <outline>
    <contour>
      <point x="370.048" y="720" type="line"/>
      <point x="277.048" y="720" type="line"/>
      <point x="321.21" y="519" type="line"/>
      <point x="30" y="0" type="line"/>
      <point x="134" y="0" type="line"/>
      <point x="305.53" y="319" type="line" smooth="yes"/>
      <point x="338.034" y="379"/>
      <point x="347.27" y="431"/>
      <point x="347.27" y="431" type="curve"/>
      <point x="354.27" y="431" type="line"/>
      <point x="354.27" y="431"/>
      <point x="353.192" y="380"/>
      <point x="366.53" y="319" type="curve" smooth="yes"/>
      <point x="437" y="0" type="line"/>
      <point x="530" y="0" type="line"/>
    </contour>
  </outline>
</glyph>
<glyph name="pi" format="2">
  <advance width="600" height="985"/>
  <unicode hex="03C0"/>
  <outline>
    <contour>
      <point x="57.12" y="550" type="line"/>
      <point x="592.12" y="550" type="line"/>
      <point x="579.765" y="472" type="line"/>
      <point x="499.765" y="472" type="line"/>
      <point x="450.978" y="164" type="line" smooth="yes"/>
      <point x="442.266" y="109"/>
      <point x="462.514" y="79"/>
      <point x="509.514" y="79" type="curve" smooth="yes"/>
      <point x="537.514" y="79" type="line"/>
      <point x="524.208" y="-5" type="line"/>
      <point x="501.208" y="-5" type="line" smooth="yes"/>
      <point x="400.208" y="-5"/>
      <point x="345.138" y="64"/>
      <point x="361.928" y="170" type="curve" smooth="yes"/>
      <point x="409.131" y="468" type="line"/>
      <point x="214.131" y="468" type="line"/>
      <point x="140" y="0" type="line"/>
      <point x="50" y="0" type="line"/>
      <point x="124.29" y="469" type="line"/>
      <point x="44.2896" y="469" type="line"/>
    </contour>
  </outline>
</glyph>
<glyph name="uni040B" format="2">
  <advance width="600" height="985"/>
  <unicode hex="040B"/>
  <outline>
    <contour>
      <point x="64.048" y="720" type="line"/>
      <point x="384.048" y="720" type="line"/>
      <point x="371.534" y="641" type="line"/>
      <point x="251.534" y="641" type="line"/>
      <point x="212.885" y="397" type="line"/>
      <point x="231.894" y="416" type="line" smooth="yes"/>
      <point x="281.814" y="466"/>
      <point x="340.408" y="495"/>
      <point x="393.408" y="495" type="curve" smooth="yes"/>
      <point x="494.408" y="495"/>
      <point x="552.003" y="423"/>
      <point x="535.054" y="316" type="curve" smooth="yes"/>
      <point x="485" y="0" type="line"/>
      <point x="395" y="0" type="line"/>
      <point x="441.886" y="296" type="line" smooth="yes"/>
      <point x="454.717" y="377"/>
      <point x="430.37" y="419"/>
      <point x="370.37" y="419" type="curve" smooth="yes"/>
      <point x="331.37" y="419"/>
      <point x="295.36" y="400"/>
      <point x="251.707" y="358" type="curve" smooth="yes"/>
      <point x="198.629" y="307" type="line"/>
      <point x="150" y="0" type="line"/>
      <point x="60" y="0" type="line"/>
      <point x="161.534" y="641" type="line"/>
      <point x="51.5344" y="641" type="line"/>
    </contour>
  </outline>
</glyph>
<glyph name="uni0411" format="2">
  <advance width="600" height="985"/>
  <unicode hex="0411"/>
  <outline>
    <contour>
      <point x="425.898" y="214" type="curve" smooth="yes" name="ah01"/>
      <point x="438.411" y="293"/>
      <point x="393.806" y="346"/>
      <point x="314.806" y="346" type="curve" smooth="yes" name="dv01"/>
      <point x="184.806" y="346" type="line"/>
      <point x="142.989" y="82" type="line" name="sv01"/>
      <point x="272.989" y="82" type="line" smooth="yes"/>
      <point x="350.989" y="82"/>
      <point x="413.542" y="136"/>
    </contour>
    <contour>
      <point x="569.048" y="720" type="line" name="at01"/>
      <point x="556.059" y="638" type="line" name="sv02"/>
      <point x="231.059" y="638" type="line" name="sh02"/>
      <point x="197.795" y="428" type="line"/>
      <point x="332.795" y="428" type="line" smooth="yes" name="dv02"/>
      <point x="464.795" y="428"/>
      <point x="539.173" y="342"/>
      <point x="518.898" y="214" type="curve" smooth="yes" name="sh03"/>
      <point x="498.622" y="86"/>
      <point x="397" y="0"/>
      <point x="265" y="0" type="curve" smooth="yes" name="ab01"/>
      <point x="40" y="0" type="line" name="sh01"/>
      <point x="154.048" y="720" type="line"/>
    </contour>
  </outline>
</glyph>
<glyph name="uni0413" format="2">
  <advance width="600" height="985"/>
  <unicode hex="0413"/>
  <outline>
    <contour>
      <point x="599.048" y="720" type="line"/>
      <point x="586.059" y="638" type="line"/>
      <point x="246.059" y="638" type="line"/>
      <point x="145" y="0" type="line"/>
      <point x="55" y="0" type="line"/>
      <point x="169.048" y="720" type="line"/>
    </contour>
  </outline>
</glyph>
<glyph name="uni041B" format="2">
  <advance width="600" height="985"/>
  <unicode hex="041B"/>
  <outline>
    <contour>
      <point x="112.234" y="254" type="line" smooth="yes"/>
      <point x="89.9584" y="126"/>
      <point x="59.5136" y="79"/>
      <point x="0.5136" y="79" type="curve" smooth="yes"/>
      <point x="-17.4864" y="79" type="line"/>
      <point x="-30.792" y="-5" type="line"/>
      <point x="-7.792" y="-5" type="line" smooth="yes"/>
      <point x="107.208" y="-5"/>
      <point x="171.88" y="75"/>
      <point x="202.234" y="254" type="curve" smooth="yes"/>
      <point x="268.059" y="638" type="line"/>
      <point x="471.059" y="638" type="line"/>
      <point x="370" y="0" type="line"/>
      <point x="460" y="0" type="line"/>
      <point x="574.048" y="720" type="line"/>
      <point x="192.048" y="720" type="line"/>
    </contour>
  </outline>
</glyph>
<glyph name="uni0423" format="2">
  <advance width="600" height="985"/>
  <unicode hex="0423"/>
  <outline>
    <contour>
      <point x="237" y="0" type="line"/>
      <point x="141" y="0" type="line"/>
      <point x="244.938" y="189" type="line"/>
      <point x="104.048" y="720" type="line"/>
      <point x="199.048" y="720" type="line"/>
      <point x="285.083" y="373" type="line" smooth="yes"/>
      <point x="299.738" y="314"/>
      <point x="297.659" y="263"/>
      <point x="297.659" y="263" type="curve"/>
      <point x="304.659" y="263" type="line"/>
      <point x="304.659" y="263"/>
      <point x="310.579" y="313"/>
      <point x="342.083" y="373" type="curve" smooth="yes"/>
      <point x="524.048" y="720" type="line"/>
      <point x="624.048" y="720" type="line"/>
    </contour>
  </outline>
</glyph>
<glyph name="uni0426" format="2">
  <advance width="600" height="985"/>
  <unicode hex="0426"/>
  <outline>
    <contour>
      <point x="40" y="0" type="line"/>
      <point x="445" y="0" type="line"/>
      <point x="422.824" y="-140" type="line"/>
      <point x="502.824" y="-140" type="line"/>
      <point x="537.672" y="80" type="line"/>
      <point x="462.672" y="80" type="line"/>
      <point x="564.048" y="720" type="line"/>
      <point x="474.048" y="720" type="line"/>
      <point x="372.672" y="80" type="line"/>
      <point x="142.672" y="80" type="line"/>
      <point x="244.048" y="720" type="line"/>
      <point x="154.048" y="720" type="line"/>
    </contour>
  </outline>
</glyph>
<glyph name="uni0429" format="2">
  <advance width="600" height="985"/>
  <unicode hex="0429"/>
  <outline>
    <contour>
      <point x="117.048" y="720" type="line" name="at01"/>
      <point x="3" y="0" type="line" name="ab01"/>
      <point x="445" y="0" type="line" name="ih01"/>
      <point x="422.824" y="-140" type="line"/>
      <point x="502.824" y="-140" type="line" name="dv01"/>
      <point x="537.038" y="76" type="line" name="sv01"/>
      <point x="499.038" y="76" type="line" name="dv02"/>
      <point x="601.048" y="720" type="line" name="at02"/>
      <point x="519.048" y="720" type="line" name="dh03"/>
      <point x="417.038" y="76" type="line" name="sv02"/>
      <point x="292.038" y="76" type="line" name="sv03"/>
      <point x="394.048" y="720" type="line" name="at03"/>
      <point x="324.048" y="720" type="line" name="dh02"/>
      <point x="222.038" y="76" type="line" name="sv04"/>
      <point x="97.0384" y="76" type="line" name="sv05"/>
      <point x="199.048" y="720" type="line" name="dh01"/>
    </contour>
  </outline>
</glyph>
<glyph name="uni042A" format="2">
  <advance width="600" height="985"/>
  <unicode hex="042A"/>
  <outline>
    <contour>
      <point x="46.0592" y="638" type="line" name="sv01"/>
      <point x="59.048" y="720" type="line" name="at01"/>
      <point x="289.048" y="720" type="line" name="dh01"/>
      <point x="242.795" y="428" type="line"/>
      <point x="362.795" y="428" type="line" smooth="yes" name="dv02"/>
      <point x="494.795" y="428"/>
      <point x="569.173" y="342"/>
      <point x="548.898" y="214" type="curve" smooth="yes" name="dh03"/>
      <point x="528.622" y="86"/>
      <point x="427" y="0"/>
      <point x="295" y="0" type="curve" smooth="yes" name="ab01"/>
      <point x="85" y="0" type="line" name="sh01"/>
      <point x="186.059" y="638" type="line"/>
    </contour>
    <contour>
      <point x="455.898" y="214" type="curve" smooth="yes" name="dh02"/>
      <point x="468.411" y="293"/>
      <point x="423.806" y="346"/>
      <point x="344.806" y="346" type="curve" smooth="yes" name="dv01"/>
      <point x="229.806" y="346" type="line" name="sh02"/>
      <point x="187.989" y="82" type="line"/>
      <point x="302.989" y="82" type="line" smooth="yes" name="sv02"/>
      <point x="380.989" y="82"/>
      <point x="443.542" y="136"/>
    </contour>
  </outline>
</glyph>
<glyph name="uni042D" format="2">
  <advance width="600" height="985"/>
  <unicode hex="042D"/>
  <outline>
    <contour>
      <point x="359.632" y="730" type="curve" smooth="yes"/>
      <point x="235.632" y="730"/>
      <point x="142.069" y="657"/>
      <point x="108.744" y="535" type="curve"/>
      <point x="198.744" y="535" type="line"/>
      <point x="218.149" y="607"/>
      <point x="273.96" y="650"/>
      <point x="346.96" y="650" type="curve" smooth="yes"/>
      <point x="426.96" y="650"/>
      <point x="468.882" y="599"/>
      <point x="455.576" y="515" type="curve" smooth="yes"/>
      <point x="406.472" y="205" type="line" smooth="yes"/>
      <point x="393.166" y="121"/>
      <point x="336.088" y="70"/>
      <point x="255.088" y="70" type="curve" smooth="yes"/>
      <point x="182.088" y="70"/>
      <point x="139.899" y="113"/>
      <point x="143.304" y="185" type="curve"/>
      <point x="53.304" y="185" type="line"/>
      <point x="47.9792" y="63"/>
      <point x="118.416" y="-10"/>
      <point x="242.416" y="-10" type="curve" smooth="yes"/>
      <point x="378.416" y="-10"/>
      <point x="475.088" y="70"/>
      <point x="495.68" y="200" type="curve" smooth="yes"/>
      <point x="546.368" y="520" type="line" smooth="yes"/>
      <point x="566.96" y="650"/>
      <point x="495.632" y="730"/>
    </contour>
    <contour>
      <point x="177.48" y="325" type="line"/>
      <point x="455.48" y="325" type="line"/>
      <point x="468.152" y="405" type="line"/>
      <point x="190.152" y="405" type="line"/>
    </contour>
  </outline>
</glyph>
<glyph name="uni042F" format="2">
  <advance width="600" height="985"/>
  <unicode hex="042F"/>
  <outline>
    <contour>
      <point x="344.048" y="720" type="curve" smooth="yes" name="at01"/>
      <point x="574.048" y="720" type="line"/>
      <point x="460" y="0" type="line" name="ab01"/>
      <point x="370" y="0" type="line" name="ah01"/>
      <point x="417.52" y="300" type="line" name="dv01"/>
      <point x="293.52" y="300" type="line"/>
      <point x="105" y="0" type="line" name="ab02"/>
      <point x="3" y="0" type="line"/>
      <point x="202.262" y="311" type="line"/>
      <point x="120.539" y="338"/>
      <point x="78.2608" y="412"/>
      <point x="93.784" y="510" type="curve" smooth="yes" name="sh01"/>
      <point x="113.584" y="635"/>
      <point x="214.048" y="720"/>
    </contour>
    <contour>
      <point x="186.784" y="510" type="curve" smooth="yes" name="sh02"/>
      <point x="174.429" y="432"/>
      <point x="215.192" y="380"/>
      <point x="290.192" y="380" type="curve" smooth="yes"/>
      <point x="430.192" y="380" type="line" name="dv02"/>
      <point x="471.376" y="640" type="line" name="sv01"/>
      <point x="331.376" y="640" type="line" smooth="yes"/>
      <point x="257.376" y="640"/>
      <point x="199.139" y="588"/>
    </contour>
  </outline>
</glyph>
<glyph name="uni0431" format="2">
  <advance width="600" height="985"/>
  <unicode hex="0431"/>
  <outline>
    <contour>
      <point x="425.936" y="290" type="curve" smooth="yes"/>
      <point x="412.472" y="205" type="line" smooth="yes"/>
      <point x="399.166" y="121"/>
      <point x="342.088" y="70"/>
      <point x="261.088" y="70" type="curve" smooth="yes"/>
      <point x="181.088" y="70"/>
      <point x="139.166" y="121"/>
      <point x="152.472" y="205" type="curve" smooth="yes"/>
      <point x="165.936" y="290" type="line" smooth="yes"/>
      <point x="179.242" y="374"/>
      <point x="237.32" y="425"/>
      <point x="317.32" y="425" type="curve" smooth="yes"/>
      <point x="398.32" y="425"/>
      <point x="439.242" y="374"/>
    </contour>
    <contour>
      <point x="100.488" y="445" type="curve" smooth="yes"/>
      <point x="62.472" y="205" type="line" smooth="yes"/>
      <point x="41.2464" y="71"/>
      <point x="111.416" y="-10"/>
      <point x="248.416" y="-10" type="curve" smooth="yes"/>
      <point x="386.416" y="-10"/>
      <point x="481.088" y="70"/>
      <point x="502.472" y="205" type="curve" smooth="yes"/>
      <point x="515.936" y="290" type="line" smooth="yes"/>
      <point x="536.686" y="421"/>
      <point x="477.2" y="500"/>
      <point x="359.2" y="500" type="curve" smooth="yes"/>
      <point x="229.2" y="500"/>
      <point x="193.36" y="400"/>
      <point x="193.36" y="400" type="curve"/>
      <point x="183.36" y="400" type="line"/>
      <point x="190.488" y="445" type="line" smooth="yes"/>
      <point x="209.496" y="565"/>
      <point x="288.376" y="640"/>
      <point x="396.376" y="640" type="curve" smooth="yes"/>
      <point x="546.376" y="640" type="line"/>
      <point x="560.632" y="730" type="line"/>
      <point x="410.632" y="730" type="line" smooth="yes"/>
      <point x="244.632" y="730"/>
      <point x="128.842" y="624"/>
    </contour>
  </outline>
</glyph>
<glyph name="uni0432" format="2">
  <advance width="600" height="985"/>
  <unicode hex="0432"/>
  <outline>
    <contour>
      <point x="203.606" y="471" type="line"/>
      <point x="361.606" y="471" type="line" smooth="yes"/>
      <point x="418.606" y="471"/>
      <point x="447.013" y="442"/>
      <point x="439.41" y="394" type="curve" smooth="yes"/>
      <point x="431.806" y="346"/>
      <point x="393.371" y="318"/>
      <point x="337.371" y="318" type="curve" smooth="yes"/>
      <point x="179.371" y="318" type="line"/>
    </contour>
    <contour>
      <point x="167.016" y="240" type="line"/>
      <point x="328.016" y="240" type="line" smooth="yes"/>
      <point x="392.016" y="240"/>
      <point x="423.422" y="211"/>
      <point x="415.186" y="159" type="curve" smooth="yes"/>
      <point x="407.107" y="108"/>
      <point x="366.514" y="79"/>
      <point x="302.514" y="79" type="curve" smooth="yes"/>
      <point x="231.514" y="79" type="line" smooth="yes"/>
      <point x="177.514" y="79"/>
      <point x="147.216" y="115"/>
      <point x="155.77" y="169" type="curve" smooth="yes"/>
    </contour>
    <contour>
      <point x="127.12" y="550" type="line"/>
      <point x="66.928" y="170" type="line" smooth="yes"/>
      <point x="50.7712" y="68"/>
      <point x="112" y="0"/>
      <point x="220" y="0" type="curve" smooth="yes"/>
      <point x="290" y="0" type="line"/>
      <point x="410.475" y="3"/>
      <point x="489.187" y="58"/>
      <point x="504.869" y="157" type="curve" smooth="yes"/>
      <point x="517.699" y="238"/>
      <point x="478.827" y="283"/>
      <point x="394.986" y="284" type="curve"/>
      <point x="395.936" y="290" type="line"/>
      <point x="470.57" y="294"/>
      <point x="520.222" y="336"/>
      <point x="530.994" y="404" type="curve" smooth="yes"/>
      <point x="545.566" y="496"/>
      <point x="488.12" y="550"/>
      <point x="374.12" y="550" type="curve" smooth="yes"/>
    </contour>
  </outline>
</glyph>
<glyph name="uni043C" format="2">
  <advance width="600" height="985"/>
  <unicode hex="043C"/>
  <outline>
    <contour>
      <point x="112.12" y="550" type="line" name="at01"/>
      <point x="226.12" y="550" type="line"/>
      <point x="272.43" y="331" type="line" smooth="yes"/>
      <point x="281.094" y="291"/>
      <point x="285.224" y="235"/>
      <point x="285.224" y="235" type="curve"/>
      <point x="293.224" y="235" type="line"/>
      <point x="293.224" y="235"/>
      <point x="311.094" y="291"/>
      <point x="331.43" y="331" type="curve" smooth="yes"/>
      <point x="442.12" y="550" type="line" name="at02"/>
      <point x="562.12" y="550" type="line"/>
      <point x="475" y="0" type="line" name="ab01"/>
      <point x="387" y="0" type="line" name="ah01"/>
      <point x="440.064" y="335" type="line" smooth="yes"/>
      <point x="451.152" y="405"/>
      <point x="474.082" y="474"/>
      <point x="474.082" y="474" type="curve" name="sh01"/>
      <point x="463.082" y="474" type="line"/>
      <point x="463.082" y="474"/>
      <point x="437.786" y="409"/>
      <point x="400.064" y="335" type="curve" smooth="yes"/>
      <point x="317.72" y="175" type="line"/>
      <point x="239.72" y="175" type="line"/>
      <point x="208.064" y="335" type="line" smooth="yes"/>
      <point x="191.37" y="419"/>
      <point x="186.24" y="475"/>
      <point x="186.24" y="475" type="curve" name="sh03"/>
      <point x="179.24" y="475" type="line"/>
      <point x="179.24" y="475"/>
      <point x="177.152" y="405"/>
      <point x="166.064" y="335" type="curve" smooth="yes" name="sh02"/>
      <point x="113" y="0" type="line" name="ab02"/>
      <point x="25" y="0" type="line"/>
    </contour>
  </outline>
</glyph>
<glyph name="uni0444" format="2">
  <advance width="600" height="985"/>
  <unicode hex="0444"/>
  <outline>
    <contour>
      <point x="61.232" y="355" type="curve" smooth="yes"/>
      <point x="39.3728" y="217" type="line" smooth="yes"/>
      <point x="19.7312" y="93"/>
      <point x="88.376" y="15"/>
      <point x="217.376" y="15" type="curve"/>
      <point x="211.04" y="-25" type="line" smooth="yes"/>
      <point x="203.912" y="-70"/>
      <point x="173.16" y="-100"/>
      <point x="134.16" y="-100" type="curve" smooth="yes"/>
      <point x="54.16" y="-100" type="line"/>
      <point x="43.072" y="-170" type="line"/>
      <point x="123.072" y="-170" type="line" smooth="yes"/>
      <point x="210.072" y="-170"/>
      <point x="278.259" y="-112"/>
      <point x="292.04" y="-25" type="curve" smooth="yes"/>
      <point x="298.376" y="15" type="line"/>
      <point x="426.376" y="15"/>
      <point x="519.731" y="93"/>
      <point x="539.373" y="217" type="curve" smooth="yes"/>
      <point x="561.232" y="355" type="line" smooth="yes"/>
      <point x="580.715" y="478"/>
      <point x="511.912" y="555"/>
      <point x="382.912" y="555" type="curve"/>
      <point x="386.872" y="580" type="line" smooth="yes"/>
      <point x="393.525" y="622"/>
      <point x="427.96" y="650"/>
      <point x="471.96" y="650" type="curve" smooth="yes"/>
      <point x="551.96" y="650" type="line"/>
      <point x="563.048" y="720" type="line"/>
      <point x="483.048" y="720" type="line" smooth="yes"/>
      <point x="386.048" y="720"/>
      <point x="320.97" y="669"/>
      <point x="307.03" y="581" type="curve" smooth="yes"/>
      <point x="302.912" y="555" type="line"/>
      <point x="173.912" y="555"/>
      <point x="80.7152" y="478"/>
    </contour>
    <contour>
      <point x="477.232" y="355" type="curve" smooth="yes"/>
      <point x="455.373" y="217" type="line" smooth="yes"/>
      <point x="442.701" y="137"/>
      <point x="385.622" y="86"/>
      <point x="307.622" y="86" type="curve"/>
      <point x="369.666" y="484" type="line"/>
      <point x="447.666" y="484"/>
      <point x="489.746" y="434"/>
    </contour>
    <contour>
      <point x="145.232" y="355" type="line" smooth="yes"/>
      <point x="157.746" y="434"/>
      <point x="215.666" y="484"/>
      <point x="293.666" y="484" type="curve"/>
      <point x="230.622" y="86" type="line"/>
      <point x="151.622" y="86"/>
      <point x="110.701" y="137"/>
      <point x="123.373" y="217" type="curve" smooth="yes"/>
    </contour>
  </outline>
</glyph>
<glyph name="uni0449" format="2">
  <advance width="600" height="985"/>
  <unicode hex="0449"/>
  <outline>
    <contour>
      <point x="97.12" y="550" type="line"/>
      <point x="181.12" y="550" type="line"/>
      <point x="119.978" y="164" type="line" smooth="yes"/>
      <point x="111.424" y="110"/>
      <point x="139.722" y="74"/>
      <point x="191.722" y="74" type="curve" smooth="yes"/>
      <point x="213.722" y="74" type="line"/>
      <point x="289.12" y="550" type="line"/>
      <point x="361.12" y="550" type="line"/>
      <point x="285.722" y="74" type="line"/>
      <point x="393.722" y="74" type="line"/>
      <point x="469.12" y="550" type="line"/>
      <point x="553.12" y="550" type="line"/>
      <point x="477.722" y="74" type="line"/>
      <point x="526.722" y="74" type="line"/>
      <point x="492.824" y="-140" type="line"/>
      <point x="404.824" y="-140" type="line"/>
      <point x="427" y="0" type="line"/>
      <point x="180" y="0" type="line" smooth="yes"/>
      <point x="75" y="0"/>
      <point x="19.9792" y="63"/>
      <point x="35.9776" y="164" type="curve" smooth="yes"/>
    </contour>
  </outline>
</glyph>
<glyph name="uni044C" format="2">
  <advance width="600" height="985"/>
  <unicode hex="044C"/>
  <outline>
    <contour>
      <point x="157.562" y="174" type="line" smooth="yes"/>
      <point x="148.058" y="114"/>
      <point x="180.672" y="80"/>
      <point x="249.672" y="80" type="curve" smooth="yes"/>
      <point x="312.672" y="80" type="line" smooth="yes"/>
      <point x="382.672" y="80"/>
      <point x="425.058" y="114"/>
      <point x="434.562" y="174" type="curve" smooth="yes"/>
      <point x="444.066" y="234"/>
      <point x="411.451" y="268"/>
      <point x="342.451" y="268" type="curve" smooth="yes"/>
      <point x="172.451" y="268" type="line"/>
    </contour>
    <contour>
      <point x="69.5616" y="174" type="curve" smooth="yes"/>
      <point x="129.12" y="550" type="line"/>
      <point x="217.12" y="550" type="line"/>
      <point x="185.123" y="348" type="line"/>
      <point x="360.123" y="348" type="line" smooth="yes"/>
      <point x="485.123" y="348"/>
      <point x="540.144" y="285"/>
      <point x="522.562" y="174" type="curve" smooth="yes"/>
      <point x="505.138" y="64"/>
      <point x="429" y="0"/>
      <point x="305" y="0" type="curve" smooth="yes"/>
      <point x="235" y="0" type="line" smooth="yes"/>
      <point x="111" y="0"/>
      <point x="52.1376" y="64"/>
    </contour>
  </outline>
</glyph>
<glyph name="uni0452" format="2">
  <advance width="600" height="985"/>
  <unicode hex="0452"/>
  <outline>
    <contour>
      <point x="153.632" y="730" type="line"/>
      <point x="137" y="625" type="line"/>
      <point x="69" y="625" type="line"/>
      <point x="57.12" y="550" type="line"/>
      <point x="125.12" y="550" type="line"/>
      <point x="38" y="0" type="line"/>
      <point x="128" y="0" type="line"/>
      <point x="176.312" y="305" type="line" smooth="yes"/>
      <point x="188.984" y="385"/>
      <point x="244.746" y="434"/>
      <point x="320.746" y="434" type="curve" smooth="yes"/>
      <point x="395.746" y="434"/>
      <point x="433.826" y="384"/>
      <point x="420.678" y="301" type="curve" smooth="yes"/>
      <point x="376.96" y="25" type="line" smooth="yes"/>
      <point x="365.872" y="-45"/>
      <point x="315.061" y="-88"/>
      <point x="244.061" y="-88" type="curve" smooth="yes"/>
      <point x="174.061" y="-88" type="line"/>
      <point x="161.072" y="-170" type="line"/>
      <point x="231.072" y="-170" type="line" smooth="yes"/>
      <point x="355.072" y="-170"/>
      <point x="448.269" y="-93"/>
      <point x="466.96" y="25" type="curve" smooth="yes"/>
      <point x="513.846" y="321" type="line"/>
      <point x="527.904" y="435"/>
      <point x="471.784" y="510"/>
      <point x="362.784" y="510" type="curve" smooth="yes"/>
      <point x="284.784" y="510"/>
      <point x="222.606" y="471"/>
      <point x="195.152" y="405" type="curve"/>
      <point x="187.152" y="405" type="line"/>
      <point x="187.152" y="405"/>
      <point x="201.339" y="463"/>
      <point x="207.2" y="500" type="curve" smooth="yes"/>
      <point x="215.12" y="550" type="line"/>
      <point x="317.12" y="550" type="line"/>
      <point x="329" y="625" type="line"/>
      <point x="227" y="625" type="line"/>
      <point x="243.632" y="730" type="line"/>
    </contour>
  </outline>
</glyph>
<glyph name="uni0454" format="2">
  <advance width="600" height="985"/>
  <unicode hex="0454"/>
  <outline>
    <contour>
      <point x="522.984" y="385" type="curve"/>
      <point x="432.984" y="385" type="line"/>
      <point x="429.33" y="444"/>
      <point x="385.032" y="480"/>
      <point x="318.032" y="480" type="curve" smooth="yes"/>
      <point x="238.032" y="480"/>
      <point x="179.954" y="429"/>
      <point x="166.648" y="345" type="curve" smooth="yes"/>
      <point x="144.472" y="205" type="line" smooth="yes"/>
      <point x="131.166" y="121"/>
      <point x="172.088" y="70"/>
      <point x="253.088" y="70" type="curve" smooth="yes"/>
      <point x="320.088" y="70"/>
      <point x="375.79" y="106"/>
      <point x="398.136" y="165" type="curve"/>
      <point x="488.136" y="165" type="line"/>
      <point x="450.554" y="54"/>
      <point x="359.416" y="-10"/>
      <point x="240.416" y="-10" type="curve" smooth="yes"/>
      <point x="100.416" y="-10"/>
      <point x="32.4544" y="66"/>
      <point x="53.68" y="200" type="curve" smooth="yes"/>
      <point x="77.44" y="350" type="line" smooth="yes"/>
      <point x="97.7152" y="478"/>
      <point x="196.704" y="560"/>
      <point x="330.704" y="560" type="curve" smooth="yes"/>
      <point x="451.704" y="560"/>
      <point x="520.883" y="498"/>
    </contour>
    <contour>
      <point x="359.688" y="320" type="line"/>
      <point x="347.016" y="240" type="line"/>
      <point x="60.016" y="240" type="line"/>
      <point x="72.688" y="320" type="line"/>
    </contour>
  </outline>
</glyph>
<glyph name="uni0491" format="2">
  <advance width="600" height="985"/>
  <unicode hex="0491"/>
  <outline>
    <contour>
      <point x="487.12" y="550" type="line"/>
      <point x="503.752" y="655" type="line"/>
      <point x="588.752" y="655" type="line"/>
      <point x="559.131" y="468" type="line"/>
      <point x="219.131" y="468" type="line"/>
      <point x="145" y="0" type="line"/>
      <point x="55" y="0" type="line"/>
      <point x="142.12" y="550" type="line"/>
    </contour>
  </outline>
</glyph>
<glyph name="uni04E8" format="2">
  <advance width="600"/>
  <unicode hex="04E8"/>
  <outline>
    <contour>
      <point x="248.416" y="-10" type="curve" smooth="yes"/>
      <point x="382.416" y="-10"/>
      <point x="481.88" y="75"/>
      <point x="502.472" y="205" type="curve" smooth="yes"/>
      <point x="551.576" y="515" type="line" smooth="yes"/>
      <point x="572.326" y="646"/>
      <point x="500.632" y="730"/>
      <point x="365.632" y="730" type="curve" smooth="yes"/>
      <point x="230.632" y="730"/>
      <point x="132.326" y="646"/>
      <point x="111.576" y="515" type="curve" smooth="yes"/>
      <point x="62.472" y="205" type="line" smooth="yes"/>
      <point x="41.7216" y="74"/>
      <point x="113.416" y="-10"/>
    </contour>
    <contour>
      <point x="430.688" y="320" type="line"/>
      <point x="412.472" y="205" type="line" smooth="yes"/>
      <point x="399.483" y="123"/>
      <point x="340.088" y="70"/>
      <point x="261.088" y="70" type="curve" smooth="yes"/>
      <point x="182.088" y="70"/>
      <point x="139.483" y="123"/>
      <point x="152.472" y="205" type="curve" smooth="yes"/>
      <point x="170.688" y="320" type="line"/>
    </contour>
    <contour>
      <point x="184.152" y="405" type="line"/>
      <point x="201.576" y="515" type="line" smooth="yes"/>
      <point x="214.565" y="597"/>
      <point x="273.96" y="650"/>
      <point x="352.96" y="650" type="curve" smooth="yes"/>
      <point x="431.96" y="650"/>
      <point x="474.565" y="597"/>
      <point x="461.576" y="515" type="curve" smooth="yes"/>
      <point x="444.152" y="405" type="line"/>
    </contour>
  </outline>
</glyph>
<glyph name="quoteright" format="2">
  <advance width="600" height="975"/>
  <unicode hex="2019"/>
  <outline>
    <contour>
      <point x="431" y="776" type="line"/>
      <point x="252" y="465" type="line"/>
      <point x="172" y="465" type="line"/>
      <point x="301" y="776" type="line"/>
    </contour>
  </outline>
</glyph>
<glyph name="quotedblright" format="2">
  <advance width="600" height="975"/>
  <unicode hex="201D"/>
  <outline>
    <contour>
      <point x="579" y="776" type="line"/>
      <point x="400" y="465" type="line"/>
      <point x="320" y="465" type="line"/>
      <point x="449" y="776" type="line"/>
    </contour>
    <contour>
      <point x="304" y="776" type="line"/>
      <point x="125" y="465" type="line"/>
      <point x="45" y="465" type="line"/>
      <point x="174" y="776" type="line"/>
    </contour>
  </outline>
</glyph>
<glyph name="ellipsis" format="2">
  <advance width="600" height="975"/>
  <unicode hex="2026"/>
  <outline>
    <contour>
      <point x="61.216" y="115" type="line" smooth="yes"/>
      <point x="66.4432" y="148"/>
      <point x="89.928" y="170"/>
      <point x="119.928" y="170" type="curve" smooth="yes"/>
      <point x="149.928" y="170"/>
      <point x="166.443" y="148"/>
      <point x="161.216" y="115" type="curve" smooth="yes"/>
      <point x="150.128" y="45" type="line" smooth="yes"/>
      <point x="144.901" y="12"/>
      <point x="121.416" y="-10"/>
      <point x="91.416" y="-10" type="curve" smooth="yes"/>
      <point x="61.416" y="-10"/>
      <point x="44.9008" y="12"/>
      <point x="50.128" y="45" type="curve" smooth="yes"/>
    </contour>
    <contour>
      <point x="251.216" y="115" type="line" smooth="yes"/>
      <point x="256.443" y="148"/>
      <point x="279.928" y="170"/>
      <point x="309.928" y="170" type="curve" smooth="yes"/>
      <point x="339.928" y="170"/>
      <point x="356.443" y="148"/>
      <point x="351.216" y="115" type="curve" smooth="yes"/>
      <point x="340.128" y="45" type="line" smooth="yes"/>
      <point x="334.901" y="12"/>
      <point x="311.416" y="-10"/>
      <point x="281.416" y="-10" type="curve" smooth="yes"/>
      <point x="251.416" y="-10"/>
      <point x="234.901" y="12"/>
      <point x="240.128" y="45" type="curve" smooth="yes"/>
    </contour>
    <contour>
      <point x="441.216" y="115" type="line" smooth="yes"/>
      <point x="446.443" y="148"/>
      <point x="469.928" y="170"/>
      <point x="499.928" y="170" type="curve" smooth="yes"/>
      <point x="529.928" y="170"/>
      <point x="546.443" y="148"/>
      <point x="541.216" y="115" type="curve" smooth="yes"/>
      <point x="530.128" y="45" type="line" smooth="yes"/>
      <point x="524.901" y="12"/>
      <point x="501.416" y="-10"/>
      <point x="471.416" y="-10" type="curve" smooth="yes"/>
      <point x="441.416" y="-10"/>
      <point x="424.901" y="12"/>
      <point x="430.128" y="45" type="curve" smooth="yes"/>
    </contour>
  </outline>
</glyph>
<glyph name="guilsinglleft" format="2">
  <advance width="600" height="975"/>
  <unicode hex="2039"/>
  <outline>
    <contour>
      <point x="150.352" y="280" type="line"/>
      <point x="314.336" y="40" type="line"/>
      <point x="416.336" y="40" type="line"/>
      <point x="271.65" y="244" type="line" smooth="yes"/>
      <point x="254.451" y="268"/>
      <point x="244.194" y="279"/>
      <point x="244.194" y="279" type="curve"/>
      <point x="244.51" y="281" type="line"/>
      <point x="244.51" y="281"/>
      <point x="270.094" y="291"/>
      <point x="295.054" y="316" type="curve" smooth="yes"/>
      <point x="498.368" y="520" type="line"/>
      <point x="389.368" y="520" type="line"/>
    </contour>
  </outline>
</glyph>
<glyph name="guilsinglright" format="2">
  <advance width="600" height="975"/>
  <unicode hex="203A"/>
  <outline>
    <contour>
      <point x="447.352" y="280" type="line"/>
      <point x="211.336" y="40" type="line"/>
      <point x="102.336" y="40" type="line"/>
      <point x="305.65" y="244" type="line" smooth="yes"/>
      <point x="329.451" y="268"/>
      <point x="355.194" y="279"/>
      <point x="355.194" y="279" type="curve"/>
      <point x="355.51" y="281" type="line"/>
      <point x="355.51" y="281"/>
      <point x="344.094" y="291"/>
      <point x="327.054" y="316" type="curve" smooth="yes"/>
      <point x="182.368" y="520" type="line"/>
      <point x="284.368" y="520" type="line"/>
    </contour>
  </outline>
</glyph>
<glyph name="uni2074" format="2">
  <advance width="600" height="985"/>
  <unicode hex="2074"/>
  <outline>
    <contour>
      <point x="267.526" y="576" type="line"/>
      <point x="264.992" y="560" type="line"/>
      <point x="380.992" y="560" type="line"/>
      <point x="393.506" y="639" type="line"/>
      <point x="453.506" y="639" type="line"/>
      <point x="421.984" y="440" type="line"/>
      <point x="361.984" y="440" type="line"/>
      <point x="373.072" y="510" type="line"/>
      <point x="197.072" y="510" type="line"/>
      <point x="210.378" y="594" type="line"/>
      <point x="363.464" y="765" type="line"/>
      <point x="432.464" y="765" type="line"/>
    </contour>
  </outline>
</glyph>
<glyph name="uni207A" format="2">
  <advance width="600"/>
  <unicode hex="207A"/>
  <outline>
    <contour>
      <point x="340" y="585" type="line" name="av02"/>
      <point x="340" y="480" type="line"/>
      <point x="440" y="480" type="line" name="dv02"/>
      <point x="440" y="410" type="line" name="dv01"/>
      <point x="340" y="410" type="line"/>
      <point x="340" y="305" type="line" name="av01"/>
      <point x="260" y="305" type="line" name="dh01"/>
      <point x="260" y="410" type="line" name="sv01"/>
      <point x="160" y="410" type="line"/>
      <point x="160" y="480" type="line" name="sv02"/>
      <point x="260" y="480" type="line" name="sh01"/>
      <point x="260" y="585" type="line" name="mh01"/>
    </contour>
  </outline>
</glyph>
<glyph name="uni2084" format="2">
  <advance width="600" height="985"/>
  <unicode hex="2084"/>
  <outline>
    <contour>
      <point x="267.526" y="91" type="line"/>
      <point x="264.992" y="75" type="line"/>
      <point x="380.992" y="75" type="line"/>
      <point x="393.506" y="154" type="line"/>
      <point x="453.506" y="154" type="line"/>
      <point x="421.984" y="-45" type="line"/>
      <point x="361.984" y="-45" type="line"/>
      <point x="373.072" y="25" type="line"/>
      <point x="197.072" y="25" type="line"/>
      <point x="210.378" y="109" type="line"/>
      <point x="363.464" y="280" type="line"/>
      <point x="432.464" y="280" type="line"/>
    </contour>
  </outline>
</glyph>
<glyph name="Euro" format="2">
  <advance width="600" height="975"/>
  <unicode hex="20AC"/>
  <outline>
    <component base="C" xOffset="10"/>
    <contour>
      <point x="49.448" y="470" type="line"/>
      <point x="369.448" y="470" type="line"/>
      <point x="359.944" y="410" type="line"/>
      <point x="39.944" y="410" type="line"/>
    </contour>
    <contour>
      <point x="24.104" y="310" type="line"/>
      <point x="344.104" y="310" type="line"/>
      <point x="334.6" y="250" type="line"/>
      <point x="14.6" y="250" type="line"/>
    </contour>
  </outline>
</glyph>
<glyph name="uni20AE" format="2">
  <advance width="600"/>
  <unicode hex="20AE"/>
  <outline>
    <contour>
      <point x="109.048" y="720" type="line"/>
      <point x="619.048" y="720" type="line"/>
      <point x="606.534" y="641" type="line"/>
      <point x="395.534" y="641" type="line"/>
      <point x="366.389" y="457" type="line"/>
      <point x="549.992" y="505" type="line"/>
      <point x="538.112" y="430" type="line"/>
      <point x="354.509" y="382" type="line"/>
      <point x="338.669" y="282" type="line"/>
      <point x="522.272" y="330" type="line"/>
      <point x="510.392" y="255" type="line"/>
      <point x="326.789" y="207" type="line"/>
      <point x="294" y="0" type="line"/>
      <point x="206" y="0" type="line"/>
      <point x="234.987" y="183" type="line"/>
      <point x="51.384" y="135" type="line"/>
      <point x="63.264" y="210" type="line"/>
      <point x="246.867" y="258" type="line"/>
      <point x="262.707" y="358" type="line"/>
      <point x="79.104" y="310" type="line"/>
      <point x="90.984" y="385" type="line"/>
      <point x="274.587" y="433" type="line"/>
      <point x="307.534" y="641" type="line"/>
      <point x="96.5344" y="641" type="line"/>
    </contour>
  </outline>
</glyph>
<glyph name="uni20BD" format="2">
  <advance width="600"/>
  <unicode hex="20BD"/>
  <outline>
    <contour>
      <point x="174.048" y="720" type="line"/>
      <point x="397.048" y="720" type="line" smooth="yes"/>
      <point x="528.048" y="720"/>
      <point x="601.218" y="639"/>
      <point x="581.576" y="515" type="curve" smooth="yes"/>
      <point x="562.093" y="392"/>
      <point x="463.104" y="310"/>
      <point x="332.104" y="310" type="curve" smooth="yes"/>
      <point x="199.104" y="310" type="line"/>
      <point x="185.64" y="225" type="line"/>
      <point x="415.64" y="225" type="line"/>
      <point x="402.968" y="145" type="line"/>
      <point x="172.968" y="145" type="line"/>
      <point x="150" y="0" type="line"/>
      <point x="60" y="0" type="line"/>
      <point x="82.968" y="145" type="line"/>
      <point x="2.968" y="145" type="line"/>
      <point x="15.64" y="225" type="line"/>
      <point x="95.64" y="225" type="line"/>
      <point x="109.104" y="310" type="line"/>
      <point x="29.104" y="310" type="line"/>
      <point x="41.776" y="390" type="line"/>
      <point x="121.776" y="390" type="line"/>
    </contour>
    <contour>
      <point x="251.376" y="640" type="line"/>
      <point x="211.776" y="390" type="line"/>
      <point x="344.776" y="390" type="line" smooth="yes"/>
      <point x="420.776" y="390"/>
      <point x="476.538" y="439"/>
      <point x="488.576" y="515" type="curve" smooth="yes"/>
      <point x="500.614" y="591"/>
      <point x="460.376" y="640"/>
      <point x="384.376" y="640" type="curve" smooth="yes"/>
    </contour>
  </outline>
</glyph>
<glyph name="uni2113" format="2">
  <advance width="600" height="985"/>
  <unicode hex="2113"/>
  <outline>
    <contour>
      <point x="385.632" y="730" type="curve" smooth="yes"/>
      <point x="292.632" y="730"/>
      <point x="220.811" y="668"/>
      <point x="206.08" y="575" type="curve" smooth="yes"/>
      <point x="142.344" y="160" type="line" smooth="yes"/>
      <point x="126.662" y="61"/>
      <point x="180" y="0"/>
      <point x="282" y="0" type="curve" smooth="yes"/>
      <point x="394" y="0"/>
      <point x="460.998" y="101"/>
      <point x="460.998" y="101" type="curve"/>
      <point x="399.651" y="143" type="line"/>
      <point x="399.651" y="143"/>
      <point x="350.989" y="82"/>
      <point x="294.989" y="82" type="curve" smooth="yes"/>
      <point x="248.989" y="82"/>
      <point x="224.582" y="111"/>
      <point x="232.344" y="160" type="curve" smooth="yes"/>
      <point x="296.08" y="575" type="line" smooth="yes"/>
      <point x="303.05" y="619"/>
      <point x="333.643" y="648"/>
      <point x="372.643" y="648" type="curve" smooth="yes"/>
      <point x="410.643" y="648"/>
      <point x="432.05" y="619"/>
      <point x="426.08" y="575" type="curve" smooth="yes"/>
      <point x="418.368" y="520" type="line" smooth="yes"/>
      <point x="408.28" y="450"/>
      <point x="360.568" y="395"/>
      <point x="288.45" y="369" type="curve" smooth="yes"/>
      <point x="60.6192" y="288" type="line"/>
      <point x="77.7888" y="207" type="line"/>
      <point x="303.936" y="290" type="line" smooth="yes"/>
      <point x="413.272" y="330"/>
      <point x="491.211" y="418"/>
      <point x="507.526" y="521" type="curve" smooth="yes"/>
      <point x="516.08" y="575" type="line" smooth="yes"/>
      <point x="530.811" y="668"/>
      <point x="478.632" y="730"/>
    </contour>
  </outline>
</glyph>
<glyph name="estimated" format="2">
  <advance width="600" height="985"/>
  <unicode hex="212E"/>
  <outline>
    <contour>
      <point x="365.632" y="730" type="curve" smooth="yes"/>
      <point x="222.632" y="730"/>
      <point x="109" y="625"/>
      <point x="84.448" y="470" type="curve" smooth="yes"/>
      <point x="49.6" y="250" type="line" smooth="yes"/>
      <point x="25.048" y="95"/>
      <point x="105.416" y="-10"/>
      <point x="248.416" y="-10" type="curve" smooth="yes"/>
      <point x="352.416" y="-10"/>
      <point x="453.237" y="52"/>
      <point x="499.968" y="145" type="curve"/>
      <point x="449.968" y="145" type="line"/>
      <point x="412.514" y="79"/>
      <point x="334.544" y="35"/>
      <point x="255.544" y="35" type="curve" smooth="yes"/>
      <point x="153.544" y="35"/>
      <point x="125.84" y="100"/>
      <point x="125.84" y="100" type="curve" smooth="yes"/>
      <point x="208.208" y="620" type="line" smooth="yes"/>
      <point x="208.208" y="620"/>
      <point x="256.504" y="685"/>
      <point x="358.504" y="685" type="curve" smooth="yes"/>
      <point x="460.504" y="685"/>
      <point x="488.208" y="620"/>
      <point x="488.208" y="620" type="curve" smooth="yes"/>
      <point x="453.518" y="401" type="line"/>
      <point x="461.786" y="409" type="line"/>
      <point x="144.786" y="409" type="line"/>
      <point x="136.866" y="359" type="line"/>
      <point x="546.866" y="359" type="line"/>
      <point x="564.448" y="470" type="line" smooth="yes"/>
      <point x="589.317" y="627"/>
      <point x="510.632" y="730"/>
    </contour>
  </outline>
</glyph>
<glyph name="arrowup" format="2">
  <advance width="600"/>
  <unicode hex="2191"/>
  <outline>
    <contour>
      <point x="301" y="730" type="line"/>
      <point x="10" y="483" type="line"/>
      <point x="10" y="378" type="line"/>
      <point x="195" y="536" type="line" smooth="yes"/>
      <point x="235" y="570"/>
      <point x="250" y="590"/>
      <point x="250" y="590" type="curve"/>
      <point x="260" y="590" type="line"/>
      <point x="260" y="590"/>
      <point x="255" y="550"/>
      <point x="255" y="510" type="curve" smooth="yes"/>
      <point x="255" y="0" type="line"/>
      <point x="345" y="0" type="line"/>
      <point x="345" y="510" type="line" smooth="yes"/>
      <point x="345" y="550"/>
      <point x="340" y="590"/>
      <point x="340" y="590" type="curve"/>
      <point x="350" y="590" type="line"/>
      <point x="350" y="590"/>
      <point x="364" y="571"/>
      <point x="404" y="537" type="curve" smooth="yes"/>
      <point x="590" y="379" type="line"/>
      <point x="590" y="484" type="line"/>
    </contour>
  </outline>
</glyph>
<glyph name="arrowupdn" format="2">
  <advance width="600"/>
  <unicode hex="2195"/>
  <outline>
    <contour>
      <point x="10" y="643" type="line"/>
      <point x="10" y="538" type="line"/>
      <point x="195" y="696" type="line" smooth="yes"/>
      <point x="235" y="730"/>
      <point x="250" y="750"/>
      <point x="250" y="750" type="curve"/>
      <point x="260" y="750" type="line"/>
      <point x="260" y="750"/>
      <point x="255" y="710"/>
      <point x="255" y="670" type="curve" smooth="yes"/>
      <point x="255" y="50" type="line" smooth="yes"/>
      <point x="255" y="10"/>
      <point x="260" y="-30"/>
      <point x="260" y="-30" type="curve"/>
      <point x="250" y="-30" type="line"/>
      <point x="250" y="-30"/>
      <point x="236" y="-11"/>
      <point x="196" y="23" type="curve" smooth="yes"/>
      <point x="10" y="181" type="line"/>
      <point x="10" y="76" type="line"/>
      <point x="300" y="-170" type="line"/>
      <point x="590" y="77" type="line"/>
      <point x="590" y="182" type="line"/>
      <point x="405" y="24" type="line" smooth="yes"/>
      <point x="365" y="-10"/>
      <point x="350" y="-30"/>
      <point x="350" y="-30" type="curve"/>
      <point x="340" y="-30" type="line"/>
      <point x="340" y="-30"/>
      <point x="345" y="10"/>
      <point x="345" y="50" type="curve" smooth="yes"/>
      <point x="345" y="670" type="line" smooth="yes"/>
      <point x="345" y="710"/>
      <point x="340" y="750"/>
      <point x="340" y="750" type="curve"/>
      <point x="350" y="750" type="line"/>
      <point x="350" y="750"/>
      <point x="364" y="731"/>
      <point x="404" y="697" type="curve" smooth="yes"/>
      <point x="590" y="539" type="line"/>
      <point x="590" y="644" type="line"/>
      <point x="300" y="890" type="line"/>
    </contour>
  </outline>
</glyph>
<glyph name="uni2198" format="2">
  <advance width="600"/>
  <unicode hex="2198"/>
  <outline>
    <contour>
      <point x="140" y="75" type="line"/>
      <point x="555" y="75" type="line"/>
      <point x="555" y="490" type="line"/>
      <point x="475" y="490" type="line"/>
      <point x="475" y="291" type="line" smooth="yes"/>
      <point x="475" y="246"/>
      <point x="483" y="206"/>
      <point x="483" y="206" type="curve"/>
      <point x="476" y="204" type="line"/>
      <point x="476" y="204"/>
      <point x="452" y="236"/>
      <point x="426" y="262" type="curve" smooth="yes"/>
      <point x="71" y="620" type="line"/>
      <point x="10" y="557" type="line"/>
      <point x="363" y="201" type="line" smooth="yes"/>
      <point x="387" y="177"/>
      <point x="416" y="155"/>
      <point x="416" y="155" type="curve"/>
      <point x="415" y="148" type="line"/>
      <point x="415" y="148"/>
      <point x="380" y="153"/>
      <point x="335" y="153" type="curve" smooth="yes"/>
      <point x="140" y="153" type="line"/>
    </contour>
  </outline>
</glyph>
<glyph name="universal" format="2">
  <advance width="600"/>
  <unicode hex="2200"/>
  <outline>
    <contour>
      <point x="310" y="0" type="line" name="at01"/>
      <point x="184" y="0" type="line"/>
      <point x="108.048" y="720" type="line" name="ab01"/>
      <point x="204.048" y="720" type="line"/>
      <point x="221.893" y="517" type="line" name="dv01"/>
      <point x="442.893" y="517" type="line"/>
      <point x="526.048" y="720" type="line" name="ab02"/>
      <point x="620.048" y="720" type="line"/>
    </contour>
    <contour>
      <point x="412.013" y="442" type="line"/>
      <point x="228.013" y="442" type="line" name="dv02"/>
      <point x="252.869" y="157" type="line" smooth="yes"/>
      <point x="257.998" y="101"/>
      <point x="256.504" y="60"/>
      <point x="256.504" y="60" type="curve"/>
      <point x="260.504" y="60" type="line"/>
      <point x="260.504" y="60"/>
      <point x="272.998" y="101"/>
      <point x="295.869" y="157" type="curve" smooth="yes"/>
    </contour>
  </outline>
</glyph>
<glyph name="partialdiff" format="2">
  <advance width="600" height="985"/>
  <unicode hex="2202"/>
  <outline>
    <contour>
      <point x="164.352" y="280" type="line" smooth="yes"/>
      <point x="178.45" y="369"/>
      <point x="236.162" y="424"/>
      <point x="317.162" y="424" type="curve" smooth="yes"/>
      <point x="397.162" y="424"/>
      <point x="438.45" y="369"/>
      <point x="424.51" y="281" type="curve" smooth="yes"/>
      <point x="411.68" y="200" type="line" smooth="yes"/>
      <point x="398.85" y="119"/>
      <point x="342.088" y="70"/>
      <point x="261.088" y="70" type="curve" smooth="yes"/>
      <point x="180.088" y="70"/>
      <point x="138.85" y="119"/>
      <point x="151.68" y="200" type="curve" smooth="yes"/>
    </contour>
    <contour>
      <point x="519.896" y="315" type="line" smooth="yes"/>
      <point x="536.845" y="422"/>
      <point x="516.051" y="518"/>
      <point x="460.456" y="590" type="curve" smooth="yes"/>
      <point x="352.632" y="730" type="line"/>
      <point x="245.632" y="730" type="line"/>
      <point x="363.397" y="577" type="line" smooth="yes"/>
      <point x="441.24" y="475"/>
      <point x="445.102" y="411"/>
      <point x="445.102" y="411" type="curve"/>
      <point x="430.102" y="411" type="line"/>
      <point x="430.102" y="411"/>
      <point x="420.2" y="500"/>
      <point x="299.2" y="500" type="curve" smooth="yes"/>
      <point x="179.2" y="500"/>
      <point x="98.4288" y="432"/>
      <point x="74.5104" y="281" type="curve" smooth="yes"/>
      <point x="61.68" y="200" type="line" smooth="yes"/>
      <point x="41.088" y="70"/>
      <point x="113.416" y="-10"/>
      <point x="248.416" y="-10" type="curve" smooth="yes"/>
      <point x="385.416" y="-10"/>
      <point x="481.088" y="70"/>
      <point x="501.68" y="200" type="curve" smooth="yes"/>
    </contour>
  </outline>
</glyph>
<glyph name="existential" format="2">
  <advance width="600"/>
  <unicode hex="2203"/>
  <outline>
    <contour>
      <point x="570.048" y="720" type="line" name="at01"/>
      <point x="145.048" y="720" type="line"/>
      <point x="132.059" y="638" type="line" name="sv01"/>
      <point x="467.059" y="638" type="line" name="dh01"/>
      <point x="431.261" y="412" type="line"/>
      <point x="131.261" y="412" type="line" name="dv02"/>
      <point x="118.272" y="330" type="line" name="dv01"/>
      <point x="418.272" y="330" type="line" name="sh01"/>
      <point x="378.989" y="82" type="line" name="sv02"/>
      <point x="43.9888" y="82" type="line"/>
      <point x="31" y="0" type="line" name="ab01"/>
      <point x="456" y="0" type="line"/>
    </contour>
  </outline>
</glyph>
<glyph name="notelement" format="2">
  <advance width="600"/>
  <unicode hex="2209"/>
  <outline>
    <contour>
      <point x="530.552" y="780" type="line"/>
      <point x="591.552" y="780" type="line"/>
      <point x="153.496" y="-60" type="line"/>
      <point x="92.496" y="-60" type="line"/>
    </contour>
    <contour>
      <point x="622.96" y="650" type="line" name="dh01"/>
      <point x="610.288" y="570" type="line" name="dh02"/>
      <point x="305.288" y="570" type="line" smooth="yes"/>
      <point x="226.288" y="570"/>
      <point x="154.834" y="504"/>
      <point x="143.112" y="430" type="curve" smooth="yes"/>
      <point x="138.36" y="400" type="line"/>
      <point x="583.36" y="400" type="line" name="sv04"/>
      <point x="570.688" y="320" type="line" name="dv03"/>
      <point x="125.688" y="320" type="line"/>
      <point x="120.936" y="290" type="line" smooth="yes" name="sv03"/>
      <point x="109.214" y="216"/>
      <point x="159.76" y="150"/>
      <point x="238.76" y="150" type="curve" smooth="yes"/>
      <point x="543.76" y="150" type="line" name="dh03"/>
      <point x="531.088" y="70" type="line" name="dh04"/>
      <point x="226.088" y="70" type="line" smooth="yes"/>
      <point x="101.088" y="70"/>
      <point x="10.9776" y="164"/>
      <point x="30.6192" y="288" type="curve" smooth="yes" name="sv01"/>
      <point x="53.4288" y="432" type="line" smooth="yes" name="dv01"/>
      <point x="73.0704" y="556"/>
      <point x="192.96" y="650"/>
      <point x="317.96" y="650" type="curve" smooth="yes"/>
    </contour>
  </outline>
</glyph>
<glyph name="uni2210" format="2">
  <advance width="600"/>
  <unicode hex="2210"/>
  <outline>
    <contour>
      <point x="40" y="0" type="line" name="at01"/>
      <point x="460" y="0" type="line" name="sh01"/>
      <point x="574.048" y="720" type="line"/>
      <point x="484.048" y="720" type="line" name="ab02"/>
      <point x="382.989" y="82" type="line" name="ah01"/>
      <point x="142.989" y="82" type="line" name="sv01"/>
      <point x="244.048" y="720" type="line"/>
      <point x="154.048" y="720" type="line" name="ab01"/>
    </contour>
  </outline>
</glyph>
<glyph name="summation" format="2">
  <advance width="600" height="985"/>
  <unicode hex="2211"/>
  <outline>
    <contour>
      <point x="-8.9392" y="-88" type="line"/>
      <point x="-21.928" y="-170" type="line"/>
      <point x="463.072" y="-170" type="line"/>
      <point x="475.744" y="-90" type="line"/>
      <point x="175.744" y="-90" type="line"/>
      <point x="103.269" y="-93" type="line"/>
      <point x="103.586" y="-91" type="line"/>
      <point x="424.482" y="224" type="line"/>
      <point x="440.797" y="327" type="line"/>
      <point x="211.534" y="641" type="line"/>
      <point x="211.851" y="643" type="line"/>
      <point x="283.376" y="640" type="line"/>
      <point x="591.376" y="640" type="line"/>
      <point x="604.048" y="720" type="line"/>
      <point x="119.048" y="720" type="line"/>
      <point x="106.059" y="638" type="line"/>
      <point x="361.669" y="282" type="line"/>
    </contour>
  </outline>
</glyph>
<glyph name="radical" format="2">
  <advance width="600" height="985"/>
  <unicode hex="221A"/>
  <outline>
    <contour>
      <point x="4.448" y="470" type="line"/>
      <point x="17.12" y="550" type="line"/>
      <point x="190.12" y="550" type="line"/>
      <point x="227.502" y="161" type="line" smooth="yes"/>
      <point x="232.84" y="100"/>
      <point x="225.296" y="65"/>
      <point x="225.296" y="65" type="curve"/>
      <point x="234.296" y="65" type="line"/>
      <point x="234.296" y="65"/>
      <point x="237.998" y="101"/>
      <point x="264.502" y="161" type="curve" smooth="yes"/>
      <point x="514.632" y="730" type="line"/>
      <point x="600.632" y="730" type="line"/>
      <point x="273" y="0" type="line"/>
      <point x="168" y="0" type="line"/>
      <point x="115.448" y="470" type="line"/>
    </contour>
  </outline>
</glyph>
<glyph name="infinity" format="2">
  <advance width="600" height="985"/>
  <unicode hex="221E"/>
  <outline>
    <contour>
      <point x="201.992" y="505" type="curve" smooth="yes"/>
      <point x="119.992" y="505"/>
      <point x="56.4384" y="451"/>
      <point x="43.608" y="370" type="curve" smooth="yes"/>
      <point x="31.728" y="295" type="line" smooth="yes"/>
      <point x="18.8976" y="214"/>
      <point x="62.344" y="160"/>
      <point x="141.344" y="160" type="curve" smooth="yes"/>
      <point x="241.344" y="160"/>
      <point x="278.026" y="259"/>
      <point x="278.026" y="259" type="curve"/>
      <point x="281.026" y="259" type="line"/>
      <point x="293.888" y="195"/>
      <point x="335.344" y="160"/>
      <point x="403.344" y="160" type="curve" smooth="yes"/>
      <point x="485.344" y="160"/>
      <point x="548.898" y="214"/>
      <point x="561.728" y="295" type="curve" smooth="yes"/>
      <point x="573.608" y="370" type="line" smooth="yes"/>
      <point x="586.438" y="451"/>
      <point x="542.992" y="505"/>
      <point x="463.992" y="505" type="curve" smooth="yes"/>
      <point x="363.992" y="505"/>
      <point x="327.31" y="406"/>
      <point x="327.31" y="406" type="curve"/>
      <point x="324.31" y="406" type="line"/>
      <point x="311.448" y="470"/>
      <point x="269.992" y="505"/>
    </contour>
    <contour>
      <point x="445.488" y="445" type="curve" smooth="yes"/>
      <point x="487.488" y="445"/>
      <point x="510.736" y="415"/>
      <point x="503.608" y="370" type="curve" smooth="yes"/>
      <point x="491.728" y="295" type="line" smooth="yes"/>
      <point x="484.6" y="250"/>
      <point x="451.848" y="220"/>
      <point x="409.848" y="220" type="curve" smooth="yes"/>
      <point x="380.848" y="220"/>
      <point x="361.541" y="237"/>
      <point x="352.085" y="272" type="curve"/>
      <point x="334.39" y="356" type="line"/>
      <point x="339.766" y="371"/>
      <point x="369.488" y="445"/>
    </contour>
    <contour>
      <point x="195.488" y="445" type="curve" smooth="yes"/>
      <point x="224.488" y="445"/>
      <point x="243.795" y="428"/>
      <point x="253.251" y="393" type="curve"/>
      <point x="270.946" y="309" type="line"/>
      <point x="265.57" y="294"/>
      <point x="235.848" y="220"/>
      <point x="159.848" y="220" type="curve" smooth="yes"/>
      <point x="117.848" y="220"/>
      <point x="94.6" y="250"/>
      <point x="101.728" y="295" type="curve" smooth="yes"/>
      <point x="113.608" y="370" type="line" smooth="yes"/>
      <point x="120.736" y="415"/>
      <point x="153.488" y="445"/>
    </contour>
  </outline>
</glyph>
<glyph name="logicaland" format="2">
  <advance width="600"/>
  <unicode hex="2227"/>
  <outline>
    <contour>
      <point x="301" y="486" type="curve"/>
      <point x="292" y="486" type="line"/>
      <point x="292" y="486"/>
      <point x="292" y="451"/>
      <point x="270" y="390" type="curve" smooth="yes"/>
      <point x="149" y="50" type="line" name="at01"/>
      <point x="56" y="50" type="line"/>
      <point x="247" y="550" type="line" name="ab01"/>
      <point x="349" y="550" type="line"/>
      <point x="544" y="50" type="line" name="at02"/>
      <point x="454" y="50" type="line"/>
      <point x="326" y="390" type="line" smooth="yes"/>
      <point x="303" y="450"/>
      <point x="301" y="486"/>
    </contour>
  </outline>
</glyph>
<glyph name="logicalor" format="2">
  <advance width="600"/>
  <unicode hex="2228"/>
  <outline>
    <contour>
      <point x="299" y="124" type="curve"/>
      <point x="308" y="124" type="line"/>
      <point x="308" y="124"/>
      <point x="308" y="159"/>
      <point x="330" y="220" type="curve" smooth="yes"/>
      <point x="451" y="550" type="line" name="at01"/>
      <point x="544" y="550" type="line"/>
      <point x="353" y="60" type="line" name="ab01"/>
      <point x="251" y="60" type="line"/>
      <point x="56" y="550" type="line" name="at02"/>
      <point x="146" y="550" type="line"/>
      <point x="274" y="220" type="line" smooth="yes"/>
      <point x="298" y="159"/>
      <point x="299" y="124"/>
    </contour>
  </outline>
</glyph>
<glyph name="notequal" format="2">
  <advance width="600" height="985"/>
  <unicode hex="2260"/>
  <outline>
    <component base="equal"/>
    <contour>
      <point x="465.336" y="665" type="line"/>
      <point x="555.336" y="665" type="line"/>
      <point x="140" y="0" type="line"/>
      <point x="50" y="0" type="line"/>
    </contour>
  </outline>
</glyph>
<glyph name="lessequal" format="2">
  <advance width="600" height="985"/>
  <unicode hex="2264"/>
  <outline>
    <component base="less" xOffset="15" yOffset="125"/>
    <contour>
      <point x="46.232" y="80" type="line"/>
      <point x="476.232" y="80" type="line"/>
      <point x="463.56" y="0" type="line"/>
      <point x="33.56" y="0" type="line"/>
    </contour>
  </outline>
</glyph>
<glyph name="uni2505" format="2">
  <advance width="600"/>
  <unicode hex="2505"/>
  <outline>
    <contour>
      <point x="237" y="460" type="line"/>
      <point x="363" y="460" type="line"/>
      <point x="363" y="260" type="line"/>
      <point x="237" y="260" type="line"/>
    </contour>
    <contour>
      <point x="437" y="460" type="line"/>
      <point x="563" y="460" type="line"/>
      <point x="563" y="260" type="line"/>
      <point x="437" y="260" type="line"/>
    </contour>
    <contour>
      <point x="37" y="460" type="line"/>
      <point x="163" y="460" type="line"/>
      <point x="163" y="260" type="line"/>
      <point x="37" y="260" type="line"/>
    </contour>
  </outline>
</glyph>
<glyph name="uni250D" format="2">
  <advance width="600"/>
  <unicode hex="250D"/>
  <outline>
    <contour>
      <point x="350" y="260" type="line"/>
      <point x="350" y="-310" type="line"/>
      <point x="250" y="-310" type="line"/>
      <point x="250" y="460" type="line"/>
      <point x="620" y="460" type="line"/>
      <point x="620" y="260" type="line"/>
    </contour>
  </outline>
</glyph>
<glyph name="uni250E" format="2">
  <advance width="600"/>
  <unicode hex="250E"/>
  <outline>
    <contour>
      <point x="400" y="310" type="line"/>
      <point x="400" y="-311" type="line"/>
      <point x="200" y="-311" type="line"/>
      <point x="200" y="410" type="line"/>
      <point x="620" y="410" type="line"/>
      <point x="620" y="310" type="line"/>
    </contour>
  </outline>
</glyph>
<glyph name="SF420000" format="2">
  <advance width="600"/>
  <unicode hex="2560"/>
  <outline>
    <contour>
      <point x="150" y="1010" type="line"/>
      <point x="250" y="1010" type="line"/>
      <point x="250" y="-310" type="line"/>
      <point x="150" y="-310" type="line"/>
    </contour>
    <contour>
      <point x="350" y="410" type="line"/>
      <point x="350" y="1010" type="line"/>
      <point x="450" y="1010" type="line"/>
      <point x="450" y="510" type="line"/>
      <point x="620" y="510" type="line"/>
      <point x="620" y="410" type="line"/>
    </contour>
    <contour>
      <point x="350" y="310" type="line"/>
      <point x="620" y="310" type="line"/>
      <point x="620" y="210" type="line"/>
      <point x="450" y="210" type="line"/>
      <point x="450" y="-310" type="line"/>
      <point x="350" y="-310" type="line"/>
    </contour>
  </outline>
</glyph>
<glyph name="uni2589" format="2">
  <advance width="600"/>
  <unicode hex="2589"/>
  <outline>
    <contour>
      <point x="0" y="975" type="line"/>
      <point x="525" y="975" type="line"/>
      <point x="525" y="-275" type="line"/>
      <point x="0" y="-275" type="line"/>
    </contour>
  </outline>
</glyph>
<glyph name="uni2597" format="2">
  <advance width="600"/>
  <unicode hex="2597"/>
  <outline>
    <contour>
      <point x="300" y="350" type="line"/>
      <point x="620" y="350" type="line"/>
      <point x="620" y="-310" type="line"/>
      <point x="300" y="-310" type="line"/>
    </contour>
  </outline>
</glyph>
<glyph name="uni259D" format="2">
  <advance width="600"/>
  <unicode hex="259D"/>
  <outline>
    <contour>
      <point x="300" y="1010" type="line"/>
      <point x="620" y="1010" type="line"/>
      <point x="620" y="350" type="line"/>
      <point x="300" y="350" type="line"/>
    </contour>
  </outline>
</glyph>
<glyph name="lozenge" format="2">
  <advance width="600" height="985"/>
  <unicode hex="25CA"/>
  <outline>
    <contour>
      <point x="541.322" y="324" type="line"/>
      <point x="552.568" y="395" type="line"/>
      <point x="428.048" y="720" type="line"/>
      <point x="302.048" y="720" type="line"/>
      <point x="72.568" y="395" type="line"/>
      <point x="61.3216" y="324" type="line"/>
      <point x="192" y="0" type="line"/>
      <point x="318" y="0" type="line"/>
    </contour>
    <contour>
      <point x="158.4" y="375" type="line"/>
      <point x="290.179" y="563" type="line" smooth="yes"/>
      <point x="327.574" y="616"/>
      <point x="355.544" y="660"/>
      <point x="355.544" y="660" type="curve"/>
      <point x="359.544" y="660" type="line"/>
      <point x="359.544" y="660"/>
      <point x="374.574" y="616"/>
      <point x="393.179" y="563" type="curve" smooth="yes"/>
      <point x="459.4" y="375" type="line"/>
      <point x="454.49" y="344" type="line"/>
      <point x="324.869" y="157" type="line" smooth="yes"/>
      <point x="287.315" y="103"/>
      <point x="260.504" y="60"/>
      <point x="260.504" y="60" type="curve"/>
      <point x="256.504" y="60" type="line"/>
      <point x="256.504" y="60"/>
      <point x="242.157" y="102"/>
      <point x="221.869" y="157" type="curve" smooth="yes"/>
      <point x="153.49" y="344" type="line"/>
    </contour>
  </outline>
</glyph>
<glyph name="uni27E8" format="2">
  <advance width="600"/>
  <unicode hex="27E8"/>
  <outline>
    <contour>
      <point x="377" y="815" type="line"/>
      <point x="479" y="815" type="line"/>
      <point x="199" y="348" type="line"/>
      <point x="485" y="-115" type="line"/>
      <point x="377" y="-115" type="line"/>
      <point x="125" y="290" type="line"/>
      <point x="125" y="412" type="line"/>
    </contour>
  </outline>
</glyph>
<glyph name="uniE0A1" format="2">
  <advance width="600"/>
  <unicode hex="E0A1"/>
  <outline>
    <contour>
      <point x="185" y="895" type="line"/>
      <point x="185" y="480" type="line"/>
      <point x="406" y="480" type="line"/>
      <point x="406" y="405" type="line"/>
      <point x="105" y="405" type="line"/>
      <point x="105" y="895" type="line"/>
    </contour>
    <contour>
      <point x="495" y="315" type="line"/>
      <point x="495" y="-175" type="line"/>
      <point x="403" y="-175" type="line"/>
      <point x="275" y="118" type="line" smooth="yes"/>
      <point x="253" y="168"/>
      <point x="234" y="240"/>
      <point x="234" y="240" type="curve"/>
      <point x="224" y="240" type="line"/>
      <point x="224" y="240"/>
      <point x="240" y="157"/>
      <point x="240" y="100" type="curve" smooth="yes"/>
      <point x="240" y="-175" type="line"/>
      <point x="165" y="-175" type="line"/>
      <point x="165" y="315" type="line"/>
      <point x="258" y="315" type="line"/>
      <point x="387" y="22" type="line" smooth="yes"/>
      <point x="409" y="-28"/>
      <point x="425" y="-100"/>
      <point x="425" y="-100" type="curve"/>
      <point x="435" y="-100" type="line"/>
      <point x="436" y="-100"/>
      <point x="420" y="-14"/>
      <point x="420" y="40" type="curve" smooth="yes"/>
      <point x="420" y="315" type="line"/>
    </contour>
  </outline>
</glyph>
<glyph name="uniE0B0" format="2">
  <advance width="600"/>
  <unicode hex="E0B0"/>
  <outline>
    <contour>
      <point x="0" y="970" type="line"/>
      <point x="610" y="350" type="line"/>
      <point x="0" y="-270" type="line"/>
      <point x="-20" y="-270" type="line"/>
      <point x="-20" y="970" type="line"/>
    </contour>
  </outline>
</glyph>
<glyph name=".notdef" format="2">
  <advance width="600" height="975"/>
  <outline>
    <contour>
      <point x="33" y="0" type="line"/>
      <point x="147.048" y="720" type="line"/>
      <point x="567.048" y="720" type="line"/>
      <point x="453" y="0" type="line"/>
    </contour>
    <contour>
      <point x="110.92" y="50" type="line"/>
      <point x="410.92" y="50" type="line"/>
      <point x="499.782" y="611" type="line"/>
    </contour>
    <contour>
      <point x="489.128" y="670" type="line"/>
      <point x="189.128" y="670" type="line"/>
      <point x="100.266" y="109" type="line"/>
    </contour>
  </outline>
</glyph>
<glyph name="a.alt" format="2">
  <advance width="600" height="985"/>
  <outline>
    <contour>
      <point x="63.472" y="205" type="curve" smooth="yes"/>
      <point x="85.648" y="345" type="line" smooth="yes"/>
      <point x="106.082" y="474"/>
      <point x="193.704" y="560"/>
      <point x="304.704" y="560" type="curve" smooth="yes"/>
      <point x="383.704" y="560"/>
      <point x="433.368" y="520"/>
      <point x="440.072" y="455" type="curve"/>
      <point x="468.072" y="455" type="line"/>
      <point x="450.648" y="345" type="line"/>
      <point x="425.648" y="345" type="line"/>
      <point x="438.795" y="428"/>
      <point x="398.349" y="482"/>
      <point x="324.349" y="482" type="curve" smooth="yes"/>
      <point x="242.349" y="482"/>
      <point x="187.112" y="430"/>
      <point x="173.648" y="345" type="curve" smooth="yes"/>
      <point x="151.472" y="205" type="line" smooth="yes"/>
      <point x="138.008" y="120"/>
      <point x="176.771" y="68"/>
      <point x="258.771" y="68" type="curve" smooth="yes"/>
      <point x="332.771" y="68"/>
      <point x="390.325" y="122"/>
      <point x="403.472" y="205" type="curve"/>
      <point x="428.472" y="205" type="line"/>
      <point x="411.048" y="95" type="line"/>
      <point x="383.048" y="95" type="line"/>
      <point x="355.752" y="30"/>
      <point x="293.416" y="-10"/>
      <point x="214.416" y="-10" type="curve" smooth="yes"/>
      <point x="103.416" y="-10"/>
      <point x="43.0384" y="76"/>
    </contour>
    <contour>
      <point x="463.12" y="550" type="line"/>
      <point x="546.12" y="550" type="line"/>
      <point x="459" y="0" type="line"/>
      <point x="376" y="0" type="line"/>
      <point x="391.84" y="100" type="line"/>
      <point x="386.84" y="100" type="line"/>
      <point x="440.854" y="441" type="line"/>
      <point x="445.854" y="441" type="line"/>
    </contour>
  </outline>
</glyph>
<glyph name="acute.case" format="2">
  <advance width="600" height="975"/>
  <outline>
    <contour>
      <point x="300" y="946" type="line"/>
      <point x="190" y="800" type="line"/>
      <point x="280" y="800" type="line"/>
      <point x="410" y="946" type="line"/>
    </contour>
  </outline>
</glyph>
<glyph name="ampersand_equal.liga" format="2">
  <advance width="600" height="985"/>
  <outline>
    <contour>
      <point x="34.6" y="250" type="line"/>
      <point x="509.6" y="250" type="line"/>
      <point x="496.928" y="170" type="line"/>
      <point x="21.928" y="170" type="line"/>
    </contour>
    <contour>
      <point x="-307.68" y="425" type="line"/>
      <point x="-316.392" y="370" type="line"/>
      <point x="-330.392" y="370" type="line" smooth="yes"/>
      <point x="-384.392" y="370"/>
      <point x="-421.619" y="337"/>
      <point x="-430.648" y="280" type="curve" smooth="yes"/>
      <point x="-450.448" y="155" type="line" smooth="yes"/>
      <point x="-459.002" y="101"/>
      <point x="-430.912" y="70"/>
      <point x="-373.912" y="70" type="curve" smooth="yes"/>
      <point x="-330.912" y="70"/>
      <point x="-280.843" y="102"/>
      <point x="-239.448" y="155" type="curve" smooth="yes"/>
      <point x="22.616" y="490" type="line"/>
      <point x="547.616" y="490" type="line"/>
      <point x="534.944" y="410" type="line"/>
      <point x="51.944" y="410" type="line"/>
      <point x="-164.091" y="132" type="line" smooth="yes"/>
      <point x="-235.822" y="39"/>
      <point x="-315.584" y="-10"/>
      <point x="-391.584" y="-10" type="curve" smooth="yes"/>
      <point x="-500.584" y="-10"/>
      <point x="-556.763" y="52"/>
      <point x="-540.448" y="155" type="curve" smooth="yes"/>
      <point x="-520.648" y="280" type="line" smooth="yes"/>
      <point x="-506.234" y="371"/>
      <point x="-432.68" y="425"/>
      <point x="-322.68" y="425" type="curve" smooth="yes"/>
    </contour>
    <contour>
      <point x="-430.504" y="565" type="curve" smooth="yes"/>
      <point x="-415.139" y="662"/>
      <point x="-333.368" y="730"/>
      <point x="-224.368" y="730" type="curve" smooth="yes"/>
      <point x="-111.368" y="730"/>
      <point x="-46.2976" y="661"/>
      <point x="-61.504" y="565" type="curve"/>
      <point x="-151.504" y="565" type="line"/>
      <point x="-143.742" y="614"/>
      <point x="-177.723" y="652"/>
      <point x="-236.723" y="652" type="curve" smooth="yes"/>
      <point x="-290.723" y="652"/>
      <point x="-332.742" y="614"/>
      <point x="-340.504" y="565" type="curve" smooth="yes"/>
      <point x="-344.622" y="539"/>
      <point x="-339.374" y="509"/>
      <point x="-320.602" y="476" type="curve" smooth="yes"/>
      <point x="-54" y="0" type="line"/>
      <point x="-153" y="0" type="line"/>
      <point x="-397.571" y="432" type="line" smooth="yes"/>
      <point x="-426.493" y="483"/>
      <point x="-436.365" y="528"/>
    </contour>
  </outline>
</glyph>
<glyph name="asciicircum_equal.liga" format="2">
  <advance width="600" height="985"/>
  <outline>
    <contour>
      <point x="-147.07" y="694" type="curve"/>
      <point x="-151.07" y="694" type="line"/>
      <point x="-151.07" y="694"/>
      <point x="-160.189" y="668"/>
      <point x="-183.416" y="635" type="curve" smooth="yes"/>
      <point x="-343.056" y="410" type="line"/>
      <point x="-440.056" y="410" type="line"/>
      <point x="-184.616" y="760" type="line"/>
      <point x="-100.616" y="760" type="line"/>
      <point x="44.944" y="410" type="line"/>
      <point x="-55.056" y="410" type="line"/>
      <point x="-134.416" y="635" type="line" smooth="yes"/>
      <point x="-146.189" y="668"/>
      <point x="-147.07" y="694"/>
    </contour>
    <contour>
      <point x="-80.4" y="250" type="line"/>
      <point x="404.6" y="250" type="line"/>
      <point x="391.928" y="170" type="line"/>
      <point x="-93.072" y="170" type="line"/>
    </contour>
    <contour>
      <point x="-42.384" y="490" type="line"/>
      <point x="442.616" y="490" type="line"/>
      <point x="429.944" y="410" type="line"/>
      <point x="-55.056" y="410" type="line"/>
    </contour>
  </outline>
</glyph>
<glyph name="asciitilde_asciitilde.liga" format="2">
  <advance width="600" height="985"/>
  <outline>
    <contour>
      <point x="-429.856" y="264" type="line"/>
      <point x="-344.856" y="264" type="line"/>
      <point x="-338.52" y="304" type="line" smooth="yes"/>
      <point x="-332.818" y="340"/>
      <point x="-312.808" y="359"/>
      <point x="-282.808" y="359" type="curve" smooth="yes"/>
      <point x="-214.808" y="359"/>
      <point x="-230.4" y="229"/>
      <point x="-105.4" y="229" type="curve" smooth="yes"/>
      <point x="19.6" y="229"/>
      <point x="42.192" y="359"/>
      <point x="112.192" y="359" type="curve" smooth="yes"/>
      <point x="182.192" y="359"/>
      <point x="164.6" y="229"/>
      <point x="289.6" y="229" type="curve" smooth="yes"/>
      <point x="367.6" y="229"/>
      <point x="427.995" y="282"/>
      <point x="440.192" y="359" type="curve" smooth="yes"/>
      <point x="446.528" y="399" type="line"/>
      <point x="361.528" y="399" type="line"/>
      <point x="355.192" y="359" type="line" smooth="yes"/>
      <point x="349.49" y="323"/>
      <point x="329.48" y="304"/>
      <point x="299.48" y="304" type="curve" smooth="yes"/>
      <point x="231.48" y="304"/>
      <point x="247.072" y="434"/>
      <point x="122.072" y="434" type="curve" smooth="yes"/>
      <point x="-2.928" y="434"/>
      <point x="-25.52" y="304"/>
      <point x="-95.52" y="304" type="curve" smooth="yes"/>
      <point x="-165.52" y="304"/>
      <point x="-148.928" y="434"/>
      <point x="-272.928" y="434" type="curve" smooth="yes"/>
      <point x="-350.928" y="434"/>
      <point x="-411.165" y="382"/>
      <point x="-423.52" y="304" type="curve" smooth="yes"/>
    </contour>
  </outline>
</glyph>
<glyph name="asciitilde_equal.liga" format="2">
  <advance width="600" height="985"/>
  <outline>
    <contour>
      <point x="185.896" y="355" type="curve" smooth="yes"/>
      <point x="40.896" y="355"/>
      <point x="-61.888" y="470"/>
      <point x="-169.888" y="470" type="curve" smooth="yes"/>
      <point x="-227.888" y="470"/>
      <point x="-272.274" y="436"/>
      <point x="-280.352" y="385" type="curve" smooth="yes"/>
      <point x="-284.312" y="360" type="line"/>
      <point x="-369.312" y="360" type="line"/>
      <point x="-365.352" y="385" type="line" smooth="yes"/>
      <point x="-350.146" y="481"/>
      <point x="-266.008" y="545"/>
      <point x="-156.008" y="545" type="curve" smooth="yes"/>
      <point x="-11.008" y="545"/>
      <point x="91.776" y="430"/>
      <point x="199.776" y="430" type="curve" smooth="yes"/>
      <point x="257.776" y="430"/>
      <point x="302.162" y="464"/>
      <point x="310.24" y="515" type="curve" smooth="yes"/>
      <point x="314.2" y="540" type="line"/>
      <point x="399.2" y="540" type="line"/>
      <point x="395.24" y="515" type="line" smooth="yes"/>
      <point x="380.034" y="419"/>
      <point x="295.896" y="355"/>
    </contour>
    <contour>
      <point x="-386.736" y="250" type="line"/>
      <point x="353.264" y="250" type="line"/>
      <point x="340.592" y="170" type="line"/>
      <point x="-399.408" y="170" type="line"/>
    </contour>
  </outline>
  <guideline angle="90" x="-600" y="0"/>
</glyph>
<glyph name="asciitilde_hyphen.liga" format="2">
  <advance width="600" height="985"/>
  <outline>
    <contour>
      <point x="-115.152" y="220" type="curve" smooth="yes"/>
      <point x="-252.152" y="220"/>
      <point x="-242.184" y="365"/>
      <point x="-332.184" y="365" type="curve" smooth="yes"/>
      <point x="-374.184" y="365"/>
      <point x="-406.619" y="337"/>
      <point x="-413.272" y="295" type="curve" smooth="yes"/>
      <point x="-422.776" y="235" type="line"/>
      <point x="-507.776" y="235" type="line"/>
      <point x="-498.272" y="295" type="line" smooth="yes"/>
      <point x="-484.491" y="382"/>
      <point x="-413.304" y="440"/>
      <point x="-320.304" y="440" type="curve" smooth="yes"/>
      <point x="-180.304" y="440"/>
      <point x="-191.272" y="295"/>
      <point x="-103.272" y="295" type="curve" smooth="yes"/>
      <point x="-61.272" y="295"/>
      <point x="-28.52" y="325"/>
      <point x="-21.392" y="370" type="curve"/>
      <point x="63.608" y="370" type="line"/>
      <point x="49.352" y="280"/>
      <point x="-22.152" y="220"/>
    </contour>
    <contour>
      <point x="3.608" y="370" type="line"/>
      <point x="508.608" y="370" type="line"/>
      <point x="495.936" y="290" type="line"/>
      <point x="-9.064" y="290" type="line"/>
    </contour>
  </outline>
  <guideline angle="90" x="-600" y="0"/>
</glyph>
<glyph name="bar_bar_bar.liga" format="2">
  <advance width="600" height="985"/>
  <outline>
    <contour>
      <point x="214.888" y="820" type="line"/>
      <point x="304.888" y="820" type="line"/>
      <point x="155.992" y="-120" type="line"/>
      <point x="65.992" y="-120" type="line"/>
    </contour>
    <contour>
      <point x="-265.112" y="820" type="line"/>
      <point x="-175.112" y="820" type="line"/>
      <point x="-324.008" y="-120" type="line"/>
      <point x="-414.008" y="-120" type="line"/>
    </contour>
    <contour>
      <point x="-745.112" y="820" type="line"/>
      <point x="-655.112" y="820" type="line"/>
      <point x="-804.008" y="-120" type="line"/>
      <point x="-894.008" y="-120" type="line"/>
    </contour>
  </outline>
</glyph>
<glyph name="bar_bar_equal.liga" format="2">
  <advance width="600" height="985"/>
  <outline>
    <contour>
      <point x="-379.2" y="750" type="line"/>
      <point x="-289.2" y="750" type="line"/>
      <point x="-330.384" y="490" type="line"/>
      <point x="379.616" y="490" type="line"/>
      <point x="366.944" y="410" type="line"/>
      <point x="-343.056" y="410" type="line"/>
      <point x="-368.4" y="250" type="line"/>
      <point x="341.6" y="250" type="line"/>
      <point x="328.928" y="170" type="line"/>
      <point x="-381.072" y="170" type="line"/>
      <point x="-421.464" y="-85" type="line"/>
      <point x="-511.464" y="-85" type="line"/>
    </contour>
    <contour>
      <point x="-809.2" y="750" type="line"/>
      <point x="-719.2" y="750" type="line"/>
      <point x="-851.464" y="-85" type="line"/>
      <point x="-941.464" y="-85" type="line"/>
    </contour>
  </outline>
</glyph>
<glyph name="bar_bar_greater.liga" format="2">
  <advance width="600" height="985"/>
  <outline>
    <component base="bar_greater.liga" xOffset="-40"/>
    <contour>
      <point x="-717.2" y="750" type="line"/>
      <point x="-627.2" y="750" type="line"/>
      <point x="-758.514" y="-79" type="line"/>
      <point x="-848.514" y="-79" type="line"/>
    </contour>
  </outline>
  <guideline angle="90" x="-1200" y="0"/>
</glyph>
<glyph name="bar_braceright.liga" format="2">
  <advance width="600" height="985"/>
  <outline>
    <contour>
      <point x="10" y="830" type="line"/>
      <point x="130" y="830" type="line" smooth="yes"/>
      <point x="248" y="830"/>
      <point x="305" y="769"/>
      <point x="289" y="664" type="curve" smooth="yes"/>
      <point x="263" y="500" type="line" smooth="yes"/>
      <point x="251" y="429"/>
      <point x="260" y="400"/>
      <point x="347" y="400" type="curve" smooth="yes"/>
      <point x="437" y="400" type="line"/>
      <point x="424" y="320" type="line"/>
      <point x="334" y="320" type="line" smooth="yes"/>
      <point x="248" y="320"/>
      <point x="230" y="291"/>
      <point x="218" y="220" type="curve" smooth="yes"/>
      <point x="192" y="55" type="line" smooth="yes"/>
      <point x="175" y="-50"/>
      <point x="99" y="-111"/>
      <point x="-19" y="-111" type="curve" smooth="yes"/>
      <point x="-139" y="-111" type="line"/>
      <point x="-126" y="-31" type="line"/>
      <point x="-6" y="-31" type="line" smooth="yes"/>
      <point x="57" y="-31"/>
      <point x="93" y="-2"/>
      <point x="102" y="55" type="curve" smooth="yes"/>
      <point x="128" y="220" type="line" smooth="yes"/>
      <point x="140" y="293"/>
      <point x="185" y="353"/>
      <point x="265" y="356" type="curve"/>
      <point x="266" y="361" type="line"/>
      <point x="186" y="364"/>
      <point x="161" y="427"/>
      <point x="173" y="500" type="curve" smooth="yes"/>
      <point x="199" y="664" type="line" smooth="yes"/>
      <point x="208" y="721"/>
      <point x="180" y="750"/>
      <point x="117" y="750" type="curve" smooth="yes"/>
      <point x="-3" y="750" type="line"/>
    </contour>
    <contour>
      <point x="-255" y="830" type="line"/>
      <point x="-165" y="830" type="line"/>
      <point x="-314" y="-110" type="line"/>
      <point x="-404" y="-110" type="line"/>
    </contour>
  </outline>
  <guideline angle="90" x="-600" y="0"/>
</glyph>
<glyph name="bar_equal.liga" format="2">
  <advance width="600" height="985"/>
  <outline>
    <contour>
      <point x="-276.2" y="750" type="line"/>
      <point x="-186.2" y="750" type="line"/>
      <point x="-227.384" y="490" type="line"/>
      <point x="447.616" y="490" type="line"/>
      <point x="434.944" y="410" type="line"/>
      <point x="-240.056" y="410" type="line"/>
      <point x="-265.4" y="250" type="line"/>
      <point x="409.6" y="250" type="line"/>
      <point x="396.928" y="170" type="line"/>
      <point x="-278.072" y="170" type="line"/>
      <point x="-318.464" y="-85" type="line"/>
      <point x="-408.464" y="-85" type="line"/>
    </contour>
  </outline>
</glyph>
